<?xml version="1.0" encoding="UTF-8" standalone="no"?>
<!DOCTYPE svg PUBLIC "-//W3C//DTD SVG 1.1//EN"
 "http://www.w3.org/Graphics/SVG/1.1/DTD/svg11.dtd">
<!-- Generated by graphviz version 12.2.1 (0)
 -->
<!-- Title: curriculo Pages: 1 -->
<svg width="5244pt" height="1080pt"
 viewBox="0.00 0.00 5243.85 1080.00" xmlns="http://www.w3.org/2000/svg" xmlns:xlink="http://www.w3.org/1999/xlink">
<g id="graph0" class="graph" transform="scale(1 1) rotate(0) translate(4 1076)">
<title>curriculo</title>
<polygon fill="none" stroke="none" points="-4,4 -4,-1076 5239.85,-1076 5239.85,4 -4,4"/>
<g id="clust1" class="cluster">
<title>cluster_1</title>
<polygon fill="none" stroke="none" points="8,-8 8,-60 1374.07,-60 1374.07,-8 8,-8"/>
</g>
<g id="clust2" class="cluster">
<title>cluster_2</title>
<polygon fill="none" stroke="none" points="651.52,-312 651.52,-364 1975.97,-364 1975.97,-312 651.52,-312"/>
</g>
<g id="clust3" class="cluster">
<title>cluster_3</title>
<polygon fill="none" stroke="none" points="1651.55,-540 1651.55,-592 2932.1,-592 2932.1,-540 1651.55,-540"/>
</g>
<g id="clust4" class="cluster">
<title>cluster_4</title>
<polygon fill="none" stroke="none" points="2276.32,-670 2276.32,-722 3792.22,-722 3792.22,-670 2276.32,-670"/>
</g>
<g id="clust5" class="cluster">
<title>cluster_5</title>
<polygon fill="none" stroke="none" points="2757.2,-762 2757.2,-814 4291.85,-814 4291.85,-762 2757.2,-762"/>
</g>
<g id="clust6" class="cluster">
<title>cluster_6</title>
<polygon fill="none" stroke="none" points="2757.2,-892 2757.2,-944 4628.1,-944 4628.1,-892 2757.2,-892"/>
</g>
<g id="clust7" class="cluster">
<title>cluster_7</title>
<polygon fill="none" stroke="none" points="3413.45,-952 3413.45,-1004 4926.1,-1004 4926.1,-952 3413.45,-952"/>
</g>
<g id="clust8" class="cluster">
<title>cluster_8</title>
<polygon fill="none" stroke="none" points="4728.7,-1012 4728.7,-1064 5227.85,-1064 5227.85,-1012 4728.7,-1012"/>
</g>
<g id="clust9" class="cluster">
<title>cluster_999</title>
<polygon fill="none" stroke="none" points="8,-540 8,-592 358.3,-592 358.3,-540 8,-540"/>
</g>
<!-- EEL5105 -->
<g id="node1" class="node">
<title>EEL5105</title>
<polygon fill="lightblue" stroke="black" points="344.3,-52 158.8,-52 158.8,-16 344.3,-16 344.3,-52"/>
<text text-anchor="middle" x="251.55" y="-28.57" font-family="Arial" font-size="14.00">Circuitos e Técnicas Digitais</text>
</g>
<!-- INE5401 -->
<g id="node3" class="node">
<title>INE5401</title>
<polygon fill="lightblue" stroke="black" points="558.3,-52 386.3,-52 386.3,-16 558.3,-16 558.3,-52"/>
<text text-anchor="middle" x="472.3" y="-28.57" font-family="Arial" font-size="14.00">Introdução à Computação</text>
</g>
<!-- EEL5105&#45;&gt;INE5401 -->
<!-- INE5406 -->
<g id="node9" class="node">
<title>INE5406</title>
<polygon fill="lightblue" stroke="black" points="1375.8,-356 1255.55,-356 1255.55,-320 1375.8,-320 1375.8,-356"/>
<text text-anchor="middle" x="1315.67" y="-332.57" font-family="Arial" font-size="14.00">Sistemas Digitais</text>
</g>
<!-- EEL5105&#45;&gt;INE5406 -->
<g id="edge43" class="edge">
<title>EEL5105&#45;&gt;INE5406</title>
<path fill="none" stroke="black" stroke-width="2" d="M251.85,-52.3C251.85,-104.93 251.85,-253 251.85,-253 251.85,-253 1260.85,-253 1260.85,-253 1260.85,-253 1260.85,-317.06 1260.85,-317.06"/>
<polygon fill="black" stroke="black" stroke-width="2" points="1263.35,-318.56 1258.35,-318.56 1258.35,-317.56 1263.35,-317.56 1263.35,-318.56"/>
<polyline fill="none" stroke="black" stroke-width="2" points="1260.85,-319.06 1260.85,-316.56"/>
</g>
<!-- header_1 -->
<g id="node2" class="node">
<title>header_1</title>
<polygon fill="lightgrey" stroke="black" points="116.8,-52 16,-52 16,-16 116.8,-16 116.8,-52"/>
<text text-anchor="middle" x="66.4" y="-28.57" font-family="Arial" font-size="14.00">Fase 1</text>
</g>
<!-- header_1&#45;&gt;EEL5105 -->
<!-- INE5402 -->
<g id="node4" class="node">
<title>INE5402</title>
<polygon fill="lightblue" stroke="black" points="825.55,-52 594.3,-52 594.3,-16 825.55,-16 825.55,-52"/>
<text text-anchor="middle" x="709.92" y="-28.57" font-family="Arial" font-size="14.00">Programação Orientada a Objetos I</text>
</g>
<!-- INE5401&#45;&gt;INE5402 -->
<!-- INE5403 -->
<g id="node5" class="node">
<title>INE5403</title>
<polygon fill="lightblue" stroke="black" points="1219.55,-52 861.55,-52 861.55,-16 1219.55,-16 1219.55,-52"/>
<text text-anchor="middle" x="1040.55" y="-28.57" font-family="Arial" font-size="14.00">Fundamentos de Matemática Discreta para Computação</text>
</g>
<!-- INE5402&#45;&gt;INE5403 -->
<!-- INE5404 -->
<g id="node7" class="node">
<title>INE5404</title>
<polygon fill="lightblue" stroke="black" points="1158.05,-356 923.05,-356 923.05,-320 1158.05,-320 1158.05,-356"/>
<text text-anchor="middle" x="1040.55" y="-332.57" font-family="Arial" font-size="14.00">Programação Orientada a Objetos II</text>
</g>
<!-- INE5402&#45;&gt;INE5404 -->
<g id="edge42" class="edge">
<title>INE5402&#45;&gt;INE5404</title>
<path fill="none" stroke="black" stroke-width="2" d="M803.85,-52.19C803.85,-116.89 803.85,-332 803.85,-332 803.85,-332 920.39,-332 920.39,-332"/>
<polygon fill="black" stroke="black" stroke-width="2" points="921.89,-329.5 921.89,-334.5 920.89,-334.5 920.89,-329.5 921.89,-329.5"/>
<polyline fill="none" stroke="black" stroke-width="2" points="922.39,-332 919.89,-332"/>
</g>
<!-- INE5202 -->
<g id="node13" class="node">
<title>INE5202</title>
<polygon fill="lightblue" stroke="black" points="2035.85,-584 1796.35,-584 1796.35,-548 2035.85,-548 2035.85,-584"/>
<text text-anchor="middle" x="1916.1" y="-560.58" font-family="Arial" font-size="14.00">Cálculo Numérico em Computadores</text>
</g>
<!-- INE5402&#45;&gt;INE5202 -->
<g id="edge45" class="edge">
<title>INE5402&#45;&gt;INE5202</title>
<path fill="none" stroke="black" stroke-width="2" d="M781.85,-52.33C781.85,-92.76 781.85,-186 781.85,-186 781.85,-186 1841.85,-186 1841.85,-186 1841.85,-186 1841.85,-545.17 1841.85,-545.17"/>
<polygon fill="black" stroke="black" stroke-width="2" points="1844.35,-546.67 1839.35,-546.67 1839.35,-545.67 1844.35,-545.67 1844.35,-546.67"/>
<polyline fill="none" stroke="black" stroke-width="2" points="1841.85,-547.17 1841.85,-544.67"/>
</g>
<!-- MTM3110 -->
<g id="node6" class="node">
<title>MTM3110</title>
<polygon fill="lightblue" stroke="black" points="1366.07,-52 1265.27,-52 1265.27,-16 1366.07,-16 1366.07,-52"/>
<text text-anchor="middle" x="1315.67" y="-28.57" font-family="Arial" font-size="14.00">Cálculo 1</text>
</g>
<!-- INE5403&#45;&gt;MTM3110 -->
<!-- INE5413 -->
<g id="node21" class="node">
<title>INE5413</title>
<polygon fill="lightblue" stroke="black" points="2866,-714 2765.2,-714 2765.2,-678 2866,-678 2866,-714"/>
<text text-anchor="middle" x="2815.6" y="-690.58" font-family="Arial" font-size="14.00">Grafos</text>
</g>
<!-- INE5403&#45;&gt;INE5413 -->
<g id="edge55" class="edge">
<title>INE5403&#45;&gt;INE5413</title>
<path fill="none" stroke="black" stroke-width="2" d="M1203.85,-52.19C1203.85,-155.58 1203.85,-664.57 1203.85,-664.57 1203.85,-664.57 2798.85,-664.57 2798.85,-664.57 2798.85,-664.57 2798.85,-675.22 2798.85,-675.22"/>
<polygon fill="black" stroke="black" stroke-width="2" points="2801.35,-676.72 2796.35,-676.72 2796.35,-675.72 2801.35,-675.72 2801.35,-676.72"/>
<polyline fill="none" stroke="black" stroke-width="2" points="2798.85,-677.22 2798.85,-674.72"/>
</g>
<!-- INE5415 -->
<g id="node23" class="node">
<title>INE5415</title>
<polygon fill="lightblue" stroke="black" points="3331.85,-714 3179.35,-714 3179.35,-678 3331.85,-678 3331.85,-714"/>
<text text-anchor="middle" x="3255.6" y="-690.58" font-family="Arial" font-size="14.00">Teoria da Computação</text>
</g>
<!-- INE5403&#45;&gt;INE5415 -->
<g id="edge58" class="edge">
<title>INE5403&#45;&gt;INE5415</title>
<path fill="none" stroke="black" stroke-width="2" d="M1188.85,-52.44C1188.85,-77.44 1188.85,-119 1188.85,-119 1188.85,-119 3229.85,-119 3229.85,-119 3229.85,-119 3229.85,-675.28 3229.85,-675.28"/>
<polygon fill="black" stroke="black" stroke-width="2" points="3232.35,-676.78 3227.35,-676.78 3227.35,-675.78 3232.35,-675.78 3232.35,-676.78"/>
<polyline fill="none" stroke="black" stroke-width="2" points="3229.85,-677.28 3229.85,-674.78"/>
</g>
<!-- INE5429 -->
<g id="node43" class="node">
<title>INE5429</title>
<polygon fill="lightblue" stroke="black" points="4043.6,-996 3858.1,-996 3858.1,-960 4043.6,-960 4043.6,-996"/>
<text text-anchor="middle" x="3950.85" y="-972.58" font-family="Arial" font-size="14.00">Segurança em Computação</text>
</g>
<!-- INE5403&#45;&gt;INE5429 -->
<g id="edge82" class="edge">
<title>INE5403&#45;&gt;INE5429</title>
<path fill="none" stroke="black" stroke-width="2" d="M1173.85,-52.36C1173.85,-181.9 1173.85,-953.14 1173.85,-953.14 1173.85,-953.14 3950.85,-953.14 3950.85,-953.14 3950.85,-953.14 3950.85,-957.17 3950.85,-957.17"/>
<polygon fill="black" stroke="black" stroke-width="2" points="3953.35,-958.67 3948.35,-958.67 3948.35,-957.67 3953.35,-957.67 3953.35,-958.67"/>
<polyline fill="none" stroke="black" stroke-width="2" points="3950.85,-959.17 3950.85,-956.67"/>
</g>
<!-- MTM3120 -->
<g id="node11" class="node">
<title>MTM3120</title>
<polygon fill="lightblue" stroke="black" points="1760.35,-356 1659.55,-356 1659.55,-320 1760.35,-320 1760.35,-356"/>
<text text-anchor="middle" x="1709.95" y="-332.57" font-family="Arial" font-size="14.00">Cálculo 2</text>
</g>
<!-- MTM3110&#45;&gt;MTM3120 -->
<g id="edge44" class="edge">
<title>MTM3110&#45;&gt;MTM3120</title>
<path fill="none" stroke="black" stroke-width="2" d="M1366.4,-40C1472.86,-40 1709.85,-40 1709.85,-40 1709.85,-40 1709.85,-317.31 1709.85,-317.31"/>
<polygon fill="black" stroke="black" stroke-width="2" points="1712.35,-318.81 1707.35,-318.81 1707.35,-317.81 1712.35,-317.81 1712.35,-318.81"/>
<polyline fill="none" stroke="black" stroke-width="2" points="1709.85,-319.31 1709.85,-316.81"/>
</g>
<!-- INE5405 -->
<g id="node26" class="node">
<title>INE5405</title>
<polygon fill="lightblue" stroke="black" points="3135.85,-806 2960.1,-806 2960.1,-770 3135.85,-770 3135.85,-806"/>
<text text-anchor="middle" x="3047.97" y="-782.58" font-family="Arial" font-size="14.00">Probabilidade e Estatística</text>
</g>
<!-- MTM3110&#45;&gt;INE5405 -->
<g id="edge62" class="edge">
<title>MTM3110&#45;&gt;INE5405</title>
<path fill="none" stroke="black" stroke-width="2" d="M1366.13,-28C1640.61,-28 2941.85,-28 2941.85,-28 2941.85,-28 2941.85,-782 2941.85,-782 2941.85,-782 2957.35,-782 2957.35,-782"/>
<polygon fill="black" stroke="black" stroke-width="2" points="2958.85,-779.5 2958.85,-784.5 2957.85,-784.5 2957.85,-779.5 2958.85,-779.5"/>
<polyline fill="none" stroke="black" stroke-width="2" points="2959.35,-782 2956.85,-782"/>
</g>
<!-- INE5404&#45;&gt;INE5406 -->
<!-- INE5408 -->
<g id="node15" class="node">
<title>INE5408</title>
<polygon fill="lightblue" stroke="black" points="2210.85,-584 2071.85,-584 2071.85,-548 2210.85,-548 2210.85,-584"/>
<text text-anchor="middle" x="2141.35" y="-560.58" font-family="Arial" font-size="14.00">Estruturas de Dados</text>
</g>
<!-- INE5404&#45;&gt;INE5408 -->
<g id="edge48" class="edge">
<title>INE5404&#45;&gt;INE5408</title>
<path fill="none" stroke="black" stroke-width="2" d="M1040.85,-356.38C1040.85,-401.86 1040.85,-516 1040.85,-516 1040.85,-516 2140.85,-516 2140.85,-516 2140.85,-516 2140.85,-545.17 2140.85,-545.17"/>
<polygon fill="black" stroke="black" stroke-width="2" points="2143.35,-546.67 2138.35,-546.67 2138.35,-545.67 2143.35,-545.67 2143.35,-546.67"/>
<polyline fill="none" stroke="black" stroke-width="2" points="2140.85,-547.17 2140.85,-544.67"/>
</g>
<!-- INE5410 -->
<g id="node16" class="node">
<title>INE5410</title>
<polygon fill="lightblue" stroke="black" points="2422.6,-584 2246.85,-584 2246.85,-548 2422.6,-548 2422.6,-584"/>
<text text-anchor="middle" x="2334.72" y="-560.58" font-family="Arial" font-size="14.00">Programação Concorrente</text>
</g>
<!-- INE5404&#45;&gt;INE5410 -->
<g id="edge49" class="edge">
<title>INE5404&#45;&gt;INE5410</title>
<path fill="none" stroke="black" stroke-width="2" d="M1098.85,-356.49C1098.85,-395.78 1098.85,-484 1098.85,-484 1098.85,-484 2334.85,-484 2334.85,-484 2334.85,-484 2334.85,-545.3 2334.85,-545.3"/>
<polygon fill="black" stroke="black" stroke-width="2" points="2337.35,-546.8 2332.35,-546.8 2332.35,-545.8 2337.35,-545.8 2337.35,-546.8"/>
<polyline fill="none" stroke="black" stroke-width="2" points="2334.85,-547.3 2334.85,-544.8"/>
</g>
<!-- INE5414 -->
<g id="node22" class="node">
<title>INE5414</title>
<polygon fill="lightblue" stroke="black" points="3135.1,-714 2960.85,-714 2960.85,-678 3135.1,-678 3135.1,-714"/>
<text text-anchor="middle" x="3047.97" y="-690.58" font-family="Arial" font-size="14.00">Redes de Computadores I</text>
</g>
<!-- INE5404&#45;&gt;INE5414 -->
<g id="edge57" class="edge">
<title>INE5404&#45;&gt;INE5414</title>
<path fill="none" stroke="black" stroke-width="2" d="M981.85,-356.3C981.85,-421.37 981.85,-637.71 981.85,-637.71 981.85,-637.71 3047.85,-637.71 3047.85,-637.71 3047.85,-637.71 3047.85,-675.06 3047.85,-675.06"/>
<polygon fill="black" stroke="black" stroke-width="2" points="3050.35,-676.56 3045.35,-676.56 3045.35,-675.56 3050.35,-675.56 3050.35,-676.56"/>
<polyline fill="none" stroke="black" stroke-width="2" points="3047.85,-677.06 3047.85,-674.56"/>
</g>
<!-- header_2 -->
<g id="node8" class="node">
<title>header_2</title>
<polygon fill="lightgrey" stroke="black" points="760.32,-356 659.52,-356 659.52,-320 760.32,-320 760.32,-356"/>
<text text-anchor="middle" x="709.92" y="-332.57" font-family="Arial" font-size="14.00">Fase 2</text>
</g>
<!-- header_2&#45;&gt;INE5404 -->
<!-- INE5407 -->
<g id="node10" class="node">
<title>INE5407</title>
<polygon fill="lightblue" stroke="black" points="1623.55,-356 1411.8,-356 1411.8,-320 1623.55,-320 1623.55,-356"/>
<text text-anchor="middle" x="1517.67" y="-332.57" font-family="Arial" font-size="14.00">Ciência, Tecnologia e Sociedade</text>
</g>
<!-- INE5406&#45;&gt;INE5407 -->
<!-- INE5411 -->
<g id="node17" class="node">
<title>INE5411</title>
<polygon fill="lightblue" stroke="black" points="2671.1,-584 2458.6,-584 2458.6,-548 2671.1,-548 2671.1,-584"/>
<text text-anchor="middle" x="2564.85" y="-560.58" font-family="Arial" font-size="14.00">Organização de Computadores I</text>
</g>
<!-- INE5406&#45;&gt;INE5411 -->
<g id="edge50" class="edge">
<title>INE5406&#45;&gt;INE5411</title>
<path fill="none" stroke="black" stroke-width="2" d="M1315.85,-356.32C1315.85,-388.54 1315.85,-452 1315.85,-452 1315.85,-452 2564.85,-452 2564.85,-452 2564.85,-452 2564.85,-545.18 2564.85,-545.18"/>
<polygon fill="black" stroke="black" stroke-width="2" points="2567.35,-546.68 2562.35,-546.68 2562.35,-545.68 2567.35,-545.68 2567.35,-546.68"/>
<polyline fill="none" stroke="black" stroke-width="2" points="2564.85,-547.18 2564.85,-544.68"/>
</g>
<!-- INE5407&#45;&gt;MTM3120 -->
<!-- INE5428 -->
<g id="node41" class="node">
<title>INE5428</title>
<polygon fill="lightblue" stroke="black" points="3781.22,-996 3618.97,-996 3618.97,-960 3781.22,-960 3781.22,-996"/>
<text text-anchor="middle" x="3700.1" y="-972.58" font-family="Arial" font-size="14.00">Informática e Sociedade</text>
</g>
<!-- INE5407&#45;&gt;INE5428 -->
<g id="edge81" class="edge">
<title>INE5407&#45;&gt;INE5428</title>
<path fill="none" stroke="black" stroke-width="2" d="M1517.85,-356.18C1517.85,-458.35 1517.85,-956.57 1517.85,-956.57 1517.85,-956.57 3699.85,-956.57 3699.85,-956.57 3699.85,-956.57 3699.85,-957.05 3699.85,-957.05"/>
<polygon fill="black" stroke="black" stroke-width="2" points="3702.35,-958.55 3697.35,-958.55 3697.35,-957.55 3702.35,-957.55 3702.35,-958.55"/>
<polyline fill="none" stroke="black" stroke-width="2" points="3699.85,-959.05 3699.85,-956.55"/>
</g>
<!-- MTM3121 -->
<g id="node12" class="node">
<title>MTM3121</title>
<polygon fill="lightblue" stroke="black" points="1967.97,-356 1864.22,-356 1864.22,-320 1967.97,-320 1967.97,-356"/>
<text text-anchor="middle" x="1916.1" y="-332.57" font-family="Arial" font-size="14.00">Álgebra Linear</text>
</g>
<!-- MTM3120&#45;&gt;MTM3121 -->
<!-- MTM3120&#45;&gt;INE5202 -->
<g id="edge46" class="edge">
<title>MTM3120&#45;&gt;INE5202</title>
<path fill="none" stroke="black" stroke-width="2" d="M1760.57,-344C1789.01,-344 1818.85,-344 1818.85,-344 1818.85,-344 1818.85,-545.33 1818.85,-545.33"/>
<polygon fill="black" stroke="black" stroke-width="2" points="1821.35,-546.83 1816.35,-546.83 1816.35,-545.83 1821.35,-545.83 1821.35,-546.83"/>
<polyline fill="none" stroke="black" stroke-width="2" points="1818.85,-547.33 1818.85,-544.83"/>
</g>
<!-- MTM3131 -->
<g id="node18" class="node">
<title>MTM3131</title>
<polygon fill="lightblue" stroke="black" points="2924.1,-584 2707.1,-584 2707.1,-548 2924.1,-548 2924.1,-584"/>
<text text-anchor="middle" x="2815.6" y="-560.58" font-family="Arial" font-size="14.00">Equações Diferenciais Ordinárias</text>
</g>
<!-- MTM3120&#45;&gt;MTM3131 -->
<g id="edge51" class="edge">
<title>MTM3120&#45;&gt;MTM3131</title>
<path fill="none" stroke="black" stroke-width="2" d="M1692.85,-356.2C1692.85,-380.36 1692.85,-420 1692.85,-420 1692.85,-420 2779.85,-420 2779.85,-420 2779.85,-420 2779.85,-545.01 2779.85,-545.01"/>
<polygon fill="black" stroke="black" stroke-width="2" points="2782.35,-546.51 2777.35,-546.51 2777.35,-545.51 2782.35,-545.51 2782.35,-546.51"/>
<polyline fill="none" stroke="black" stroke-width="2" points="2779.85,-547.01 2779.85,-544.51"/>
</g>
<!-- INE5420 -->
<g id="node30" class="node">
<title>INE5420</title>
<polygon fill="lightblue" stroke="black" points="3770.72,-806 3629.47,-806 3629.47,-770 3770.72,-770 3770.72,-806"/>
<text text-anchor="middle" x="3700.1" y="-782.58" font-family="Arial" font-size="14.00">Computação Gráfica</text>
</g>
<!-- MTM3120&#45;&gt;INE5420 -->
<g id="edge67" class="edge">
<title>MTM3120&#45;&gt;INE5420</title>
<path fill="none" stroke="black" stroke-width="2" d="M1726.85,-356.33C1726.85,-370.6 1726.85,-388 1726.85,-388 1726.85,-388 3607.85,-388 3607.85,-388 3607.85,-388 3607.85,-784.4 3607.85,-784.4 3607.85,-784.4 3626.75,-784.4 3626.75,-784.4"/>
<polygon fill="black" stroke="black" stroke-width="2" points="3628.25,-781.9 3628.25,-786.9 3627.25,-786.9 3627.25,-781.9 3628.25,-781.9"/>
<polyline fill="none" stroke="black" stroke-width="2" points="3628.75,-784.4 3626.25,-784.4"/>
</g>
<!-- MTM3121&#45;&gt;INE5202 -->
<g id="edge47" class="edge">
<title>MTM3121&#45;&gt;INE5202</title>
<path fill="none" stroke="black" stroke-width="2" d="M1915.85,-356.27C1915.85,-356.27 1915.85,-545.14 1915.85,-545.14"/>
<polygon fill="black" stroke="black" stroke-width="2" points="1918.35,-546.64 1913.35,-546.64 1913.35,-545.64 1918.35,-545.64 1918.35,-546.64"/>
<polyline fill="none" stroke="black" stroke-width="2" points="1915.85,-547.14 1915.85,-544.64"/>
</g>
<!-- MTM3121&#45;&gt;MTM3131 -->
<g id="edge52" class="edge">
<title>MTM3121&#45;&gt;MTM3131</title>
<path fill="none" stroke="black" stroke-width="2" d="M1968.42,-344C2165.48,-344 2851.85,-344 2851.85,-344 2851.85,-344 2851.85,-545.33 2851.85,-545.33"/>
<polygon fill="black" stroke="black" stroke-width="2" points="2854.35,-546.83 2849.35,-546.83 2849.35,-545.83 2854.35,-545.83 2854.35,-546.83"/>
<polyline fill="none" stroke="black" stroke-width="2" points="2851.85,-547.33 2851.85,-544.83"/>
</g>
<!-- MTM3121&#45;&gt;INE5420 -->
<g id="edge68" class="edge">
<title>MTM3121&#45;&gt;INE5420</title>
<path fill="none" stroke="black" stroke-width="2" d="M1968.24,-332C2253.45,-332 3611.85,-332 3611.85,-332 3611.85,-332 3611.85,-777.2 3611.85,-777.2 3611.85,-777.2 3626.79,-777.2 3626.79,-777.2"/>
<polygon fill="black" stroke="black" stroke-width="2" points="3628.29,-774.7 3628.29,-779.7 3627.29,-779.7 3627.29,-774.7 3628.29,-774.7"/>
<polyline fill="none" stroke="black" stroke-width="2" points="3628.79,-777.2 3626.29,-777.2"/>
</g>
<!-- INE5202&#45;&gt;INE5408 -->
<!-- INE5425 -->
<g id="node36" class="node">
<title>INE5425</title>
<polygon fill="lightblue" stroke="black" points="3555.22,-936 3388.47,-936 3388.47,-900 3555.22,-900 3555.22,-936"/>
<text text-anchor="middle" x="3471.85" y="-912.58" font-family="Arial" font-size="14.00">Modelagem e Simulação</text>
</g>
<!-- INE5202&#45;&gt;INE5425 -->
<g id="edge73" class="edge">
<title>INE5202&#45;&gt;INE5425</title>
<path fill="none" stroke="black" stroke-width="2" d="M1915.85,-584.34C1915.85,-660.31 1915.85,-946.29 1915.85,-946.29 1915.85,-946.29 3410.85,-946.29 3410.85,-946.29 3410.85,-946.29 3410.85,-938.89 3410.85,-938.89"/>
<polygon fill="black" stroke="black" stroke-width="2" points="3408.35,-937.39 3413.35,-937.39 3413.35,-938.39 3408.35,-938.39 3408.35,-937.39"/>
<polyline fill="none" stroke="black" stroke-width="2" points="3410.85,-936.89 3410.85,-939.39"/>
</g>
<!-- header_3 -->
<g id="node14" class="node">
<title>header_3</title>
<polygon fill="lightgrey" stroke="black" points="1760.35,-584 1659.55,-584 1659.55,-548 1760.35,-548 1760.35,-584"/>
<text text-anchor="middle" x="1709.95" y="-560.58" font-family="Arial" font-size="14.00">Fase 3</text>
</g>
<!-- header_3&#45;&gt;INE5202 -->
<!-- INE5408&#45;&gt;INE5410 -->
<!-- INE5408&#45;&gt;INE5413 -->
<g id="edge56" class="edge">
<title>INE5408&#45;&gt;INE5413</title>
<path fill="none" stroke="black" stroke-width="2" d="M2131.85,-584.47C2131.85,-609.52 2131.85,-651.14 2131.85,-651.14 2131.85,-651.14 2832.85,-651.14 2832.85,-651.14 2832.85,-651.14 2832.85,-675.25 2832.85,-675.25"/>
<polygon fill="black" stroke="black" stroke-width="2" points="2835.35,-676.75 2830.35,-676.75 2830.35,-675.75 2835.35,-675.75 2835.35,-676.75"/>
<polyline fill="none" stroke="black" stroke-width="2" points="2832.85,-677.25 2832.85,-674.75"/>
</g>
<!-- INE5408&#45;&gt;INE5415 -->
<g id="edge59" class="edge">
<title>INE5408&#45;&gt;INE5415</title>
<path fill="none" stroke="black" stroke-width="2" d="M2150.85,-584.44C2150.85,-601.52 2150.85,-624.29 2150.85,-624.29 2150.85,-624.29 3280.85,-624.29 3280.85,-624.29 3280.85,-624.29 3280.85,-675.03 3280.85,-675.03"/>
<polygon fill="black" stroke="black" stroke-width="2" points="3283.35,-676.53 3278.35,-676.53 3278.35,-675.53 3283.35,-675.53 3283.35,-676.53"/>
<polyline fill="none" stroke="black" stroke-width="2" points="3280.85,-677.03 3280.85,-674.53"/>
</g>
<!-- INE5416 -->
<g id="node24" class="node">
<title>INE5416</title>
<polygon fill="lightblue" stroke="black" points="3568.35,-714 3375.35,-714 3375.35,-678 3568.35,-678 3568.35,-714"/>
<text text-anchor="middle" x="3471.85" y="-690.58" font-family="Arial" font-size="14.00">Paradigmas de Programação</text>
</g>
<!-- INE5408&#45;&gt;INE5416 -->
<g id="edge60" class="edge">
<title>INE5408&#45;&gt;INE5416</title>
<path fill="none" stroke="black" stroke-width="2" d="M2170.85,-584.25C2170.85,-596.66 2170.85,-610.86 2170.85,-610.86 2170.85,-610.86 3471.85,-610.86 3471.85,-610.86 3471.85,-610.86 3471.85,-675.03 3471.85,-675.03"/>
<polygon fill="black" stroke="black" stroke-width="2" points="3474.35,-676.53 3469.35,-676.53 3469.35,-675.53 3474.35,-675.53 3474.35,-676.53"/>
<polyline fill="none" stroke="black" stroke-width="2" points="3471.85,-677.03 3471.85,-674.53"/>
</g>
<!-- INE5417 -->
<g id="node25" class="node">
<title>INE5417</title>
<polygon fill="lightblue" stroke="black" points="3784.22,-714 3615.97,-714 3615.97,-678 3784.22,-678 3784.22,-714"/>
<text text-anchor="middle" x="3700.1" y="-690.58" font-family="Arial" font-size="14.00">Engenharia de Software I</text>
</g>
<!-- INE5408&#45;&gt;INE5417 -->
<g id="edge61" class="edge">
<title>INE5408&#45;&gt;INE5417</title>
<path fill="none" stroke="black" stroke-width="2" d="M2190.85,-584.28C2190.85,-591.2 2190.85,-597.43 2190.85,-597.43 2190.85,-597.43 3699.85,-597.43 3699.85,-597.43 3699.85,-597.43 3699.85,-675.42 3699.85,-675.42"/>
<polygon fill="black" stroke="black" stroke-width="2" points="3702.35,-676.92 3697.35,-676.92 3697.35,-675.92 3702.35,-675.92 3702.35,-676.92"/>
<polyline fill="none" stroke="black" stroke-width="2" points="3699.85,-677.42 3699.85,-674.92"/>
</g>
<!-- INE5408&#45;&gt;INE5420 -->
<g id="edge66" class="edge">
<title>INE5408&#45;&gt;INE5420</title>
<path fill="none" stroke="black" stroke-width="2" d="M2111.85,-584.37C2111.85,-631.67 2111.85,-754 2111.85,-754 2111.85,-754 3699.85,-754 3699.85,-754 3699.85,-754 3699.85,-767.31 3699.85,-767.31"/>
<polygon fill="black" stroke="black" stroke-width="2" points="3702.35,-768.81 3697.35,-768.81 3697.35,-767.81 3702.35,-767.81 3702.35,-768.81"/>
<polyline fill="none" stroke="black" stroke-width="2" points="3699.85,-769.31 3699.85,-766.81"/>
</g>
<!-- INE5423 -->
<g id="node33" class="node">
<title>INE5423</title>
<polygon fill="lightblue" stroke="black" points="3109.6,-936 2986.35,-936 2986.35,-900 3109.6,-900 3109.6,-936"/>
<text text-anchor="middle" x="3047.97" y="-912.58" font-family="Arial" font-size="14.00">Banco de Dados I</text>
</g>
<!-- INE5408&#45;&gt;INE5423 -->
<g id="edge71" class="edge">
<title>INE5408&#45;&gt;INE5423</title>
<path fill="none" stroke="black" stroke-width="2" d="M2091.85,-584.31C2091.85,-651.58 2091.85,-881.2 2091.85,-881.2 2091.85,-881.2 3047.85,-881.2 3047.85,-881.2 3047.85,-881.2 3047.85,-897.1 3047.85,-897.1"/>
<polygon fill="black" stroke="black" stroke-width="2" points="3050.35,-898.6 3045.35,-898.6 3045.35,-897.6 3050.35,-897.6 3050.35,-898.6"/>
<polyline fill="none" stroke="black" stroke-width="2" points="3047.85,-899.1 3047.85,-896.6"/>
</g>
<!-- INE5410&#45;&gt;INE5411 -->
<!-- INE5412 -->
<g id="node19" class="node">
<title>INE5412</title>
<polygon fill="lightblue" stroke="black" points="2646.72,-714 2482.97,-714 2482.97,-678 2646.72,-678 2646.72,-714"/>
<text text-anchor="middle" x="2564.85" y="-690.58" font-family="Arial" font-size="14.00">Sistemas Operacionais I</text>
</g>
<!-- INE5410&#45;&gt;INE5412 -->
<g id="edge53" class="edge">
<title>INE5410&#45;&gt;INE5412</title>
<path fill="none" stroke="black" stroke-width="2" d="M2403.85,-584.3C2403.85,-618.79 2403.85,-690 2403.85,-690 2403.85,-690 2480.44,-690 2480.44,-690"/>
<polygon fill="black" stroke="black" stroke-width="2" points="2481.93,-687.5 2481.94,-692.5 2480.94,-692.5 2480.93,-687.5 2481.93,-687.5"/>
<polyline fill="none" stroke="black" stroke-width="2" points="2482.44,-690 2479.94,-690"/>
</g>
<!-- INE5411&#45;&gt;MTM3131 -->
<!-- INE5411&#45;&gt;INE5412 -->
<g id="edge54" class="edge">
<title>INE5411&#45;&gt;INE5412</title>
<path fill="none" stroke="black" stroke-width="2" d="M2564.85,-584.35C2564.85,-584.35 2564.85,-675.24 2564.85,-675.24"/>
<polygon fill="black" stroke="black" stroke-width="2" points="2567.35,-676.74 2562.35,-676.74 2562.35,-675.74 2567.35,-675.74 2567.35,-676.74"/>
<polyline fill="none" stroke="black" stroke-width="2" points="2564.85,-677.24 2564.85,-674.74"/>
</g>
<!-- INE5412&#45;&gt;INE5413 -->
<!-- INE5418 -->
<g id="node28" class="node">
<title>INE5418</title>
<polygon fill="lightblue" stroke="black" points="3336.35,-806 3174.85,-806 3174.85,-770 3336.35,-770 3336.35,-806"/>
<text text-anchor="middle" x="3255.6" y="-782.58" font-family="Arial" font-size="14.00">Computação Distribuída</text>
</g>
<!-- INE5412&#45;&gt;INE5418 -->
<g id="edge63" class="edge">
<title>INE5412&#45;&gt;INE5418</title>
<path fill="none" stroke="black" stroke-width="2" d="M2591.85,-714.38C2591.85,-733.91 2591.85,-762 2591.85,-762 2591.85,-762 3229.85,-762 3229.85,-762 3229.85,-762 3229.85,-767.16 3229.85,-767.16"/>
<polygon fill="black" stroke="black" stroke-width="2" points="3232.35,-768.66 3227.35,-768.66 3227.35,-767.66 3232.35,-767.66 3232.35,-768.66"/>
<polyline fill="none" stroke="black" stroke-width="2" points="3229.85,-769.16 3229.85,-766.66"/>
</g>
<!-- INE5424 -->
<g id="node35" class="node">
<title>INE5424</title>
<polygon fill="lightblue" stroke="black" points="3339.35,-936 3171.85,-936 3171.85,-900 3339.35,-900 3339.35,-936"/>
<text text-anchor="middle" x="3255.6" y="-912.58" font-family="Arial" font-size="14.00">Sistemas Operacionais II</text>
</g>
<!-- INE5412&#45;&gt;INE5424 -->
<g id="edge72" class="edge">
<title>INE5412&#45;&gt;INE5424</title>
<path fill="none" stroke="black" stroke-width="2" d="M2537.85,-714.44C2537.85,-757.77 2537.85,-862.4 2537.85,-862.4 2537.85,-862.4 3255.85,-862.4 3255.85,-862.4 3255.85,-862.4 3255.85,-897.29 3255.85,-897.29"/>
<polygon fill="black" stroke="black" stroke-width="2" points="3258.35,-898.79 3253.35,-898.79 3253.35,-897.79 3258.35,-897.79 3258.35,-898.79"/>
<polyline fill="none" stroke="black" stroke-width="2" points="3255.85,-899.29 3255.85,-896.79"/>
</g>
<!-- header_4 -->
<g id="node20" class="node">
<title>header_4</title>
<polygon fill="lightgrey" stroke="black" points="2385.12,-714 2284.32,-714 2284.32,-678 2385.12,-678 2385.12,-714"/>
<text text-anchor="middle" x="2334.72" y="-690.58" font-family="Arial" font-size="14.00">Fase 4</text>
</g>
<!-- header_4&#45;&gt;INE5412 -->
<!-- INE5413&#45;&gt;INE5414 -->
<!-- INE5430 -->
<g id="node39" class="node">
<title>INE5430</title>
<polygon fill="lightblue" stroke="black" points="4262.1,-936 4127.6,-936 4127.6,-900 4262.1,-900 4262.1,-936"/>
<text text-anchor="middle" x="4194.85" y="-912.58" font-family="Arial" font-size="14.00">Inteligência Artificial</text>
</g>
<!-- INE5413&#45;&gt;INE5430 -->
<g id="edge78" class="edge">
<title>INE5413&#45;&gt;INE5430</title>
<path fill="none" stroke="black" stroke-width="2" d="M2815.85,-714.19C2815.85,-722.28 2815.85,-730 2815.85,-730 2815.85,-730 4087.85,-730 4087.85,-730 4087.85,-730 4087.85,-912 4087.85,-912 4087.85,-912 4124.89,-912 4124.89,-912"/>
<polygon fill="black" stroke="black" stroke-width="2" points="4126.39,-909.5 4126.39,-914.5 4125.39,-914.5 4125.39,-909.5 4126.39,-909.5"/>
<polyline fill="none" stroke="black" stroke-width="2" points="4126.89,-912 4124.39,-912"/>
</g>
<!-- INE5414&#45;&gt;INE5415 -->
<!-- INE5414&#45;&gt;INE5418 -->
<g id="edge64" class="edge">
<title>INE5414&#45;&gt;INE5418</title>
<path fill="none" stroke="black" stroke-width="2" d="M3135.57,-696C3149.73,-696 3159.85,-696 3159.85,-696 3159.85,-696 3159.85,-782 3159.85,-782 3159.85,-782 3171.89,-782 3171.89,-782"/>
<polygon fill="black" stroke="black" stroke-width="2" points="3173.39,-779.5 3173.39,-784.5 3172.39,-784.5 3172.39,-779.5 3173.39,-779.5"/>
<polyline fill="none" stroke="black" stroke-width="2" points="3173.89,-782 3171.39,-782"/>
</g>
<!-- INE5422 -->
<g id="node32" class="node">
<title>INE5422</title>
<polygon fill="lightblue" stroke="black" points="4283.85,-806 4105.85,-806 4105.85,-770 4283.85,-770 4283.85,-806"/>
<text text-anchor="middle" x="4194.85" y="-782.58" font-family="Arial" font-size="14.00">Redes de Computadores II</text>
</g>
<!-- INE5414&#45;&gt;INE5422 -->
<g id="edge70" class="edge">
<title>INE5414&#45;&gt;INE5422</title>
<path fill="none" stroke="black" stroke-width="2" d="M3076.85,-714.34C3076.85,-718.64 3076.85,-722 3076.85,-722 3076.85,-722 4194.85,-722 4194.85,-722 4194.85,-722 4194.85,-767.12 4194.85,-767.12"/>
<polygon fill="black" stroke="black" stroke-width="2" points="4197.35,-768.62 4192.35,-768.62 4192.35,-767.62 4197.35,-767.62 4197.35,-768.62"/>
<polyline fill="none" stroke="black" stroke-width="2" points="4194.85,-769.12 4194.85,-766.62"/>
</g>
<!-- INE5414&#45;&gt;INE5429 -->
<g id="edge83" class="edge">
<title>INE5414&#45;&gt;INE5429</title>
<path fill="none" stroke="black" stroke-width="2" d="M3018.85,-714.33C3018.85,-728.6 3018.85,-746 3018.85,-746 3018.85,-746 3807.85,-746 3807.85,-746 3807.85,-746 3807.85,-972 3807.85,-972 3807.85,-972 3855.36,-972 3855.36,-972"/>
<polygon fill="black" stroke="black" stroke-width="2" points="3856.86,-969.5 3856.86,-974.5 3855.86,-974.5 3855.86,-969.5 3856.86,-969.5"/>
<polyline fill="none" stroke="black" stroke-width="2" points="3857.36,-972 3854.86,-972"/>
</g>
<!-- INE5431 -->
<g id="node44" class="node">
<title>INE5431</title>
<polygon fill="lightblue" stroke="black" points="4264.35,-996 4125.35,-996 4125.35,-960 4264.35,-960 4264.35,-996"/>
<text text-anchor="middle" x="4194.85" y="-972.58" font-family="Arial" font-size="14.00">Sistemas Multimídia</text>
</g>
<!-- INE5414&#45;&gt;INE5431 -->
<g id="edge84" class="edge">
<title>INE5414&#45;&gt;INE5431</title>
<path fill="none" stroke="black" stroke-width="2" d="M3135.2,-705C3142.9,-705 3147.85,-705 3147.85,-705 3147.85,-705 3147.85,-939.43 3147.85,-939.43 3147.85,-939.43 4194.85,-939.43 4194.85,-939.43 4194.85,-939.43 4194.85,-957.12 4194.85,-957.12"/>
<polygon fill="black" stroke="black" stroke-width="2" points="4197.35,-958.62 4192.35,-958.62 4192.35,-957.62 4197.35,-957.62 4197.35,-958.62"/>
<polyline fill="none" stroke="black" stroke-width="2" points="4194.85,-959.12 4194.85,-956.62"/>
</g>
<!-- INE5415&#45;&gt;INE5416 -->
<!-- INE5421 -->
<g id="node31" class="node">
<title>INE5421</title>
<polygon fill="lightblue" stroke="black" points="4069.85,-806 3831.85,-806 3831.85,-770 4069.85,-770 4069.85,-806"/>
<text text-anchor="middle" x="3950.85" y="-782.58" font-family="Arial" font-size="14.00">Linguagens Formais e Compiladores</text>
</g>
<!-- INE5415&#45;&gt;INE5421 -->
<g id="edge69" class="edge">
<title>INE5415&#45;&gt;INE5421</title>
<path fill="none" stroke="black" stroke-width="2" d="M3280.85,-714.06C3280.85,-725.44 3280.85,-738 3280.85,-738 3280.85,-738 3950.85,-738 3950.85,-738 3950.85,-738 3950.85,-767.17 3950.85,-767.17"/>
<polygon fill="black" stroke="black" stroke-width="2" points="3953.35,-768.67 3948.35,-768.67 3948.35,-767.67 3953.35,-767.67 3953.35,-768.67"/>
<polyline fill="none" stroke="black" stroke-width="2" points="3950.85,-769.17 3950.85,-766.67"/>
</g>
<!-- INE5416&#45;&gt;INE5417 -->
<!-- INE5416&#45;&gt;INE5430 -->
<g id="edge79" class="edge">
<title>INE5416&#45;&gt;INE5430</title>
<path fill="none" stroke="black" stroke-width="2" d="M3562.85,-714.45C3562.85,-750.07 3562.85,-824.8 3562.85,-824.8 3562.85,-824.8 4216.85,-824.8 4216.85,-824.8 4216.85,-824.8 4216.85,-897.09 4216.85,-897.09"/>
<polygon fill="black" stroke="black" stroke-width="2" points="4219.35,-898.59 4214.35,-898.59 4214.35,-897.59 4219.35,-897.59 4219.35,-898.59"/>
<polyline fill="none" stroke="black" stroke-width="2" points="4216.85,-899.09 4216.85,-896.59"/>
</g>
<!-- INE5419 -->
<g id="node29" class="node">
<title>INE5419</title>
<polygon fill="lightblue" stroke="black" points="3557.85,-806 3385.85,-806 3385.85,-770 3557.85,-770 3557.85,-806"/>
<text text-anchor="middle" x="3471.85" y="-782.58" font-family="Arial" font-size="14.00">Engenharia de Software II</text>
</g>
<!-- INE5417&#45;&gt;INE5419 -->
<g id="edge65" class="edge">
<title>INE5417&#45;&gt;INE5419</title>
<path fill="none" stroke="black" stroke-width="2" d="M3622.85,-714.43C3622.85,-742.21 3622.85,-791.6 3622.85,-791.6 3622.85,-791.6 3560.44,-791.6 3560.44,-791.6"/>
<polygon fill="black" stroke="black" stroke-width="2" points="3558.94,-794.1 3558.94,-789.1 3559.94,-789.1 3559.94,-794.1 3558.94,-794.1"/>
<polyline fill="none" stroke="black" stroke-width="2" points="3558.44,-791.6 3560.94,-791.6"/>
</g>
<!-- INE5427 -->
<g id="node38" class="node">
<title>INE5427</title>
<polygon fill="lightblue" stroke="black" points="4066.1,-936 3835.6,-936 3835.6,-900 4066.1,-900 4066.1,-936"/>
<text text-anchor="middle" x="3950.85" y="-912.58" font-family="Arial" font-size="14.00">Planejamento e Gestão de Projetos</text>
</g>
<!-- INE5417&#45;&gt;INE5427 -->
<g id="edge76" class="edge">
<title>INE5417&#45;&gt;INE5427</title>
<path fill="none" stroke="black" stroke-width="2" d="M3784.57,-702C3804.38,-702 3819.85,-702 3819.85,-702 3819.85,-702 3819.85,-912 3819.85,-912 3819.85,-912 3832.63,-912 3832.63,-912"/>
<polygon fill="black" stroke="black" stroke-width="2" points="3834.13,-909.5 3834.13,-914.5 3833.13,-914.5 3833.13,-909.5 3834.13,-909.5"/>
<polyline fill="none" stroke="black" stroke-width="2" points="3834.63,-912 3832.13,-912"/>
</g>
<!-- INE5453 -->
<g id="node40" class="node">
<title>INE5453</title>
<polygon fill="lightblue" stroke="black" points="4620.1,-936 4319.85,-936 4319.85,-900 4620.1,-900 4620.1,-936"/>
<text text-anchor="middle" x="4469.97" y="-912.58" font-family="Arial" font-size="14.00">Introdução ao Trabalho de Conclusão de Curso</text>
</g>
<!-- INE5417&#45;&gt;INE5453 -->
<g id="edge80" class="edge">
<title>INE5417&#45;&gt;INE5453</title>
<path fill="none" stroke="black" stroke-width="2" d="M3784.68,-690C3984.64,-690 4469.85,-690 4469.85,-690 4469.85,-690 4469.85,-897.23 4469.85,-897.23"/>
<polygon fill="black" stroke="black" stroke-width="2" points="4472.35,-898.73 4467.35,-898.73 4467.35,-897.73 4472.35,-897.73 4472.35,-898.73"/>
<polyline fill="none" stroke="black" stroke-width="2" points="4469.85,-899.23 4469.85,-896.73"/>
</g>
<!-- INE5405&#45;&gt;INE5418 -->
<!-- INE5405&#45;&gt;INE5425 -->
<g id="edge74" class="edge">
<title>INE5405&#45;&gt;INE5425</title>
<path fill="none" stroke="black" stroke-width="2" d="M3126.85,-806.37C3126.85,-847.39 3126.85,-942.86 3126.85,-942.86 3126.85,-942.86 3399.85,-942.86 3399.85,-942.86 3399.85,-942.86 3399.85,-938.83 3399.85,-938.83"/>
<polygon fill="black" stroke="black" stroke-width="2" points="3397.35,-937.33 3402.35,-937.33 3402.35,-938.33 3397.35,-938.33 3397.35,-937.33"/>
<polyline fill="none" stroke="black" stroke-width="2" points="3399.85,-936.83 3399.85,-939.33"/>
</g>
<!-- INE5405&#45;&gt;INE5430 -->
<g id="edge77" class="edge">
<title>INE5405&#45;&gt;INE5430</title>
<path fill="none" stroke="black" stroke-width="2" d="M3117.85,-806.21C3117.85,-822.42 3117.85,-843.6 3117.85,-843.6 3117.85,-843.6 4172.85,-843.6 4172.85,-843.6 4172.85,-843.6 4172.85,-897.11 4172.85,-897.11"/>
<polygon fill="black" stroke="black" stroke-width="2" points="4175.35,-898.61 4170.35,-898.61 4170.35,-897.61 4175.35,-897.61 4175.35,-898.61"/>
<polyline fill="none" stroke="black" stroke-width="2" points="4172.85,-899.11 4172.85,-896.61"/>
</g>
<!-- header_5 -->
<g id="node27" class="node">
<title>header_5</title>
<polygon fill="lightgrey" stroke="black" points="2866,-806 2765.2,-806 2765.2,-770 2866,-770 2866,-806"/>
<text text-anchor="middle" x="2815.6" y="-782.58" font-family="Arial" font-size="14.00">Fase 5</text>
</g>
<!-- header_5&#45;&gt;INE5405 -->
<!-- INE5418&#45;&gt;INE5419 -->
<!-- INE5419&#45;&gt;INE5420 -->
<!-- INE5420&#45;&gt;INE5421 -->
<!-- INE5421&#45;&gt;INE5422 -->
<!-- INE5426 -->
<g id="node37" class="node">
<title>INE5426</title>
<polygon fill="lightblue" stroke="black" points="3795.85,-936 3604.35,-936 3604.35,-900 3795.85,-900 3795.85,-936"/>
<text text-anchor="middle" x="3700.1" y="-912.58" font-family="Arial" font-size="14.00">Construção de Compiladores</text>
</g>
<!-- INE5421&#45;&gt;INE5426 -->
<g id="edge75" class="edge">
<title>INE5421&#45;&gt;INE5426</title>
<path fill="none" stroke="black" stroke-width="2" d="M3831.73,-794C3807.81,-794 3789.85,-794 3789.85,-794 3789.85,-794 3789.85,-897.2 3789.85,-897.2"/>
<polygon fill="black" stroke="black" stroke-width="2" points="3792.35,-898.7 3787.35,-898.7 3787.35,-897.7 3792.35,-897.7 3792.35,-898.7"/>
<polyline fill="none" stroke="black" stroke-width="2" points="3789.85,-899.2 3789.85,-896.7"/>
</g>
<!-- INE5423&#45;&gt;INE5424 -->
<!-- INE5432 -->
<g id="node45" class="node">
<title>INE5432</title>
<polygon fill="lightblue" stroke="black" points="4533.47,-996 4406.47,-996 4406.47,-960 4533.47,-960 4533.47,-996"/>
<text text-anchor="middle" x="4469.97" y="-972.58" font-family="Arial" font-size="14.00">Banco de Dados II</text>
</g>
<!-- INE5423&#45;&gt;INE5432 -->
<g id="edge85" class="edge">
<title>INE5423&#45;&gt;INE5432</title>
<path fill="none" stroke="black" stroke-width="2" d="M3047.85,-936.45C3047.85,-943.43 3047.85,-949.71 3047.85,-949.71 3047.85,-949.71 4469.85,-949.71 4469.85,-949.71 4469.85,-949.71 4469.85,-957.11 4469.85,-957.11"/>
<polygon fill="black" stroke="black" stroke-width="2" points="4472.35,-958.61 4467.35,-958.61 4467.35,-957.61 4472.35,-957.61 4472.35,-958.61"/>
<polyline fill="none" stroke="black" stroke-width="2" points="4469.85,-959.11 4469.85,-956.61"/>
</g>
<!-- header_6 -->
<g id="node34" class="node">
<title>header_6</title>
<polygon fill="lightgrey" stroke="black" points="2866,-936 2765.2,-936 2765.2,-900 2866,-900 2866,-936"/>
<text text-anchor="middle" x="2815.6" y="-912.58" font-family="Arial" font-size="14.00">Fase 6</text>
</g>
<!-- header_6&#45;&gt;INE5423 -->
<!-- INE5424&#45;&gt;INE5425 -->
<!-- INE5425&#45;&gt;INE5426 -->
<!-- INE5426&#45;&gt;INE5427 -->
<!-- INE5427&#45;&gt;INE5430 -->
<!-- INE5433 -->
<g id="node46" class="node">
<title>INE5433</title>
<polygon fill="lightblue" stroke="black" points="4918.1,-996 4656.1,-996 4656.1,-960 4918.1,-960 4918.1,-996"/>
<text text-anchor="middle" x="4787.1" y="-972.58" font-family="Arial" font-size="14.00">Trabalho de Conclusão de Curso I (TCC)</text>
</g>
<!-- INE5427&#45;&gt;INE5433 -->
<g id="edge86" class="edge">
<title>INE5427&#45;&gt;INE5433</title>
<path fill="none" stroke="black" stroke-width="2" d="M4054.85,-936.21C4054.85,-962.51 4054.85,-1008 4054.85,-1008 4054.85,-1008 4696.85,-1008 4696.85,-1008 4696.85,-1008 4696.85,-998.99 4696.85,-998.99"/>
<polygon fill="black" stroke="black" stroke-width="2" points="4694.35,-997.49 4699.35,-997.49 4699.35,-998.49 4694.35,-998.49 4694.35,-997.49"/>
<polyline fill="none" stroke="black" stroke-width="2" points="4696.85,-996.99 4696.85,-999.49"/>
</g>
<!-- INE5430&#45;&gt;INE5453 -->
<!-- INE5453&#45;&gt;INE5433 -->
<g id="edge87" class="edge">
<title>INE5453&#45;&gt;INE5433</title>
<path fill="none" stroke="black" stroke-width="2" d="M4576.85,-936.28C4576.85,-951.95 4576.85,-972 4576.85,-972 4576.85,-972 4653.24,-972 4653.24,-972"/>
<polygon fill="black" stroke="black" stroke-width="2" points="4654.74,-969.5 4654.74,-974.5 4653.74,-974.5 4653.74,-969.5 4654.74,-969.5"/>
<polyline fill="none" stroke="black" stroke-width="2" points="4655.24,-972 4652.74,-972"/>
</g>
<!-- INE5428&#45;&gt;INE5429 -->
<!-- header_7 -->
<g id="node42" class="node">
<title>header_7</title>
<polygon fill="lightgrey" stroke="black" points="3522.25,-996 3421.45,-996 3421.45,-960 3522.25,-960 3522.25,-996"/>
<text text-anchor="middle" x="3471.85" y="-972.58" font-family="Arial" font-size="14.00">Fase 7</text>
</g>
<!-- header_7&#45;&gt;INE5428 -->
<!-- INE5429&#45;&gt;INE5431 -->
<!-- INE5431&#45;&gt;INE5432 -->
<!-- INE5432&#45;&gt;INE5433 -->
<!-- INE5434 -->
<g id="node47" class="node">
<title>INE5434</title>
<polygon fill="lightblue" stroke="black" points="5219.85,-1056 4954.1,-1056 4954.1,-1020 5219.85,-1020 5219.85,-1056"/>
<text text-anchor="middle" x="5086.97" y="-1032.58" font-family="Arial" font-size="14.00">Trabalho de Conclusão de Curso II (TCC)</text>
</g>
<!-- INE5433&#45;&gt;INE5434 -->
<g id="edge88" class="edge">
<title>INE5433&#45;&gt;INE5434</title>
<path fill="none" stroke="black" stroke-width="2" d="M4877.85,-996.28C4877.85,-1011.95 4877.85,-1032 4877.85,-1032 4877.85,-1032 4951.14,-1032 4951.14,-1032"/>
<polygon fill="black" stroke="black" stroke-width="2" points="4952.64,-1029.5 4952.64,-1034.5 4951.64,-1034.5 4951.64,-1029.5 4952.64,-1029.5"/>
<polyline fill="none" stroke="black" stroke-width="2" points="4953.14,-1032 4950.64,-1032"/>
</g>
<!-- header_8 -->
<g id="node48" class="node">
<title>header_8</title>
<polygon fill="lightgrey" stroke="black" points="4837.5,-1056 4736.7,-1056 4736.7,-1020 4837.5,-1020 4837.5,-1056"/>
<text text-anchor="middle" x="4787.1" y="-1032.58" font-family="Arial" font-size="14.00">Fase 8</text>
</g>
<!-- header_8&#45;&gt;INE5434 -->
<!-- INE7011 -->
<g id="node49" class="node">
<title>INE7011</title>
<polygon fill="lightblue" stroke="black" points="350.3,-584 152.8,-584 152.8,-548 350.3,-548 350.3,-584"/>
<text text-anchor="middle" x="251.55" y="-560.58" font-family="Arial" font-size="14.00">Atividades Complementares 1</text>
</g>
<!-- header_999 -->
<g id="node50" class="node">
<title>header_999</title>
<polygon fill="lightgrey" stroke="black" points="116.8,-584 16,-584 16,-548 116.8,-548 116.8,-584"/>
<text text-anchor="middle" x="66.4" y="-560.58" font-family="Arial" font-size="14.00">Fase 999</text>
</g>
<!-- header_999&#45;&gt;INE7011 -->
</g>
</svg>
