<?xml version="1.0" encoding="UTF-8" standalone="no"?>
<!DOCTYPE svg PUBLIC "-//W3C//DTD SVG 1.1//EN"
 "http://www.w3.org/Graphics/SVG/1.1/DTD/svg11.dtd">
<!-- Generated by graphviz version 12.2.1 (20241206.2353)
 -->
<!-- Title: curriculum&#45;graph&#45;compsci&#45;ufsc Pages: 1 -->
<svg width="2400pt" height="652pt"
 viewBox="0.00 0.00 2399.50 652.00" xmlns="http://www.w3.org/2000/svg" xmlns:xlink="http://www.w3.org/1999/xlink">
<g id="graph0" class="graph" transform="scale(1 1) rotate(0) translate(4 648)">
<title>curriculum&#45;graph&#45;compsci&#45;ufsc</title>
<polygon fill="none" stroke="none" points="-4,4 -4,-648 2395.5,-648 2395.5,4 -4,4"/>
<g id="clust1" class="cluster">
<title>cluster_everything</title>
<polygon fill="none" stroke="none" points="8,-8 8,-636 2383.5,-636 2383.5,-8 8,-8"/>
</g>
<g id="clust2" class="cluster">
<title>cluster_header</title>
<polygon fill="none" stroke="none" points="144.6,-16 144.6,-68 2293.03,-68 2293.03,-16 144.6,-16"/>
</g>
<g id="clust3" class="cluster">
<title>cluster_1</title>
<polygon fill="none" stroke="none" points="16,-155 16,-443 390,-443 390,-155 16,-155"/>
</g>
<g id="clust4" class="cluster">
<title>cluster_2</title>
<polygon fill="none" stroke="none" points="410,-271 410,-559 661,-559 661,-271 410,-271"/>
</g>
<g id="clust5" class="cluster">
<title>cluster_3</title>
<polygon fill="none" stroke="none" points="681,-213 681,-501 936.5,-501 936.5,-213 681,-213"/>
</g>
<g id="clust6" class="cluster">
<title>cluster_4</title>
<polygon fill="none" stroke="none" points="956.5,-76 956.5,-422 1165.5,-422 1165.5,-76 956.5,-76"/>
</g>
<g id="clust7" class="cluster">
<title>cluster_5</title>
<polygon fill="none" stroke="none" points="1185.5,-210 1185.5,-556 1439.5,-556 1439.5,-210 1185.5,-210"/>
</g>
<g id="clust8" class="cluster">
<title>cluster_6</title>
<polygon fill="none" stroke="none" points="1459.5,-110 1459.5,-514 1775.75,-514 1775.75,-110 1459.5,-110"/>
</g>
<g id="clust9" class="cluster">
<title>cluster_7</title>
<polygon fill="none" stroke="none" points="1795.75,-168 1795.75,-456 2073.75,-456 2073.75,-168 1795.75,-168"/>
</g>
<g id="clust10" class="cluster">
<title>cluster_8</title>
<polygon fill="none" stroke="none" points="2093.75,-226 2093.75,-340 2375.5,-340 2375.5,-226 2093.75,-226"/>
</g>
<!-- Fase 1 -->
<g id="node1" class="node">
<title>Fase 1</title>
<polygon fill="lightgrey" stroke="none" points="253.4,-60 152.6,-60 152.6,-24 253.4,-24 253.4,-60"/>
<text text-anchor="middle" x="203" y="-35.05" font-family="Arial-Bold" font-size="16.00">Fase 1</text>
</g>
<!-- Fase 2 -->
<g id="node2" class="node">
<title>Fase 2</title>
<polygon fill="lightgrey" stroke="none" points="585.9,-60 485.1,-60 485.1,-24 585.9,-24 585.9,-60"/>
<text text-anchor="middle" x="535.5" y="-35.05" font-family="Arial-Bold" font-size="16.00">Fase 2</text>
</g>
<!-- Fase 1&#45;&gt;Fase 2 -->
<!-- Fase 3 -->
<g id="node3" class="node">
<title>Fase 3</title>
<polygon fill="lightgrey" stroke="none" points="859.15,-60 758.35,-60 758.35,-24 859.15,-24 859.15,-60"/>
<text text-anchor="middle" x="808.75" y="-35.05" font-family="Arial-Bold" font-size="16.00">Fase 3</text>
</g>
<!-- Fase 2&#45;&gt;Fase 3 -->
<!-- Fase 4 -->
<g id="node4" class="node">
<title>Fase 4</title>
<polygon fill="lightgrey" stroke="none" points="1111.4,-60 1010.6,-60 1010.6,-24 1111.4,-24 1111.4,-60"/>
<text text-anchor="middle" x="1061" y="-35.05" font-family="Arial-Bold" font-size="16.00">Fase 4</text>
</g>
<!-- Fase 3&#45;&gt;Fase 4 -->
<!-- Fase 5 -->
<g id="node5" class="node">
<title>Fase 5</title>
<polygon fill="lightgrey" stroke="none" points="1362.9,-60 1262.1,-60 1262.1,-24 1362.9,-24 1362.9,-60"/>
<text text-anchor="middle" x="1312.5" y="-35.05" font-family="Arial-Bold" font-size="16.00">Fase 5</text>
</g>
<!-- Fase 4&#45;&gt;Fase 5 -->
<!-- Fase 6 -->
<g id="node6" class="node">
<title>Fase 6</title>
<polygon fill="lightgrey" stroke="none" points="1668.03,-60 1567.22,-60 1567.22,-24 1668.03,-24 1668.03,-60"/>
<text text-anchor="middle" x="1617.62" y="-35.05" font-family="Arial-Bold" font-size="16.00">Fase 6</text>
</g>
<!-- Fase 5&#45;&gt;Fase 6 -->
<!-- Fase 7 -->
<g id="node7" class="node">
<title>Fase 7</title>
<polygon fill="lightgrey" stroke="none" points="1985.15,-60 1884.35,-60 1884.35,-24 1985.15,-24 1985.15,-60"/>
<text text-anchor="middle" x="1934.75" y="-35.05" font-family="Arial-Bold" font-size="16.00">Fase 7</text>
</g>
<!-- Fase 6&#45;&gt;Fase 7 -->
<!-- Fase 8+ -->
<g id="node8" class="node">
<title>Fase 8+</title>
<polygon fill="lightgrey" stroke="none" points="2285.03,-60 2184.22,-60 2184.22,-24 2285.03,-24 2285.03,-60"/>
<text text-anchor="middle" x="2234.62" y="-35.05" font-family="Arial-Bold" font-size="16.00">Fase 8+</text>
</g>
<!-- Fase 7&#45;&gt;Fase 8+ -->
<!-- EEL5105 -->
<g id="node9" class="node">
<title>EEL5105</title>
<polygon fill="#8dd3c7" stroke="#8dd3c7" points="295.75,-376.75 110.25,-376.75 110.25,-337.25 295.75,-337.25 295.75,-376.75"/>
<text text-anchor="middle" x="203" y="-359.45" font-family="Arial" font-size="14.00">EEL5105</text>
<text text-anchor="middle" x="203" y="-343.7" font-family="Arial" font-size="14.00">Circuitos e Técnicas Digitais</text>
</g>
<!-- INE5406 -->
<g id="node15" class="node">
<title>INE5406</title>
<polygon fill="#ffffb3" stroke="#ffffb3" points="595.62,-376.75 475.38,-376.75 475.38,-337.25 595.62,-337.25 595.62,-376.75"/>
<text text-anchor="middle" x="535.5" y="-359.45" font-family="Arial" font-size="14.00">INE5406</text>
<text text-anchor="middle" x="535.5" y="-343.7" font-family="Arial" font-size="14.00">Sistemas Digitais</text>
</g>
<!-- EEL5105&#45;&gt;INE5406 -->
<g id="edge9" class="edge">
<title>EEL5105&#45;&gt;INE5406</title>
<path fill="none" stroke="#8dd3c7" stroke-width="2" d="M296.06,-357C296.06,-357 472.48,-357 472.48,-357"/>
<polygon fill="#8dd3c7" stroke="#8dd3c7" stroke-width="2" points="473.98,-354.5 473.98,-359.5 472.98,-359.5 472.98,-354.5 473.98,-354.5"/>
<polyline fill="none" stroke="#8dd3c7" stroke-width="2" points="474.48,-357 471.98,-357"/>
</g>
<!-- INE5401 -->
<g id="node10" class="node">
<title>INE5401</title>
<polygon fill="#8dd3c7" stroke="#8dd3c7" points="289,-260.75 117,-260.75 117,-221.25 289,-221.25 289,-260.75"/>
<text text-anchor="middle" x="203" y="-243.45" font-family="Arial" font-size="14.00">INE5401</text>
<text text-anchor="middle" x="203" y="-227.7" font-family="Arial" font-size="14.00">Introdução à Computação</text>
</g>
<!-- INE5402 -->
<g id="node11" class="node">
<title>INE5402</title>
<polygon fill="#8dd3c7" stroke="#8dd3c7" points="318.62,-318.75 87.38,-318.75 87.38,-279.25 318.62,-279.25 318.62,-318.75"/>
<text text-anchor="middle" x="203" y="-301.45" font-family="Arial" font-size="14.00">INE5402</text>
<text text-anchor="middle" x="203" y="-285.7" font-family="Arial" font-size="14.00">Programação Orientada a Objetos I</text>
</g>
<!-- INE5404 -->
<g id="node14" class="node">
<title>INE5404</title>
<polygon fill="#ffffb3" stroke="#ffffb3" points="653,-318.75 418,-318.75 418,-279.25 653,-279.25 653,-318.75"/>
<text text-anchor="middle" x="535.5" y="-301.45" font-family="Arial" font-size="14.00">INE5404</text>
<text text-anchor="middle" x="535.5" y="-285.7" font-family="Arial" font-size="14.00">Programação Orientada a Objetos II</text>
</g>
<!-- INE5402&#45;&gt;INE5404 -->
<g id="edge8" class="edge">
<title>INE5402&#45;&gt;INE5404</title>
<path fill="none" stroke="#8dd3c7" stroke-width="2" d="M318.83,-299C318.83,-299 415.05,-299 415.05,-299"/>
<polygon fill="#8dd3c7" stroke="#8dd3c7" stroke-width="2" points="416.55,-296.5 416.56,-301.5 415.56,-301.5 415.55,-296.5 416.55,-296.5"/>
<polyline fill="none" stroke="#8dd3c7" stroke-width="2" points="417.05,-299 414.55,-299"/>
</g>
<!-- INE5202 -->
<g id="node19" class="node">
<title>INE5202</title>
<polygon fill="#bebada" stroke="#bebada" points="928.5,-434.75 689,-434.75 689,-395.25 928.5,-395.25 928.5,-434.75"/>
<text text-anchor="middle" x="808.75" y="-417.45" font-family="Arial" font-size="14.00">INE5202</text>
<text text-anchor="middle" x="808.75" y="-401.7" font-family="Arial" font-size="14.00">Cálculo Numérico em Computadores</text>
</g>
<!-- INE5402&#45;&gt;INE5202 -->
<g id="edge11" class="edge">
<title>INE5402&#45;&gt;INE5202</title>
<path fill="none" stroke="#8dd3c7" stroke-width="2" d="M307.5,-318.89C307.5,-343.7 307.5,-382.92 307.5,-382.92 307.5,-382.92 695.5,-382.92 695.5,-382.92 695.5,-382.92 695.5,-392.36 695.5,-392.36"/>
<polygon fill="#8dd3c7" stroke="#8dd3c7" stroke-width="2" points="698,-393.86 693,-393.86 693,-392.86 698,-392.86 698,-393.86"/>
<polyline fill="none" stroke="#8dd3c7" stroke-width="2" points="695.5,-394.36 695.5,-391.86"/>
</g>
<!-- INE5403 -->
<g id="node12" class="node">
<title>INE5403</title>
<polygon fill="#8dd3c7" stroke="#8dd3c7" points="382,-202.75 24,-202.75 24,-163.25 382,-163.25 382,-202.75"/>
<text text-anchor="middle" x="203" y="-185.45" font-family="Arial" font-size="14.00">INE5403</text>
<text text-anchor="middle" x="203" y="-169.7" font-family="Arial" font-size="14.00">Fundamentos de Matemática Discreta para Computação</text>
</g>
<!-- INE5413 -->
<g id="node25" class="node">
<title>INE5413</title>
<polygon fill="#fb8072" stroke="#fb8072" points="1111.4,-181.75 1010.6,-181.75 1010.6,-142.25 1111.4,-142.25 1111.4,-181.75"/>
<text text-anchor="middle" x="1061" y="-164.45" font-family="Arial" font-size="14.00">INE5413</text>
<text text-anchor="middle" x="1061" y="-148.7" font-family="Arial" font-size="14.00">Grafos</text>
</g>
<!-- INE5403&#45;&gt;INE5413 -->
<g id="edge21" class="edge">
<title>INE5403&#45;&gt;INE5413</title>
<path fill="none" stroke="#8dd3c7" stroke-width="2" d="M382.34,-169.42C382.34,-169.42 1008.04,-169.42 1008.04,-169.42"/>
<polygon fill="#8dd3c7" stroke="#8dd3c7" stroke-width="2" points="1009.54,-166.92 1009.54,-171.92 1008.54,-171.92 1008.54,-166.92 1009.54,-166.92"/>
<polyline fill="none" stroke="#8dd3c7" stroke-width="2" points="1010.04,-169.42 1007.54,-169.42"/>
</g>
<!-- INE5415 -->
<g id="node27" class="node">
<title>INE5415</title>
<polygon fill="#fb8072" stroke="#fb8072" points="1137.25,-355.75 984.75,-355.75 984.75,-316.25 1137.25,-316.25 1137.25,-355.75"/>
<text text-anchor="middle" x="1061" y="-338.45" font-family="Arial" font-size="14.00">INE5415</text>
<text text-anchor="middle" x="1061" y="-322.7" font-family="Arial" font-size="14.00">Teoria da Computação</text>
</g>
<!-- INE5403&#45;&gt;INE5415 -->
<g id="edge24" class="edge">
<title>INE5403&#45;&gt;INE5415</title>
<path fill="none" stroke="#8dd3c7" stroke-width="2" d="M360.5,-202.97C360.5,-243.39 360.5,-331.08 360.5,-331.08 360.5,-331.08 981.87,-331.08 981.87,-331.08"/>
<polygon fill="#8dd3c7" stroke="#8dd3c7" stroke-width="2" points="983.37,-328.58 983.37,-333.58 982.37,-333.58 982.37,-328.58 983.37,-328.58"/>
<polyline fill="none" stroke="#8dd3c7" stroke-width="2" points="983.87,-331.08 981.37,-331.08"/>
</g>
<!-- INE5429 -->
<g id="node44" class="node">
<title>INE5429</title>
<polygon fill="#8dd3c7" stroke="#8dd3c7" points="2027.5,-389.75 1842,-389.75 1842,-350.25 2027.5,-350.25 2027.5,-389.75"/>
<text text-anchor="middle" x="1934.75" y="-372.45" font-family="Arial" font-size="14.00">INE5429</text>
<text text-anchor="middle" x="1934.75" y="-356.7" font-family="Arial" font-size="14.00">Segurança em Computação</text>
</g>
<!-- INE5403&#45;&gt;INE5429 -->
<g id="edge48" class="edge">
<title>INE5403&#45;&gt;INE5429</title>
<path fill="none" stroke="#8dd3c7" stroke-width="2" d="M339.5,-203.15C339.5,-281.66 339.5,-562.75 339.5,-562.75 339.5,-562.75 1847.5,-562.75 1847.5,-562.75 1847.5,-562.75 1847.5,-392.4 1847.5,-392.4"/>
<polygon fill="#8dd3c7" stroke="#8dd3c7" stroke-width="2" points="1845,-390.9 1850,-390.9 1850,-391.9 1845,-391.9 1845,-390.9"/>
<polyline fill="none" stroke="#8dd3c7" stroke-width="2" points="1847.5,-390.4 1847.5,-392.9"/>
</g>
<!-- MTM3110 -->
<g id="node13" class="node">
<title>MTM3110</title>
<polygon fill="#8dd3c7" stroke="#8dd3c7" points="253.4,-434.75 152.6,-434.75 152.6,-395.25 253.4,-395.25 253.4,-434.75"/>
<text text-anchor="middle" x="203" y="-417.45" font-family="Arial" font-size="14.00">MTM3110</text>
<text text-anchor="middle" x="203" y="-401.7" font-family="Arial" font-size="14.00">Cálculo 1</text>
</g>
<!-- MTM3120 -->
<g id="node17" class="node">
<title>MTM3120</title>
<polygon fill="#ffffb3" stroke="#ffffb3" points="585.9,-434.75 485.1,-434.75 485.1,-395.25 585.9,-395.25 585.9,-434.75"/>
<text text-anchor="middle" x="535.5" y="-417.45" font-family="Arial" font-size="14.00">MTM3120</text>
<text text-anchor="middle" x="535.5" y="-401.7" font-family="Arial" font-size="14.00">Cálculo 2</text>
</g>
<!-- MTM3110&#45;&gt;MTM3120 -->
<g id="edge10" class="edge">
<title>MTM3110&#45;&gt;MTM3120</title>
<path fill="none" stroke="#8dd3c7" stroke-width="2" d="M253.86,-415C253.86,-415 482.14,-415 482.14,-415"/>
<polygon fill="#8dd3c7" stroke="#8dd3c7" stroke-width="2" points="483.64,-412.5 483.64,-417.5 482.64,-417.5 482.64,-412.5 483.64,-412.5"/>
<polyline fill="none" stroke="#8dd3c7" stroke-width="2" points="484.14,-415 481.64,-415"/>
</g>
<!-- INE5405 -->
<g id="node30" class="node">
<title>INE5405</title>
<polygon fill="#80b1d3" stroke="#80b1d3" points="1400.38,-547.75 1224.62,-547.75 1224.62,-508.25 1400.38,-508.25 1400.38,-547.75"/>
<text text-anchor="middle" x="1312.5" y="-530.45" font-family="Arial" font-size="14.00">INE5405</text>
<text text-anchor="middle" x="1312.5" y="-514.7" font-family="Arial" font-size="14.00">Probabilidade e Estatística</text>
</g>
<!-- MTM3110&#45;&gt;INE5405 -->
<g id="edge28" class="edge">
<title>MTM3110&#45;&gt;INE5405</title>
<path fill="none" stroke="#8dd3c7" stroke-width="2" d="M202.5,-435.02C202.5,-439.29 202.5,-442.55 202.5,-442.55 202.5,-442.55 1228.5,-442.55 1228.5,-442.55 1228.5,-442.55 1228.5,-505.68 1228.5,-505.68"/>
<polygon fill="#8dd3c7" stroke="#8dd3c7" stroke-width="2" points="1231,-507.18 1226,-507.18 1226,-506.18 1231,-506.18 1231,-507.18"/>
<polyline fill="none" stroke="#8dd3c7" stroke-width="2" points="1228.5,-507.68 1228.5,-505.18"/>
</g>
<!-- INE5408 -->
<g id="node20" class="node">
<title>INE5408</title>
<polygon fill="#bebada" stroke="#bebada" points="878.25,-260.75 739.25,-260.75 739.25,-221.25 878.25,-221.25 878.25,-260.75"/>
<text text-anchor="middle" x="808.75" y="-243.45" font-family="Arial" font-size="14.00">INE5408</text>
<text text-anchor="middle" x="808.75" y="-227.7" font-family="Arial" font-size="14.00">Estruturas de Dados</text>
</g>
<!-- INE5404&#45;&gt;INE5408 -->
<g id="edge14" class="edge">
<title>INE5404&#45;&gt;INE5408</title>
<path fill="none" stroke="#ffffb3" stroke-width="2" d="M630.5,-279.04C630.5,-262.26 630.5,-241 630.5,-241 630.5,-241 736.31,-241 736.31,-241"/>
<polygon fill="#ffffb3" stroke="#ffffb3" stroke-width="2" points="737.81,-238.5 737.81,-243.5 736.81,-243.5 736.81,-238.5 737.81,-238.5"/>
<polyline fill="none" stroke="#ffffb3" stroke-width="2" points="738.31,-241 735.81,-241"/>
</g>
<!-- INE5410 -->
<g id="node21" class="node">
<title>INE5410</title>
<polygon fill="#bebada" stroke="#bebada" points="896.62,-318.75 720.88,-318.75 720.88,-279.25 896.62,-279.25 896.62,-318.75"/>
<text text-anchor="middle" x="808.75" y="-301.45" font-family="Arial" font-size="14.00">INE5410</text>
<text text-anchor="middle" x="808.75" y="-285.7" font-family="Arial" font-size="14.00">Programação Concorrente</text>
</g>
<!-- INE5404&#45;&gt;INE5410 -->
<g id="edge15" class="edge">
<title>INE5404&#45;&gt;INE5410</title>
<path fill="none" stroke="#ffffb3" stroke-width="2" d="M653.37,-299C653.37,-299 718.03,-299 718.03,-299"/>
<polygon fill="#ffffb3" stroke="#ffffb3" stroke-width="2" points="719.53,-296.5 719.53,-301.5 718.53,-301.5 718.53,-296.5 719.53,-296.5"/>
<polyline fill="none" stroke="#ffffb3" stroke-width="2" points="720.03,-299 717.53,-299"/>
</g>
<!-- INE5414 -->
<g id="node26" class="node">
<title>INE5414</title>
<polygon fill="#fb8072" stroke="#fb8072" points="1148.12,-123.75 973.88,-123.75 973.88,-84.25 1148.12,-84.25 1148.12,-123.75"/>
<text text-anchor="middle" x="1061" y="-106.45" font-family="Arial" font-size="14.00">INE5414</text>
<text text-anchor="middle" x="1061" y="-90.7" font-family="Arial" font-size="14.00">Redes de Computadores I</text>
</g>
<!-- INE5404&#45;&gt;INE5414 -->
<g id="edge23" class="edge">
<title>INE5404&#45;&gt;INE5414</title>
<path fill="none" stroke="#ffffb3" stroke-width="2" d="M608.5,-278.87C608.5,-229.04 608.5,-104 608.5,-104 608.5,-104 970.99,-104 970.99,-104"/>
<polygon fill="#ffffb3" stroke="#ffffb3" stroke-width="2" points="972.49,-101.5 972.49,-106.5 971.49,-106.5 971.49,-101.5 972.49,-101.5"/>
<polyline fill="none" stroke="#ffffb3" stroke-width="2" points="972.99,-104 970.49,-104"/>
</g>
<!-- INE5411 -->
<g id="node22" class="node">
<title>INE5411</title>
<polygon fill="#bebada" stroke="#bebada" points="915,-376.75 702.5,-376.75 702.5,-337.25 915,-337.25 915,-376.75"/>
<text text-anchor="middle" x="808.75" y="-359.45" font-family="Arial" font-size="14.00">INE5411</text>
<text text-anchor="middle" x="808.75" y="-343.7" font-family="Arial" font-size="14.00">Organização de Computadores I</text>
</g>
<!-- INE5406&#45;&gt;INE5411 -->
<g id="edge16" class="edge">
<title>INE5406&#45;&gt;INE5411</title>
<path fill="none" stroke="#ffffb3" stroke-width="2" d="M595.8,-357C595.8,-357 699.6,-357 699.6,-357"/>
<polygon fill="#ffffb3" stroke="#ffffb3" stroke-width="2" points="701.1,-354.5 701.1,-359.5 700.1,-359.5 700.1,-354.5 701.1,-354.5"/>
<polyline fill="none" stroke="#ffffb3" stroke-width="2" points="701.6,-357 699.1,-357"/>
</g>
<!-- INE5407 -->
<g id="node16" class="node">
<title>INE5407</title>
<polygon fill="#ffffb3" stroke="#ffffb3" points="641.38,-550.75 429.62,-550.75 429.62,-511.25 641.38,-511.25 641.38,-550.75"/>
<text text-anchor="middle" x="535.5" y="-533.45" font-family="Arial" font-size="14.00">INE5407</text>
<text text-anchor="middle" x="535.5" y="-517.7" font-family="Arial" font-size="14.00">Ciência, Tecnologia e Sociedade</text>
</g>
<!-- INE5428 -->
<g id="node43" class="node">
<title>INE5428</title>
<polygon fill="#8dd3c7" stroke="#8dd3c7" points="2015.88,-447.75 1853.62,-447.75 1853.62,-408.25 2015.88,-408.25 2015.88,-447.75"/>
<text text-anchor="middle" x="1934.75" y="-430.45" font-family="Arial" font-size="14.00">INE5428</text>
<text text-anchor="middle" x="1934.75" y="-414.7" font-family="Arial" font-size="14.00">Informática e Sociedade</text>
</g>
<!-- INE5407&#45;&gt;INE5428 -->
<g id="edge47" class="edge">
<title>INE5407&#45;&gt;INE5428</title>
<path fill="none" stroke="#ffffb3" stroke-width="2" d="M535.5,-551.08C535.5,-562.58 535.5,-574.75 535.5,-574.75 535.5,-574.75 1934.5,-574.75 1934.5,-574.75 1934.5,-574.75 1934.5,-450.6 1934.5,-450.6"/>
<polygon fill="#ffffb3" stroke="#ffffb3" stroke-width="2" points="1932,-449.1 1937,-449.1 1937,-450.1 1932,-450.1 1932,-449.1"/>
<polyline fill="none" stroke="#ffffb3" stroke-width="2" points="1934.5,-448.6 1934.5,-451.1"/>
</g>
<!-- MTM3120&#45;&gt;INE5202 -->
<g id="edge12" class="edge">
<title>MTM3120&#45;&gt;INE5202</title>
<path fill="none" stroke="#ffffb3" stroke-width="2" d="M586.26,-408.42C586.26,-408.42 686,-408.42 686,-408.42"/>
<polygon fill="#ffffb3" stroke="#ffffb3" stroke-width="2" points="687.5,-405.92 687.5,-410.92 686.5,-410.92 686.5,-405.92 687.5,-405.92"/>
<polyline fill="none" stroke="#ffffb3" stroke-width="2" points="688,-408.42 685.5,-408.42"/>
</g>
<!-- MTM3131 -->
<g id="node23" class="node">
<title>MTM3131</title>
<polygon fill="#bebada" stroke="#bebada" points="917.25,-492.75 700.25,-492.75 700.25,-453.25 917.25,-453.25 917.25,-492.75"/>
<text text-anchor="middle" x="808.75" y="-475.45" font-family="Arial" font-size="14.00">MTM3131</text>
<text text-anchor="middle" x="808.75" y="-459.7" font-family="Arial" font-size="14.00">Equações Diferenciais Ordinárias</text>
</g>
<!-- MTM3120&#45;&gt;MTM3131 -->
<g id="edge17" class="edge">
<title>MTM3120&#45;&gt;MTM3131</title>
<path fill="none" stroke="#ffffb3" stroke-width="2" d="M586.33,-421.58C589.53,-421.58 591.5,-421.58 591.5,-421.58 591.5,-421.58 591.5,-473 591.5,-473 591.5,-473 697.31,-473 697.31,-473"/>
<polygon fill="#ffffb3" stroke="#ffffb3" stroke-width="2" points="698.81,-470.5 698.81,-475.5 697.81,-475.5 697.81,-470.5 698.81,-470.5"/>
<polyline fill="none" stroke="#ffffb3" stroke-width="2" points="699.31,-473 696.81,-473"/>
</g>
<!-- INE5420 -->
<g id="node33" class="node">
<title>INE5420</title>
<polygon fill="#80b1d3" stroke="#80b1d3" points="1383.12,-489.75 1241.88,-489.75 1241.88,-450.25 1383.12,-450.25 1383.12,-489.75"/>
<text text-anchor="middle" x="1312.5" y="-472.45" font-family="Arial" font-size="14.00">INE5420</text>
<text text-anchor="middle" x="1312.5" y="-456.7" font-family="Arial" font-size="14.00">Computação Gráfica</text>
</g>
<!-- MTM3120&#45;&gt;INE5420 -->
<g id="edge33" class="edge">
<title>MTM3120&#45;&gt;INE5420</title>
<path fill="none" stroke="#ffffb3" stroke-width="2" d="M535.5,-435.14C535.5,-437.98 535.5,-439.95 535.5,-439.95 535.5,-439.95 1312.5,-439.95 1312.5,-439.95 1312.5,-439.95 1312.5,-447.29 1312.5,-447.29"/>
<polygon fill="#ffffb3" stroke="#ffffb3" stroke-width="2" points="1315,-448.79 1310,-448.79 1310,-447.79 1315,-447.79 1315,-448.79"/>
<polyline fill="none" stroke="#ffffb3" stroke-width="2" points="1312.5,-449.29 1312.5,-446.79"/>
</g>
<!-- MTM3121 -->
<g id="node18" class="node">
<title>MTM3121</title>
<polygon fill="#ffffb3" stroke="#ffffb3" points="587.38,-492.75 483.62,-492.75 483.62,-453.25 587.38,-453.25 587.38,-492.75"/>
<text text-anchor="middle" x="535.5" y="-475.45" font-family="Arial" font-size="14.00">MTM3121</text>
<text text-anchor="middle" x="535.5" y="-459.7" font-family="Arial" font-size="14.00">Álgebra Linear</text>
</g>
<!-- MTM3121&#45;&gt;INE5202 -->
<g id="edge13" class="edge">
<title>MTM3121&#45;&gt;INE5202</title>
<path fill="none" stroke="#ffffb3" stroke-width="2" d="M587.56,-463.12C633.93,-463.12 694.5,-463.12 694.5,-463.12 694.5,-463.12 694.5,-437.63 694.5,-437.63"/>
<polygon fill="#ffffb3" stroke="#ffffb3" stroke-width="2" points="692,-436.13 697,-436.13 697,-437.13 692,-437.13 692,-436.13"/>
<polyline fill="none" stroke="#ffffb3" stroke-width="2" points="694.5,-435.63 694.5,-438.13"/>
</g>
<!-- MTM3121&#45;&gt;MTM3131 -->
<g id="edge18" class="edge">
<title>MTM3121&#45;&gt;MTM3131</title>
<path fill="none" stroke="#ffffb3" stroke-width="2" d="M587.86,-482.88C587.86,-482.88 697.5,-482.88 697.5,-482.88"/>
<polygon fill="#ffffb3" stroke="#ffffb3" stroke-width="2" points="699,-480.38 699,-485.38 698,-485.38 698,-480.38 699,-480.38"/>
<polyline fill="none" stroke="#ffffb3" stroke-width="2" points="699.5,-482.88 697,-482.88"/>
</g>
<!-- MTM3121&#45;&gt;INE5420 -->
<g id="edge34" class="edge">
<title>MTM3121&#45;&gt;INE5420</title>
<path fill="none" stroke="#ffffb3" stroke-width="2" d="M535.5,-493.04C535.5,-497.75 535.5,-501.42 535.5,-501.42 535.5,-501.42 1312.5,-501.42 1312.5,-501.42 1312.5,-501.42 1312.5,-492.57 1312.5,-492.57"/>
<polygon fill="#ffffb3" stroke="#ffffb3" stroke-width="2" points="1310,-491.07 1315,-491.07 1315,-492.07 1310,-492.07 1310,-491.07"/>
<polyline fill="none" stroke="#ffffb3" stroke-width="2" points="1312.5,-490.57 1312.5,-493.07"/>
</g>
<!-- INE5425 -->
<g id="node38" class="node">
<title>INE5425</title>
<polygon fill="#fdb462" stroke="#fdb462" points="1701,-447.75 1534.25,-447.75 1534.25,-408.25 1701,-408.25 1701,-447.75"/>
<text text-anchor="middle" x="1617.62" y="-430.45" font-family="Arial" font-size="14.00">INE5425</text>
<text text-anchor="middle" x="1617.62" y="-414.7" font-family="Arial" font-size="14.00">Modelagem e Simulação</text>
</g>
<!-- INE5202&#45;&gt;INE5425 -->
<g id="edge39" class="edge">
<title>INE5202&#45;&gt;INE5425</title>
<path fill="none" stroke="#bebada" stroke-width="2" d="M922.5,-434.96C922.5,-436.43 922.5,-437.35 922.5,-437.35 922.5,-437.35 1531.28,-437.35 1531.28,-437.35"/>
<polygon fill="#bebada" stroke="#bebada" stroke-width="2" points="1532.78,-434.85 1532.78,-439.85 1531.78,-439.85 1531.78,-434.85 1532.78,-434.85"/>
<polyline fill="none" stroke="#bebada" stroke-width="2" points="1533.28,-437.35 1530.78,-437.35"/>
</g>
<!-- INE5408&#45;&gt;INE5413 -->
<g id="edge22" class="edge">
<title>INE5408&#45;&gt;INE5413</title>
<path fill="none" stroke="#bebada" stroke-width="2" d="M868.5,-221.02C868.5,-201.78 868.5,-175.58 868.5,-175.58 868.5,-175.58 1007.67,-175.58 1007.67,-175.58"/>
<polygon fill="#bebada" stroke="#bebada" stroke-width="2" points="1009.17,-173.08 1009.17,-178.08 1008.17,-178.08 1008.17,-173.08 1009.17,-173.08"/>
<polyline fill="none" stroke="#bebada" stroke-width="2" points="1009.67,-175.58 1007.17,-175.58"/>
</g>
<!-- INE5408&#45;&gt;INE5415 -->
<g id="edge25" class="edge">
<title>INE5408&#45;&gt;INE5415</title>
<path fill="none" stroke="#bebada" stroke-width="2" d="M878.55,-253.25C893.81,-253.25 905.5,-253.25 905.5,-253.25 905.5,-253.25 905.5,-324.92 905.5,-324.92 905.5,-324.92 982.12,-324.92 982.12,-324.92"/>
<polygon fill="#bebada" stroke="#bebada" stroke-width="2" points="983.62,-322.42 983.62,-327.42 982.62,-327.42 982.62,-322.42 983.62,-322.42"/>
<polyline fill="none" stroke="#bebada" stroke-width="2" points="984.12,-324.92 981.62,-324.92"/>
</g>
<!-- INE5416 -->
<g id="node28" class="node">
<title>INE5416</title>
<polygon fill="#fb8072" stroke="#fb8072" points="1157.5,-239.75 964.5,-239.75 964.5,-200.25 1157.5,-200.25 1157.5,-239.75"/>
<text text-anchor="middle" x="1061" y="-222.45" font-family="Arial" font-size="14.00">INE5416</text>
<text text-anchor="middle" x="1061" y="-206.7" font-family="Arial" font-size="14.00">Paradigmas de Programação</text>
</g>
<!-- INE5408&#45;&gt;INE5416 -->
<g id="edge26" class="edge">
<title>INE5408&#45;&gt;INE5416</title>
<path fill="none" stroke="#bebada" stroke-width="2" d="M878.68,-230.5C878.68,-230.5 961.52,-230.5 961.52,-230.5"/>
<polygon fill="#bebada" stroke="#bebada" stroke-width="2" points="963.02,-228 963.02,-233 962.02,-233 962.02,-228 963.02,-228"/>
<polyline fill="none" stroke="#bebada" stroke-width="2" points="963.52,-230.5 961.02,-230.5"/>
</g>
<!-- INE5417 -->
<g id="node29" class="node">
<title>INE5417</title>
<polygon fill="#fb8072" stroke="#fb8072" points="1145.12,-297.75 976.88,-297.75 976.88,-258.25 1145.12,-258.25 1145.12,-297.75"/>
<text text-anchor="middle" x="1061" y="-280.45" font-family="Arial" font-size="14.00">INE5417</text>
<text text-anchor="middle" x="1061" y="-264.7" font-family="Arial" font-size="14.00">Engenharia de Software I</text>
</g>
<!-- INE5408&#45;&gt;INE5417 -->
<g id="edge27" class="edge">
<title>INE5408&#45;&gt;INE5417</title>
<path fill="none" stroke="#bebada" stroke-width="2" d="M808.5,-261.14C808.5,-266.09 808.5,-270 808.5,-270 808.5,-270 974.07,-270 974.07,-270"/>
<polygon fill="#bebada" stroke="#bebada" stroke-width="2" points="975.57,-267.5 975.57,-272.5 974.57,-272.5 974.57,-267.5 975.57,-267.5"/>
<polyline fill="none" stroke="#bebada" stroke-width="2" points="976.07,-270 973.57,-270"/>
</g>
<!-- INE5408&#45;&gt;INE5420 -->
<g id="edge32" class="edge">
<title>INE5408&#45;&gt;INE5420</title>
<path fill="none" stroke="#bebada" stroke-width="2" d="M878.52,-244.25C915.14,-244.25 952.5,-244.25 952.5,-244.25 952.5,-244.25 952.5,-471.5 952.5,-471.5 952.5,-471.5 1238.88,-471.5 1238.88,-471.5"/>
<polygon fill="#bebada" stroke="#bebada" stroke-width="2" points="1240.38,-469 1240.38,-474 1239.38,-474 1239.38,-469 1240.38,-469"/>
<polyline fill="none" stroke="#bebada" stroke-width="2" points="1240.88,-471.5 1238.38,-471.5"/>
</g>
<!-- INE5423 -->
<g id="node36" class="node">
<title>INE5423</title>
<polygon fill="#fdb462" stroke="#fdb462" points="1679.25,-505.75 1556,-505.75 1556,-466.25 1679.25,-466.25 1679.25,-505.75"/>
<text text-anchor="middle" x="1617.62" y="-488.45" font-family="Arial" font-size="14.00">INE5423</text>
<text text-anchor="middle" x="1617.62" y="-472.7" font-family="Arial" font-size="14.00">Banco de Dados I</text>
</g>
<!-- INE5408&#45;&gt;INE5423 -->
<g id="edge37" class="edge">
<title>INE5408&#45;&gt;INE5423</title>
<path fill="none" stroke="#bebada" stroke-width="2" d="M878.48,-248.75C910.09,-248.75 940.5,-248.75 940.5,-248.75 940.5,-248.75 940.5,-497.08 940.5,-497.08 940.5,-497.08 1553.24,-497.08 1553.24,-497.08"/>
<polygon fill="#bebada" stroke="#bebada" stroke-width="2" points="1554.74,-494.58 1554.74,-499.58 1553.74,-499.58 1553.74,-494.58 1554.74,-494.58"/>
<polyline fill="none" stroke="#bebada" stroke-width="2" points="1555.24,-497.08 1552.74,-497.08"/>
</g>
<!-- INE5412 -->
<g id="node24" class="node">
<title>INE5412</title>
<polygon fill="#fb8072" stroke="#fb8072" points="1142.88,-413.75 979.12,-413.75 979.12,-374.25 1142.88,-374.25 1142.88,-413.75"/>
<text text-anchor="middle" x="1061" y="-396.45" font-family="Arial" font-size="14.00">INE5412</text>
<text text-anchor="middle" x="1061" y="-380.7" font-family="Arial" font-size="14.00">Sistemas Operacionais I</text>
</g>
<!-- INE5410&#45;&gt;INE5412 -->
<g id="edge19" class="edge">
<title>INE5410&#45;&gt;INE5412</title>
<path fill="none" stroke="#bebada" stroke-width="2" d="M897.03,-306.75C911.3,-306.75 921.5,-306.75 921.5,-306.75 921.5,-306.75 921.5,-389.08 921.5,-389.08 921.5,-389.08 976.14,-389.08 976.14,-389.08"/>
<polygon fill="#bebada" stroke="#bebada" stroke-width="2" points="977.64,-386.58 977.64,-391.58 976.64,-391.58 976.64,-386.58 977.64,-386.58"/>
<polyline fill="none" stroke="#bebada" stroke-width="2" points="978.14,-389.08 975.64,-389.08"/>
</g>
<!-- INE5411&#45;&gt;INE5412 -->
<g id="edge20" class="edge">
<title>INE5411&#45;&gt;INE5412</title>
<path fill="none" stroke="#bebada" stroke-width="2" d="M915.15,-364.75C983.86,-364.75 1060.5,-364.75 1060.5,-364.75 1060.5,-364.75 1060.5,-371.5 1060.5,-371.5"/>
<polygon fill="#bebada" stroke="#bebada" stroke-width="2" points="1063,-373 1058,-373 1058,-372 1063,-372 1063,-373"/>
<polyline fill="none" stroke="#bebada" stroke-width="2" points="1060.5,-373.5 1060.5,-371"/>
</g>
<!-- INE5418 -->
<g id="node31" class="node">
<title>INE5418</title>
<polygon fill="#80b1d3" stroke="#80b1d3" points="1393.25,-431.75 1231.75,-431.75 1231.75,-392.25 1393.25,-392.25 1393.25,-431.75"/>
<text text-anchor="middle" x="1312.5" y="-414.45" font-family="Arial" font-size="14.00">INE5418</text>
<text text-anchor="middle" x="1312.5" y="-398.7" font-family="Arial" font-size="14.00">Computação Distribuída</text>
</g>
<!-- INE5412&#45;&gt;INE5418 -->
<g id="edge29" class="edge">
<title>INE5412&#45;&gt;INE5418</title>
<path fill="none" stroke="#fb8072" stroke-width="2" d="M1143.35,-406.58C1143.35,-406.58 1228.75,-406.58 1228.75,-406.58"/>
<polygon fill="#fb8072" stroke="#fb8072" stroke-width="2" points="1230.25,-404.08 1230.25,-409.08 1229.25,-409.08 1229.25,-404.08 1230.25,-404.08"/>
<polyline fill="none" stroke="#fb8072" stroke-width="2" points="1230.75,-406.58 1228.25,-406.58"/>
</g>
<!-- INE5424 -->
<g id="node37" class="node">
<title>INE5424</title>
<polygon fill="#fdb462" stroke="#fdb462" points="1701.38,-331.75 1533.88,-331.75 1533.88,-292.25 1701.38,-292.25 1701.38,-331.75"/>
<text text-anchor="middle" x="1617.62" y="-314.45" font-family="Arial" font-size="14.00">INE5424</text>
<text text-anchor="middle" x="1617.62" y="-298.7" font-family="Arial" font-size="14.00">Sistemas Operacionais II</text>
</g>
<!-- INE5412&#45;&gt;INE5424 -->
<g id="edge38" class="edge">
<title>INE5412&#45;&gt;INE5424</title>
<path fill="none" stroke="#fb8072" stroke-width="2" d="M1143.06,-382C1255.45,-382 1443.5,-382 1443.5,-382 1443.5,-382 1443.5,-324 1443.5,-324 1443.5,-324 1531.12,-324 1531.12,-324"/>
<polygon fill="#fb8072" stroke="#fb8072" stroke-width="2" points="1532.62,-321.5 1532.62,-326.5 1531.62,-326.5 1531.62,-321.5 1532.62,-321.5"/>
<polyline fill="none" stroke="#fb8072" stroke-width="2" points="1533.12,-324 1530.62,-324"/>
</g>
<!-- INE5430 -->
<g id="node41" class="node">
<title>INE5430</title>
<polygon fill="#fdb462" stroke="#fdb462" points="1684.88,-157.75 1550.38,-157.75 1550.38,-118.25 1684.88,-118.25 1684.88,-157.75"/>
<text text-anchor="middle" x="1617.62" y="-140.45" font-family="Arial" font-size="14.00">INE5430</text>
<text text-anchor="middle" x="1617.62" y="-124.7" font-family="Arial" font-size="14.00">Inteligência Artificial</text>
</g>
<!-- INE5413&#45;&gt;INE5430 -->
<g id="edge44" class="edge">
<title>INE5413&#45;&gt;INE5430</title>
<path fill="none" stroke="#fb8072" stroke-width="2" d="M1111.87,-146.12C1111.87,-146.12 1547.49,-146.12 1547.49,-146.12"/>
<polygon fill="#fb8072" stroke="#fb8072" stroke-width="2" points="1548.99,-143.63 1548.99,-148.63 1547.99,-148.63 1547.99,-143.63 1548.99,-143.63"/>
<polyline fill="none" stroke="#fb8072" stroke-width="2" points="1549.49,-146.13 1546.99,-146.13"/>
</g>
<!-- INE5414&#45;&gt;INE5418 -->
<g id="edge30" class="edge">
<title>INE5414&#45;&gt;INE5418</title>
<path fill="none" stroke="#fb8072" stroke-width="2" d="M1148.37,-111.45C1164.04,-111.45 1175.5,-111.45 1175.5,-111.45 1175.5,-111.45 1175.5,-399.42 1175.5,-399.42 1175.5,-399.42 1229.12,-399.42 1229.12,-399.42"/>
<polygon fill="#fb8072" stroke="#fb8072" stroke-width="2" points="1230.62,-396.92 1230.62,-401.92 1229.62,-401.92 1229.62,-396.92 1230.62,-396.92"/>
<polyline fill="none" stroke="#fb8072" stroke-width="2" points="1231.12,-399.42 1228.62,-399.42"/>
</g>
<!-- INE5422 -->
<g id="node35" class="node">
<title>INE5422</title>
<polygon fill="#80b1d3" stroke="#80b1d3" points="1401.5,-257.75 1223.5,-257.75 1223.5,-218.25 1401.5,-218.25 1401.5,-257.75"/>
<text text-anchor="middle" x="1312.5" y="-240.45" font-family="Arial" font-size="14.00">INE5422</text>
<text text-anchor="middle" x="1312.5" y="-224.7" font-family="Arial" font-size="14.00">Redes de Computadores II</text>
</g>
<!-- INE5414&#45;&gt;INE5422 -->
<g id="edge36" class="edge">
<title>INE5414&#45;&gt;INE5422</title>
<path fill="none" stroke="#fb8072" stroke-width="2" d="M1148.56,-104.65C1194.97,-104.65 1242.5,-104.65 1242.5,-104.65 1242.5,-104.65 1242.5,-215.54 1242.5,-215.54"/>
<polygon fill="#fb8072" stroke="#fb8072" stroke-width="2" points="1245,-217.04 1240,-217.04 1240,-216.04 1245,-216.04 1245,-217.04"/>
<polyline fill="none" stroke="#fb8072" stroke-width="2" points="1242.5,-217.54 1242.5,-215.04"/>
</g>
<!-- INE5414&#45;&gt;INE5429 -->
<g id="edge49" class="edge">
<title>INE5414&#45;&gt;INE5429</title>
<path fill="none" stroke="#fb8072" stroke-width="2" d="M1148.38,-97.85C1339.87,-97.85 1779.5,-97.85 1779.5,-97.85 1779.5,-97.85 1779.5,-370 1779.5,-370 1779.5,-370 1839.25,-370 1839.25,-370"/>
<polygon fill="#fb8072" stroke="#fb8072" stroke-width="2" points="1840.75,-367.5 1840.75,-372.5 1839.75,-372.5 1839.75,-367.5 1840.75,-367.5"/>
<polyline fill="none" stroke="#fb8072" stroke-width="2" points="1841.25,-370 1838.75,-370"/>
</g>
<!-- INE5431 -->
<g id="node45" class="node">
<title>INE5431</title>
<polygon fill="#8dd3c7" stroke="#8dd3c7" points="2004.25,-215.75 1865.25,-215.75 1865.25,-176.25 2004.25,-176.25 2004.25,-215.75"/>
<text text-anchor="middle" x="1934.75" y="-198.45" font-family="Arial" font-size="14.00">INE5431</text>
<text text-anchor="middle" x="1934.75" y="-182.7" font-family="Arial" font-size="14.00">Sistemas Multimídia</text>
</g>
<!-- INE5414&#45;&gt;INE5431 -->
<g id="edge50" class="edge">
<title>INE5414&#45;&gt;INE5431</title>
<path fill="none" stroke="#fb8072" stroke-width="2" d="M1148.44,-91.05C1358.55,-91.05 1874.5,-91.05 1874.5,-91.05 1874.5,-91.05 1874.5,-173.26 1874.5,-173.26"/>
<polygon fill="#fb8072" stroke="#fb8072" stroke-width="2" points="1877,-174.76 1872,-174.76 1872,-173.76 1877,-173.76 1877,-174.76"/>
<polyline fill="none" stroke="#fb8072" stroke-width="2" points="1874.5,-175.26 1874.5,-172.76"/>
</g>
<!-- INE5421 -->
<g id="node34" class="node">
<title>INE5421</title>
<polygon fill="#80b1d3" stroke="#80b1d3" points="1431.5,-373.75 1193.5,-373.75 1193.5,-334.25 1431.5,-334.25 1431.5,-373.75"/>
<text text-anchor="middle" x="1312.5" y="-356.45" font-family="Arial" font-size="14.00">INE5421</text>
<text text-anchor="middle" x="1312.5" y="-340.7" font-family="Arial" font-size="14.00">Linguagens Formais e Compiladores</text>
</g>
<!-- INE5415&#45;&gt;INE5421 -->
<g id="edge35" class="edge">
<title>INE5415&#45;&gt;INE5421</title>
<path fill="none" stroke="#fb8072" stroke-width="2" d="M1137.48,-345C1137.48,-345 1190.75,-345 1190.75,-345"/>
<polygon fill="#fb8072" stroke="#fb8072" stroke-width="2" points="1192.25,-342.5 1192.25,-347.5 1191.25,-347.5 1191.25,-342.5 1192.25,-342.5"/>
<polyline fill="none" stroke="#fb8072" stroke-width="2" points="1192.75,-345 1190.25,-345"/>
</g>
<!-- INE5416&#45;&gt;INE5430 -->
<g id="edge45" class="edge">
<title>INE5416&#45;&gt;INE5430</title>
<path fill="none" stroke="#fb8072" stroke-width="2" d="M1152.5,-199.75C1152.5,-179.08 1152.5,-150 1152.5,-150 1152.5,-150 1547.49,-150 1547.49,-150"/>
<polygon fill="#fb8072" stroke="#fb8072" stroke-width="2" points="1548.99,-147.5 1548.99,-152.5 1547.99,-152.5 1547.99,-147.5 1548.99,-147.5"/>
<polyline fill="none" stroke="#fb8072" stroke-width="2" points="1549.49,-150 1546.99,-150"/>
</g>
<!-- INE5419 -->
<g id="node32" class="node">
<title>INE5419</title>
<polygon fill="#80b1d3" stroke="#80b1d3" points="1398.5,-315.75 1226.5,-315.75 1226.5,-276.25 1398.5,-276.25 1398.5,-315.75"/>
<text text-anchor="middle" x="1312.5" y="-298.45" font-family="Arial" font-size="14.00">INE5419</text>
<text text-anchor="middle" x="1312.5" y="-282.7" font-family="Arial" font-size="14.00">Engenharia de Software II</text>
</g>
<!-- INE5417&#45;&gt;INE5419 -->
<g id="edge31" class="edge">
<title>INE5417&#45;&gt;INE5419</title>
<path fill="none" stroke="#fb8072" stroke-width="2" d="M1145.45,-287C1145.45,-287 1223.63,-287 1223.63,-287"/>
<polygon fill="#fb8072" stroke="#fb8072" stroke-width="2" points="1225.13,-284.5 1225.13,-289.5 1224.13,-289.5 1224.13,-284.5 1225.13,-284.5"/>
<polyline fill="none" stroke="#fb8072" stroke-width="2" points="1225.63,-287 1223.13,-287"/>
</g>
<!-- INE5427 -->
<g id="node40" class="node">
<title>INE5427</title>
<polygon fill="#fdb462" stroke="#fdb462" points="1732.88,-273.75 1502.38,-273.75 1502.38,-234.25 1732.88,-234.25 1732.88,-273.75"/>
<text text-anchor="middle" x="1617.62" y="-256.45" font-family="Arial" font-size="14.00">INE5427</text>
<text text-anchor="middle" x="1617.62" y="-240.7" font-family="Arial" font-size="14.00">Planejamento e Gestão de Projetos</text>
</g>
<!-- INE5417&#45;&gt;INE5427 -->
<g id="edge42" class="edge">
<title>INE5417&#45;&gt;INE5427</title>
<path fill="none" stroke="#fb8072" stroke-width="2" d="M1145.54,-268.58C1145.54,-268.58 1499.5,-268.58 1499.5,-268.58"/>
<polygon fill="#fb8072" stroke="#fb8072" stroke-width="2" points="1501,-266.08 1501,-271.08 1500,-271.08 1500,-266.08 1501,-266.08"/>
<polyline fill="none" stroke="#fb8072" stroke-width="2" points="1501.5,-268.58 1499,-268.58"/>
</g>
<!-- INE5453 -->
<g id="node42" class="node">
<title>INE5453</title>
<polygon fill="#fdb462" stroke="#fdb462" points="1767.75,-215.75 1467.5,-215.75 1467.5,-176.25 1767.75,-176.25 1767.75,-215.75"/>
<text text-anchor="middle" x="1617.62" y="-198.45" font-family="Arial" font-size="14.00">INE5453</text>
<text text-anchor="middle" x="1617.62" y="-182.7" font-family="Arial" font-size="14.00">Introdução ao Trabalho de Conclusão de Curso</text>
</g>
<!-- INE5417&#45;&gt;INE5453 -->
<g id="edge46" class="edge">
<title>INE5417&#45;&gt;INE5453</title>
<path fill="none" stroke="#fb8072" stroke-width="2" d="M1145.43,-263.42C1268.98,-263.42 1484.5,-263.42 1484.5,-263.42 1484.5,-263.42 1484.5,-218.73 1484.5,-218.73"/>
<polygon fill="#fb8072" stroke="#fb8072" stroke-width="2" points="1482,-217.23 1487,-217.23 1487,-218.23 1482,-218.23 1482,-217.23"/>
<polyline fill="none" stroke="#fb8072" stroke-width="2" points="1484.5,-216.73 1484.5,-219.23"/>
</g>
<!-- INE5405&#45;&gt;INE5425 -->
<g id="edge40" class="edge">
<title>INE5405&#45;&gt;INE5425</title>
<path fill="none" stroke="#80b1d3" stroke-width="2" d="M1396.5,-507.94C1396.5,-483.42 1396.5,-445.15 1396.5,-445.15 1396.5,-445.15 1531.53,-445.15 1531.53,-445.15"/>
<polygon fill="#80b1d3" stroke="#80b1d3" stroke-width="2" points="1533.03,-442.65 1533.03,-447.65 1532.03,-447.65 1532.03,-442.65 1533.03,-442.65"/>
<polyline fill="none" stroke="#80b1d3" stroke-width="2" points="1533.53,-445.15 1531.03,-445.15"/>
</g>
<!-- INE5405&#45;&gt;INE5430 -->
<g id="edge43" class="edge">
<title>INE5405&#45;&gt;INE5430</title>
<path fill="none" stroke="#80b1d3" stroke-width="2" d="M1400.62,-528C1430.05,-528 1455.5,-528 1455.5,-528 1455.5,-528 1455.5,-153.88 1455.5,-153.88 1455.5,-153.88 1547.78,-153.88 1547.78,-153.88"/>
<polygon fill="#80b1d3" stroke="#80b1d3" stroke-width="2" points="1549.28,-151.38 1549.28,-156.38 1548.28,-156.38 1548.28,-151.38 1549.28,-151.38"/>
<polyline fill="none" stroke="#80b1d3" stroke-width="2" points="1549.78,-153.88 1547.28,-153.88"/>
</g>
<!-- INE5426 -->
<g id="node39" class="node">
<title>INE5426</title>
<polygon fill="#fdb462" stroke="#fdb462" points="1713.38,-389.75 1521.88,-389.75 1521.88,-350.25 1713.38,-350.25 1713.38,-389.75"/>
<text text-anchor="middle" x="1617.62" y="-372.45" font-family="Arial" font-size="14.00">INE5426</text>
<text text-anchor="middle" x="1617.62" y="-356.7" font-family="Arial" font-size="14.00">Construção de Compiladores</text>
</g>
<!-- INE5421&#45;&gt;INE5426 -->
<g id="edge41" class="edge">
<title>INE5421&#45;&gt;INE5426</title>
<path fill="none" stroke="#80b1d3" stroke-width="2" d="M1431.78,-362C1431.78,-362 1519.03,-362 1519.03,-362"/>
<polygon fill="#80b1d3" stroke="#80b1d3" stroke-width="2" points="1520.53,-359.5 1520.53,-364.5 1519.53,-364.5 1519.53,-359.5 1520.53,-359.5"/>
<polyline fill="none" stroke="#80b1d3" stroke-width="2" points="1521.03,-362 1518.53,-362"/>
</g>
<!-- INE5432 -->
<g id="node46" class="node">
<title>INE5432</title>
<polygon fill="#8dd3c7" stroke="#8dd3c7" points="1998.25,-331.75 1871.25,-331.75 1871.25,-292.25 1998.25,-292.25 1998.25,-331.75"/>
<text text-anchor="middle" x="1934.75" y="-314.45" font-family="Arial" font-size="14.00">INE5432</text>
<text text-anchor="middle" x="1934.75" y="-298.7" font-family="Arial" font-size="14.00">Banco de Dados II</text>
</g>
<!-- INE5423&#45;&gt;INE5432 -->
<g id="edge51" class="edge">
<title>INE5423&#45;&gt;INE5432</title>
<path fill="none" stroke="#fdb462" stroke-width="2" d="M1679.42,-486C1729.39,-486 1791.5,-486 1791.5,-486 1791.5,-486 1791.5,-312 1791.5,-312 1791.5,-312 1868.58,-312 1868.58,-312"/>
<polygon fill="#fdb462" stroke="#fdb462" stroke-width="2" points="1870.08,-309.5 1870.08,-314.5 1869.08,-314.5 1869.08,-309.5 1870.08,-309.5"/>
<polyline fill="none" stroke="#fdb462" stroke-width="2" points="1870.58,-312 1868.08,-312"/>
</g>
<!-- INE5433 -->
<g id="node47" class="node">
<title>INE5433</title>
<polygon fill="#8dd3c7" stroke="#8dd3c7" points="2065.75,-273.75 1803.75,-273.75 1803.75,-234.25 2065.75,-234.25 2065.75,-273.75"/>
<text text-anchor="middle" x="1934.75" y="-256.45" font-family="Arial" font-size="14.00">INE5433</text>
<text text-anchor="middle" x="1934.75" y="-240.7" font-family="Arial" font-size="14.00">Trabalho de Conclusão de Curso I (TCC)</text>
</g>
<!-- INE5427&#45;&gt;INE5433 -->
<g id="edge52" class="edge">
<title>INE5427&#45;&gt;INE5433</title>
<path fill="none" stroke="#fdb462" stroke-width="2" d="M1733.01,-260.58C1733.01,-260.58 1800.83,-260.58 1800.83,-260.58"/>
<polygon fill="#fdb462" stroke="#fdb462" stroke-width="2" points="1802.33,-258.08 1802.33,-263.08 1801.33,-263.08 1801.33,-258.08 1802.33,-258.08"/>
<polyline fill="none" stroke="#fdb462" stroke-width="2" points="1802.83,-260.58 1800.33,-260.58"/>
</g>
<!-- INE5453&#45;&gt;INE5433 -->
<g id="edge53" class="edge">
<title>INE5453&#45;&gt;INE5433</title>
<path fill="none" stroke="#fdb462" stroke-width="2" d="M1750.5,-216.03C1750.5,-230.46 1750.5,-247.42 1750.5,-247.42 1750.5,-247.42 1800.8,-247.42 1800.8,-247.42"/>
<polygon fill="#fdb462" stroke="#fdb462" stroke-width="2" points="1802.3,-244.92 1802.3,-249.92 1801.3,-249.92 1801.3,-244.92 1802.3,-244.92"/>
<polyline fill="none" stroke="#fdb462" stroke-width="2" points="1802.8,-247.42 1800.3,-247.42"/>
</g>
<!-- INE5434 -->
<g id="node48" class="node">
<title>INE5434</title>
<polygon fill="#ffffb3" stroke="#ffffb3" points="2367.5,-273.75 2101.75,-273.75 2101.75,-234.25 2367.5,-234.25 2367.5,-273.75"/>
<text text-anchor="middle" x="2234.62" y="-256.45" font-family="Arial" font-size="14.00">INE5434</text>
<text text-anchor="middle" x="2234.62" y="-240.7" font-family="Arial" font-size="14.00">Trabalho de Conclusão de Curso II (TCC)</text>
</g>
<!-- INE5433&#45;&gt;INE5434 -->
<g id="edge54" class="edge">
<title>INE5433&#45;&gt;INE5434</title>
<path fill="none" stroke="#8dd3c7" stroke-width="2" d="M2065.84,-254C2065.84,-254 2098.98,-254 2098.98,-254"/>
<polygon fill="#8dd3c7" stroke="#8dd3c7" stroke-width="2" points="2100.48,-251.5 2100.48,-256.5 2099.48,-256.5 2099.48,-251.5 2100.48,-251.5"/>
<polyline fill="none" stroke="#8dd3c7" stroke-width="2" points="2100.98,-254 2098.48,-254"/>
</g>
<!-- INE7011 -->
<g id="node49" class="node">
<title>INE7011</title>
<polygon fill="#bebada" stroke="#bebada" points="2333.38,-331.75 2135.88,-331.75 2135.88,-292.25 2333.38,-292.25 2333.38,-331.75"/>
<text text-anchor="middle" x="2234.62" y="-314.45" font-family="Arial" font-size="14.00">INE7011</text>
<text text-anchor="middle" x="2234.62" y="-298.7" font-family="Arial" font-size="14.00">Atividades Complementares 1</text>
</g>
</g>
</svg>
