<?xml version="1.0" encoding="UTF-8" standalone="no"?>
<!DOCTYPE svg PUBLIC "-//W3C//DTD SVG 1.1//EN"
 "http://www.w3.org/Graphics/SVG/1.1/DTD/svg11.dtd">
<!-- Generated by graphviz version 12.2.1 (0)
 -->
<!-- Title: curriculo Pages: 1 -->
<svg width="2524pt" height="580pt"
 viewBox="0.00 0.00 2524.00 580.00" xmlns="http://www.w3.org/2000/svg" xmlns:xlink="http://www.w3.org/1999/xlink">
<g id="graph0" class="graph" transform="scale(1 1) rotate(0) translate(4 576)">
<title>curriculo</title>
<polygon fill="none" stroke="none" points="-4,4 -4,-576 2520,-576 2520,4 -4,4"/>
<g id="clust1" class="cluster">
<title>cluster_1</title>
<polygon fill="none" stroke="none" points="8,-152 8,-564 382,-564 382,-152 8,-152"/>
</g>
<g id="clust2" class="cluster">
<title>cluster_2</title>
<polygon fill="none" stroke="none" points="390,-152 390,-564 642,-564 642,-152 390,-152"/>
</g>
<g id="clust3" class="cluster">
<title>cluster_3</title>
<polygon fill="none" stroke="none" points="650,-152 650,-564 906,-564 906,-152 650,-152"/>
</g>
<g id="clust4" class="cluster">
<title>cluster_4</title>
<polygon fill="none" stroke="none" points="914,-80 914,-564 1124,-564 1124,-80 914,-80"/>
</g>
<g id="clust5" class="cluster">
<title>cluster_5</title>
<polygon fill="none" stroke="none" points="1132,-80 1132,-564 1386,-564 1386,-80 1132,-80"/>
</g>
<g id="clust6" class="cluster">
<title>cluster_6</title>
<polygon fill="none" stroke="none" points="1394,-8 1394,-564 1710,-564 1710,-8 1394,-8"/>
</g>
<g id="clust7" class="cluster">
<title>cluster_7</title>
<polygon fill="none" stroke="none" points="1718,-152 1718,-564 1996,-564 1996,-152 1718,-152"/>
</g>
<g id="clust8" class="cluster">
<title>cluster_8</title>
<polygon fill="none" stroke="none" points="2004,-440 2004,-564 2286,-564 2286,-440 2004,-440"/>
</g>
<g id="clust9" class="cluster">
<title>cluster_999</title>
<polygon fill="none" stroke="none" points="2294,-440 2294,-564 2508,-564 2508,-440 2294,-440"/>
</g>
<!-- EEL5105 -->
<g id="node1" class="node">
<title>EEL5105</title>
<polygon fill="lightblue" stroke="black" points="287.75,-484 102.25,-484 102.25,-448 287.75,-448 287.75,-484"/>
<text text-anchor="middle" x="195" y="-460.57" font-family="Arial" font-size="14.00">Circuitos e Técnicas Digitais</text>
</g>
<!-- INE5401 -->
<g id="node3" class="node">
<title>INE5401</title>
<polygon fill="lightblue" stroke="black" points="281,-412 109,-412 109,-376 281,-376 281,-412"/>
<text text-anchor="middle" x="195" y="-388.57" font-family="Arial" font-size="14.00">Introdução à Computação</text>
</g>
<!-- EEL5105&#45;&gt;INE5401 -->
<!-- header_1 -->
<g id="node2" class="node">
<title>header_1</title>
<polygon fill="lightgrey" stroke="black" points="245.4,-556 144.6,-556 144.6,-520 245.4,-520 245.4,-556"/>
<text text-anchor="middle" x="195" y="-532.58" font-family="Arial" font-size="14.00">Fase 1</text>
</g>
<!-- header_1&#45;&gt;EEL5105 -->
<!-- INE5402 -->
<g id="node4" class="node">
<title>INE5402</title>
<polygon fill="lightblue" stroke="black" points="310.62,-340 79.38,-340 79.38,-304 310.62,-304 310.62,-340"/>
<text text-anchor="middle" x="195" y="-316.57" font-family="Arial" font-size="14.00">Programação Orientada a Objetos I</text>
</g>
<!-- INE5401&#45;&gt;INE5402 -->
<!-- INE5403 -->
<g id="node5" class="node">
<title>INE5403</title>
<polygon fill="lightblue" stroke="black" points="374,-268 16,-268 16,-232 374,-232 374,-268"/>
<text text-anchor="middle" x="195" y="-244.57" font-family="Arial" font-size="14.00">Fundamentos de Matemática Discreta para Computação</text>
</g>
<!-- INE5402&#45;&gt;INE5403 -->
<!-- MTM3110 -->
<g id="node6" class="node">
<title>MTM3110</title>
<polygon fill="lightblue" stroke="black" points="245.4,-196 144.6,-196 144.6,-160 245.4,-160 245.4,-196"/>
<text text-anchor="middle" x="195" y="-172.57" font-family="Arial" font-size="14.00">Cálculo 1</text>
</g>
<!-- INE5403&#45;&gt;MTM3110 -->
<!-- INE5404 -->
<g id="node7" class="node">
<title>INE5404</title>
<polygon fill="lightblue" stroke="black" points="633.5,-484 398.5,-484 398.5,-448 633.5,-448 633.5,-484"/>
<text text-anchor="middle" x="516" y="-460.57" font-family="Arial" font-size="14.00">Programação Orientada a Objetos II</text>
</g>
<!-- INE5406 -->
<g id="node9" class="node">
<title>INE5406</title>
<polygon fill="lightblue" stroke="black" points="576.12,-412 455.88,-412 455.88,-376 576.12,-376 576.12,-412"/>
<text text-anchor="middle" x="516" y="-388.57" font-family="Arial" font-size="14.00">Sistemas Digitais</text>
</g>
<!-- INE5404&#45;&gt;INE5406 -->
<!-- header_2 -->
<g id="node8" class="node">
<title>header_2</title>
<polygon fill="lightgrey" stroke="black" points="566.4,-556 465.6,-556 465.6,-520 566.4,-520 566.4,-556"/>
<text text-anchor="middle" x="516" y="-532.58" font-family="Arial" font-size="14.00">Fase 2</text>
</g>
<!-- header_2&#45;&gt;INE5404 -->
<!-- INE5407 -->
<g id="node10" class="node">
<title>INE5407</title>
<polygon fill="lightblue" stroke="black" points="621.88,-340 410.12,-340 410.12,-304 621.88,-304 621.88,-340"/>
<text text-anchor="middle" x="516" y="-316.57" font-family="Arial" font-size="14.00">Ciência, Tecnologia e Sociedade</text>
</g>
<!-- INE5406&#45;&gt;INE5407 -->
<!-- MTM3120 -->
<g id="node11" class="node">
<title>MTM3120</title>
<polygon fill="lightblue" stroke="black" points="566.4,-268 465.6,-268 465.6,-232 566.4,-232 566.4,-268"/>
<text text-anchor="middle" x="516" y="-244.57" font-family="Arial" font-size="14.00">Cálculo 2</text>
</g>
<!-- INE5407&#45;&gt;MTM3120 -->
<!-- MTM3121 -->
<g id="node12" class="node">
<title>MTM3121</title>
<polygon fill="lightblue" stroke="black" points="567.88,-196 464.12,-196 464.12,-160 567.88,-160 567.88,-196"/>
<text text-anchor="middle" x="516" y="-172.57" font-family="Arial" font-size="14.00">Álgebra Linear</text>
</g>
<!-- MTM3120&#45;&gt;MTM3121 -->
<!-- INE5202 -->
<g id="node13" class="node">
<title>INE5202</title>
<polygon fill="lightblue" stroke="black" points="897.75,-484 658.25,-484 658.25,-448 897.75,-448 897.75,-484"/>
<text text-anchor="middle" x="778" y="-460.57" font-family="Arial" font-size="14.00">Cálculo Numérico em Computadores</text>
</g>
<!-- INE5408 -->
<g id="node15" class="node">
<title>INE5408</title>
<polygon fill="lightblue" stroke="black" points="847.5,-412 708.5,-412 708.5,-376 847.5,-376 847.5,-412"/>
<text text-anchor="middle" x="778" y="-388.57" font-family="Arial" font-size="14.00">Estruturas de Dados</text>
</g>
<!-- INE5202&#45;&gt;INE5408 -->
<!-- header_3 -->
<g id="node14" class="node">
<title>header_3</title>
<polygon fill="lightgrey" stroke="black" points="828.4,-556 727.6,-556 727.6,-520 828.4,-520 828.4,-556"/>
<text text-anchor="middle" x="778" y="-532.58" font-family="Arial" font-size="14.00">Fase 3</text>
</g>
<!-- header_3&#45;&gt;INE5202 -->
<!-- INE5410 -->
<g id="node16" class="node">
<title>INE5410</title>
<polygon fill="lightblue" stroke="black" points="865.88,-340 690.12,-340 690.12,-304 865.88,-304 865.88,-340"/>
<text text-anchor="middle" x="778" y="-316.57" font-family="Arial" font-size="14.00">Programação Concorrente</text>
</g>
<!-- INE5408&#45;&gt;INE5410 -->
<!-- INE5411 -->
<g id="node17" class="node">
<title>INE5411</title>
<polygon fill="lightblue" stroke="black" points="884.25,-268 671.75,-268 671.75,-232 884.25,-232 884.25,-268"/>
<text text-anchor="middle" x="778" y="-244.57" font-family="Arial" font-size="14.00">Organização de Computadores I</text>
</g>
<!-- INE5410&#45;&gt;INE5411 -->
<!-- MTM3131 -->
<g id="node18" class="node">
<title>MTM3131</title>
<polygon fill="lightblue" stroke="black" points="886.5,-196 669.5,-196 669.5,-160 886.5,-160 886.5,-196"/>
<text text-anchor="middle" x="778" y="-172.57" font-family="Arial" font-size="14.00">Equações Diferenciais Ordinárias</text>
</g>
<!-- INE5411&#45;&gt;MTM3131 -->
<!-- INE5412 -->
<g id="node19" class="node">
<title>INE5412</title>
<polygon fill="lightblue" stroke="black" points="1100.88,-484 937.12,-484 937.12,-448 1100.88,-448 1100.88,-484"/>
<text text-anchor="middle" x="1019" y="-460.57" font-family="Arial" font-size="14.00">Sistemas Operacionais I</text>
</g>
<!-- INE5413 -->
<g id="node21" class="node">
<title>INE5413</title>
<polygon fill="lightblue" stroke="black" points="1069.4,-412 968.6,-412 968.6,-376 1069.4,-376 1069.4,-412"/>
<text text-anchor="middle" x="1019" y="-388.57" font-family="Arial" font-size="14.00">Grafos</text>
</g>
<!-- INE5412&#45;&gt;INE5413 -->
<!-- header_4 -->
<g id="node20" class="node">
<title>header_4</title>
<polygon fill="lightgrey" stroke="black" points="1069.4,-556 968.6,-556 968.6,-520 1069.4,-520 1069.4,-556"/>
<text text-anchor="middle" x="1019" y="-532.58" font-family="Arial" font-size="14.00">Fase 4</text>
</g>
<!-- header_4&#45;&gt;INE5412 -->
<!-- INE5414 -->
<g id="node22" class="node">
<title>INE5414</title>
<polygon fill="lightblue" stroke="black" points="1106.12,-340 931.88,-340 931.88,-304 1106.12,-304 1106.12,-340"/>
<text text-anchor="middle" x="1019" y="-316.57" font-family="Arial" font-size="14.00">Redes de Computadores I</text>
</g>
<!-- INE5413&#45;&gt;INE5414 -->
<!-- INE5415 -->
<g id="node23" class="node">
<title>INE5415</title>
<polygon fill="lightblue" stroke="black" points="1095.25,-268 942.75,-268 942.75,-232 1095.25,-232 1095.25,-268"/>
<text text-anchor="middle" x="1019" y="-244.57" font-family="Arial" font-size="14.00">Teoria da Computação</text>
</g>
<!-- INE5414&#45;&gt;INE5415 -->
<!-- INE5416 -->
<g id="node24" class="node">
<title>INE5416</title>
<polygon fill="lightblue" stroke="black" points="1115.5,-196 922.5,-196 922.5,-160 1115.5,-160 1115.5,-196"/>
<text text-anchor="middle" x="1019" y="-172.57" font-family="Arial" font-size="14.00">Paradigmas de Programação</text>
</g>
<!-- INE5415&#45;&gt;INE5416 -->
<!-- INE5417 -->
<g id="node25" class="node">
<title>INE5417</title>
<polygon fill="lightblue" stroke="black" points="1103.12,-124 934.88,-124 934.88,-88 1103.12,-88 1103.12,-124"/>
<text text-anchor="middle" x="1019" y="-100.58" font-family="Arial" font-size="14.00">Engenharia de Software I</text>
</g>
<!-- INE5416&#45;&gt;INE5417 -->
<!-- INE5405 -->
<g id="node26" class="node">
<title>INE5405</title>
<polygon fill="lightblue" stroke="black" points="1346.88,-484 1171.12,-484 1171.12,-448 1346.88,-448 1346.88,-484"/>
<text text-anchor="middle" x="1259" y="-460.57" font-family="Arial" font-size="14.00">Probabilidade e Estatística</text>
</g>
<!-- INE5418 -->
<g id="node28" class="node">
<title>INE5418</title>
<polygon fill="lightblue" stroke="black" points="1339.75,-412 1178.25,-412 1178.25,-376 1339.75,-376 1339.75,-412"/>
<text text-anchor="middle" x="1259" y="-388.57" font-family="Arial" font-size="14.00">Computação Distribuída</text>
</g>
<!-- INE5405&#45;&gt;INE5418 -->
<!-- header_5 -->
<g id="node27" class="node">
<title>header_5</title>
<polygon fill="lightgrey" stroke="black" points="1309.4,-556 1208.6,-556 1208.6,-520 1309.4,-520 1309.4,-556"/>
<text text-anchor="middle" x="1259" y="-532.58" font-family="Arial" font-size="14.00">Fase 5</text>
</g>
<!-- header_5&#45;&gt;INE5405 -->
<!-- INE5419 -->
<g id="node29" class="node">
<title>INE5419</title>
<polygon fill="lightblue" stroke="black" points="1345,-340 1173,-340 1173,-304 1345,-304 1345,-340"/>
<text text-anchor="middle" x="1259" y="-316.57" font-family="Arial" font-size="14.00">Engenharia de Software II</text>
</g>
<!-- INE5418&#45;&gt;INE5419 -->
<!-- INE5420 -->
<g id="node30" class="node">
<title>INE5420</title>
<polygon fill="lightblue" stroke="black" points="1329.62,-268 1188.38,-268 1188.38,-232 1329.62,-232 1329.62,-268"/>
<text text-anchor="middle" x="1259" y="-244.57" font-family="Arial" font-size="14.00">Computação Gráfica</text>
</g>
<!-- INE5419&#45;&gt;INE5420 -->
<!-- INE5421 -->
<g id="node31" class="node">
<title>INE5421</title>
<polygon fill="lightblue" stroke="black" points="1378,-196 1140,-196 1140,-160 1378,-160 1378,-196"/>
<text text-anchor="middle" x="1259" y="-172.57" font-family="Arial" font-size="14.00">Linguagens Formais e Compiladores</text>
</g>
<!-- INE5420&#45;&gt;INE5421 -->
<!-- INE5422 -->
<g id="node32" class="node">
<title>INE5422</title>
<polygon fill="lightblue" stroke="black" points="1348,-124 1170,-124 1170,-88 1348,-88 1348,-124"/>
<text text-anchor="middle" x="1259" y="-100.58" font-family="Arial" font-size="14.00">Redes de Computadores II</text>
</g>
<!-- INE5421&#45;&gt;INE5422 -->
<!-- INE5423 -->
<g id="node33" class="node">
<title>INE5423</title>
<polygon fill="lightblue" stroke="black" points="1613.62,-484 1490.38,-484 1490.38,-448 1613.62,-448 1613.62,-484"/>
<text text-anchor="middle" x="1552" y="-460.57" font-family="Arial" font-size="14.00">Banco de Dados I</text>
</g>
<!-- INE5424 -->
<g id="node35" class="node">
<title>INE5424</title>
<polygon fill="lightblue" stroke="black" points="1635.75,-412 1468.25,-412 1468.25,-376 1635.75,-376 1635.75,-412"/>
<text text-anchor="middle" x="1552" y="-388.57" font-family="Arial" font-size="14.00">Sistemas Operacionais II</text>
</g>
<!-- INE5423&#45;&gt;INE5424 -->
<!-- header_6 -->
<g id="node34" class="node">
<title>header_6</title>
<polygon fill="lightgrey" stroke="black" points="1602.4,-556 1501.6,-556 1501.6,-520 1602.4,-520 1602.4,-556"/>
<text text-anchor="middle" x="1552" y="-532.58" font-family="Arial" font-size="14.00">Fase 6</text>
</g>
<!-- header_6&#45;&gt;INE5423 -->
<!-- INE5425 -->
<g id="node36" class="node">
<title>INE5425</title>
<polygon fill="lightblue" stroke="black" points="1635.38,-340 1468.62,-340 1468.62,-304 1635.38,-304 1635.38,-340"/>
<text text-anchor="middle" x="1552" y="-316.57" font-family="Arial" font-size="14.00">Modelagem e Simulação</text>
</g>
<!-- INE5424&#45;&gt;INE5425 -->
<!-- INE5426 -->
<g id="node37" class="node">
<title>INE5426</title>
<polygon fill="lightblue" stroke="black" points="1647.75,-268 1456.25,-268 1456.25,-232 1647.75,-232 1647.75,-268"/>
<text text-anchor="middle" x="1552" y="-244.57" font-family="Arial" font-size="14.00">Construção de Compiladores</text>
</g>
<!-- INE5425&#45;&gt;INE5426 -->
<!-- INE5427 -->
<g id="node38" class="node">
<title>INE5427</title>
<polygon fill="lightblue" stroke="black" points="1667.25,-196 1436.75,-196 1436.75,-160 1667.25,-160 1667.25,-196"/>
<text text-anchor="middle" x="1552" y="-172.57" font-family="Arial" font-size="14.00">Planejamento e Gestão de Projetos</text>
</g>
<!-- INE5426&#45;&gt;INE5427 -->
<!-- INE5430 -->
<g id="node39" class="node">
<title>INE5430</title>
<polygon fill="lightblue" stroke="black" points="1619.25,-124 1484.75,-124 1484.75,-88 1619.25,-88 1619.25,-124"/>
<text text-anchor="middle" x="1552" y="-100.58" font-family="Arial" font-size="14.00">Inteligência Artificial</text>
</g>
<!-- INE5427&#45;&gt;INE5430 -->
<!-- INE5453 -->
<g id="node40" class="node">
<title>INE5453</title>
<polygon fill="lightblue" stroke="black" points="1702.12,-52 1401.88,-52 1401.88,-16 1702.12,-16 1702.12,-52"/>
<text text-anchor="middle" x="1552" y="-28.57" font-family="Arial" font-size="14.00">Introdução ao Trabalho de Conclusão de Curso</text>
</g>
<!-- INE5430&#45;&gt;INE5453 -->
<!-- INE5428 -->
<g id="node41" class="node">
<title>INE5428</title>
<polygon fill="lightblue" stroke="black" points="1938.12,-484 1775.88,-484 1775.88,-448 1938.12,-448 1938.12,-484"/>
<text text-anchor="middle" x="1857" y="-460.57" font-family="Arial" font-size="14.00">Informática e Sociedade</text>
</g>
<!-- INE5429 -->
<g id="node43" class="node">
<title>INE5429</title>
<polygon fill="lightblue" stroke="black" points="1949.75,-412 1764.25,-412 1764.25,-376 1949.75,-376 1949.75,-412"/>
<text text-anchor="middle" x="1857" y="-388.57" font-family="Arial" font-size="14.00">Segurança em Computação</text>
</g>
<!-- INE5428&#45;&gt;INE5429 -->
<!-- header_7 -->
<g id="node42" class="node">
<title>header_7</title>
<polygon fill="lightgrey" stroke="black" points="1907.4,-556 1806.6,-556 1806.6,-520 1907.4,-520 1907.4,-556"/>
<text text-anchor="middle" x="1857" y="-532.58" font-family="Arial" font-size="14.00">Fase 7</text>
</g>
<!-- header_7&#45;&gt;INE5428 -->
<!-- INE5431 -->
<g id="node44" class="node">
<title>INE5431</title>
<polygon fill="lightblue" stroke="black" points="1926.5,-340 1787.5,-340 1787.5,-304 1926.5,-304 1926.5,-340"/>
<text text-anchor="middle" x="1857" y="-316.57" font-family="Arial" font-size="14.00">Sistemas Multimídia</text>
</g>
<!-- INE5429&#45;&gt;INE5431 -->
<!-- INE5432 -->
<g id="node45" class="node">
<title>INE5432</title>
<polygon fill="lightblue" stroke="black" points="1920.5,-268 1793.5,-268 1793.5,-232 1920.5,-232 1920.5,-268"/>
<text text-anchor="middle" x="1857" y="-244.57" font-family="Arial" font-size="14.00">Banco de Dados II</text>
</g>
<!-- INE5431&#45;&gt;INE5432 -->
<!-- INE5433 -->
<g id="node46" class="node">
<title>INE5433</title>
<polygon fill="lightblue" stroke="black" points="1988,-196 1726,-196 1726,-160 1988,-160 1988,-196"/>
<text text-anchor="middle" x="1857" y="-172.57" font-family="Arial" font-size="14.00">Trabalho de Conclusão de Curso I (TCC)</text>
</g>
<!-- INE5432&#45;&gt;INE5433 -->
<!-- INE5434 -->
<g id="node47" class="node">
<title>INE5434</title>
<polygon fill="lightblue" stroke="black" points="2277.88,-484 2012.12,-484 2012.12,-448 2277.88,-448 2277.88,-484"/>
<text text-anchor="middle" x="2145" y="-460.57" font-family="Arial" font-size="14.00">Trabalho de Conclusão de Curso II (TCC)</text>
</g>
<!-- header_8 -->
<g id="node48" class="node">
<title>header_8</title>
<polygon fill="lightgrey" stroke="black" points="2195.4,-556 2094.6,-556 2094.6,-520 2195.4,-520 2195.4,-556"/>
<text text-anchor="middle" x="2145" y="-532.58" font-family="Arial" font-size="14.00">Fase 8</text>
</g>
<!-- header_8&#45;&gt;INE5434 -->
<!-- INE7011 -->
<g id="node49" class="node">
<title>INE7011</title>
<polygon fill="lightblue" stroke="black" points="2499.75,-484 2302.25,-484 2302.25,-448 2499.75,-448 2499.75,-484"/>
<text text-anchor="middle" x="2401" y="-460.57" font-family="Arial" font-size="14.00">Atividades Complementares 1</text>
</g>
<!-- header_999 -->
<g id="node50" class="node">
<title>header_999</title>
<polygon fill="lightgrey" stroke="black" points="2451.4,-556 2350.6,-556 2350.6,-520 2451.4,-520 2451.4,-556"/>
<text text-anchor="middle" x="2401" y="-532.58" font-family="Arial" font-size="14.00">Fase 999</text>
</g>
<!-- header_999&#45;&gt;INE7011 -->
</g>
</svg>
