<?xml version="1.0" encoding="UTF-8" standalone="no"?>
<!DOCTYPE svg PUBLIC "-//W3C//DTD SVG 1.1//EN"
 "http://www.w3.org/Graphics/SVG/1.1/DTD/svg11.dtd">
<!-- Generated by graphviz version 12.2.1 (20241206.2353)
 -->
<!-- Title: curriculo Pages: 1 -->
<svg width="3014pt" height="1080pt"
 viewBox="0.00 0.00 3013.60 1080.00" xmlns="http://www.w3.org/2000/svg" xmlns:xlink="http://www.w3.org/1999/xlink">
<g id="graph0" class="graph" transform="scale(1 1) rotate(0) translate(4 1076)">
<title>curriculo</title>
<polygon fill="none" stroke="none" points="-4,4 -4,-1076 3009.6,-1076 3009.6,4 -4,4"/>
<g id="clust1" class="cluster">
<title>cluster_1</title>
<polygon fill="none" stroke="none" points="8,-8 8,-60 808.8,-60 808.8,-8 8,-8"/>
</g>
<g id="clust2" class="cluster">
<title>cluster_2</title>
<polygon fill="none" stroke="none" points="418.4,-312 418.4,-364 1219.2,-364 1219.2,-312 418.4,-312"/>
</g>
<g id="clust3" class="cluster">
<title>cluster_3</title>
<polygon fill="none" stroke="none" points="965.6,-540 965.6,-592 1766.4,-592 1766.4,-540 965.6,-540"/>
</g>
<g id="clust4" class="cluster">
<title>cluster_4</title>
<polygon fill="none" stroke="none" points="1376,-670 1376,-722 2313.6,-722 2313.6,-670 1376,-670"/>
</g>
<g id="clust5" class="cluster">
<title>cluster_5</title>
<polygon fill="none" stroke="none" points="1649.6,-762 1649.6,-814 2587.2,-814 2587.2,-762 1649.6,-762"/>
</g>
<g id="clust6" class="cluster">
<title>cluster_6</title>
<polygon fill="none" stroke="none" points="1649.6,-892 1649.6,-944 2724,-944 2724,-892 1649.6,-892"/>
</g>
<g id="clust7" class="cluster">
<title>cluster_7</title>
<polygon fill="none" stroke="none" points="2060,-952 2060,-1004 2860.8,-1004 2860.8,-952 2060,-952"/>
</g>
<g id="clust8" class="cluster">
<title>cluster_8</title>
<polygon fill="none" stroke="none" points="2744,-1012 2744,-1064 2997.6,-1064 2997.6,-1012 2744,-1012"/>
</g>
<g id="clust9" class="cluster">
<title>cluster_999</title>
<polygon fill="none" stroke="none" points="8,-540 8,-592 261.6,-592 261.6,-540 8,-540"/>
</g>
<!-- EEL5105 -->
<g id="node1" class="node">
<title>EEL5105</title>
<polygon fill="lightblue" stroke="black" points="253.6,-52 152.8,-52 152.8,-16 253.6,-16 253.6,-52"/>
<text text-anchor="middle" x="203.2" y="-28.57" font-family="Arial" font-size="14.00">EEL5105</text>
</g>
<!-- INE5401 -->
<g id="node3" class="node">
<title>INE5401</title>
<polygon fill="lightblue" stroke="black" points="390.4,-52 289.6,-52 289.6,-16 390.4,-16 390.4,-52"/>
<text text-anchor="middle" x="340" y="-28.57" font-family="Arial" font-size="14.00">INE5401</text>
</g>
<!-- EEL5105&#45;&gt;INE5401 -->
<!-- INE5406 -->
<g id="node9" class="node">
<title>INE5406</title>
<polygon fill="lightblue" stroke="black" points="800.8,-356 700,-356 700,-320 800.8,-320 800.8,-356"/>
<text text-anchor="middle" x="750.4" y="-332.57" font-family="Arial" font-size="14.00">INE5406</text>
</g>
<!-- EEL5105&#45;&gt;INE5406 -->
<g id="edge43" class="edge">
<title>EEL5105&#45;&gt;INE5406</title>
<path fill="none" stroke="black" stroke-width="2" d="M203.6,-52.15C203.6,-100.84 203.6,-230.67 203.6,-230.67 203.6,-230.67 750.6,-230.67 750.6,-230.67 750.6,-230.67 750.6,-317.29 750.6,-317.29"/>
<polygon fill="black" stroke="black" stroke-width="2" points="753.1,-318.79 748.1,-318.79 748.1,-317.79 753.1,-317.79 753.1,-318.79"/>
<polyline fill="none" stroke="black" stroke-width="2" points="750.6,-319.29 750.6,-316.79"/>
</g>
<!-- header_1 -->
<g id="node2" class="node">
<title>header_1</title>
<polygon fill="lightgrey" stroke="black" points="116.8,-52 16,-52 16,-16 116.8,-16 116.8,-52"/>
<text text-anchor="middle" x="66.4" y="-28.57" font-family="Arial" font-size="14.00">Fase 1</text>
</g>
<!-- header_1&#45;&gt;EEL5105 -->
<!-- INE5402 -->
<g id="node4" class="node">
<title>INE5402</title>
<polygon fill="lightblue" stroke="black" points="527.2,-52 426.4,-52 426.4,-16 527.2,-16 527.2,-52"/>
<text text-anchor="middle" x="476.8" y="-28.57" font-family="Arial" font-size="14.00">INE5402</text>
</g>
<!-- INE5401&#45;&gt;INE5402 -->
<!-- INE5403 -->
<g id="node5" class="node">
<title>INE5403</title>
<polygon fill="lightblue" stroke="black" points="664,-52 563.2,-52 563.2,-16 664,-16 664,-52"/>
<text text-anchor="middle" x="613.6" y="-28.57" font-family="Arial" font-size="14.00">INE5403</text>
</g>
<!-- INE5402&#45;&gt;INE5403 -->
<!-- INE5404 -->
<g id="node7" class="node">
<title>INE5404</title>
<polygon fill="lightblue" stroke="black" points="664,-356 563.2,-356 563.2,-320 664,-320 664,-356"/>
<text text-anchor="middle" x="613.6" y="-332.57" font-family="Arial" font-size="14.00">INE5404</text>
</g>
<!-- INE5402&#45;&gt;INE5404 -->
<g id="edge42" class="edge">
<title>INE5402&#45;&gt;INE5404</title>
<path fill="none" stroke="black" stroke-width="2" d="M527.52,-34C540.86,-34 551.6,-34 551.6,-34 551.6,-34 551.6,-332 551.6,-332 551.6,-332 560.47,-332 560.47,-332"/>
<polygon fill="black" stroke="black" stroke-width="2" points="561.97,-329.5 561.97,-334.5 560.97,-334.5 560.97,-329.5 561.97,-329.5"/>
<polyline fill="none" stroke="black" stroke-width="2" points="562.47,-332 559.97,-332"/>
</g>
<!-- INE5202 -->
<g id="node13" class="node">
<title>INE5202</title>
<polygon fill="lightblue" stroke="black" points="1211.2,-584 1110.4,-584 1110.4,-548 1211.2,-548 1211.2,-584"/>
<text text-anchor="middle" x="1160.8" y="-560.58" font-family="Arial" font-size="14.00">INE5202</text>
</g>
<!-- INE5402&#45;&gt;INE5202 -->
<g id="edge45" class="edge">
<title>INE5402&#45;&gt;INE5202</title>
<path fill="none" stroke="black" stroke-width="2" d="M527.49,-43C534.63,-43 539.6,-43 539.6,-43 539.6,-43 539.6,-520.57 539.6,-520.57 539.6,-520.57 1143.6,-520.57 1143.6,-520.57 1143.6,-520.57 1143.6,-545.02 1143.6,-545.02"/>
<polygon fill="black" stroke="black" stroke-width="2" points="1146.1,-546.52 1141.1,-546.52 1141.1,-545.52 1146.1,-545.52 1146.1,-546.52"/>
<polyline fill="none" stroke="black" stroke-width="2" points="1143.6,-547.02 1143.6,-544.52"/>
</g>
<!-- MTM3110 -->
<g id="node6" class="node">
<title>MTM3110</title>
<polygon fill="lightblue" stroke="black" points="800.8,-52 700,-52 700,-16 800.8,-16 800.8,-52"/>
<text text-anchor="middle" x="750.4" y="-28.57" font-family="Arial" font-size="14.00">MTM3110</text>
</g>
<!-- INE5403&#45;&gt;MTM3110 -->
<!-- INE5413 -->
<g id="node21" class="node">
<title>INE5413</title>
<polygon fill="lightblue" stroke="black" points="1758.4,-714 1657.6,-714 1657.6,-678 1758.4,-678 1758.4,-714"/>
<text text-anchor="middle" x="1708" y="-690.58" font-family="Arial" font-size="14.00">INE5413</text>
</g>
<!-- INE5403&#45;&gt;INE5413 -->
<g id="edge55" class="edge">
<title>INE5403&#45;&gt;INE5413</title>
<path fill="none" stroke="black" stroke-width="2" d="M664.19,-34C677.19,-34 687.6,-34 687.6,-34 687.6,-34 687.6,-662.33 687.6,-662.33 687.6,-662.33 1691.6,-662.33 1691.6,-662.33 1691.6,-662.33 1691.6,-675.09 1691.6,-675.09"/>
<polygon fill="black" stroke="black" stroke-width="2" points="1694.1,-676.59 1689.1,-676.59 1689.1,-675.59 1694.1,-675.59 1694.1,-676.59"/>
<polyline fill="none" stroke="black" stroke-width="2" points="1691.6,-677.09 1691.6,-674.59"/>
</g>
<!-- INE5415 -->
<g id="node23" class="node">
<title>INE5415</title>
<polygon fill="lightblue" stroke="black" points="2032,-714 1931.2,-714 1931.2,-678 2032,-678 2032,-714"/>
<text text-anchor="middle" x="1981.6" y="-690.58" font-family="Arial" font-size="14.00">INE5415</text>
</g>
<!-- INE5403&#45;&gt;INE5415 -->
<g id="edge58" class="edge">
<title>INE5403&#45;&gt;INE5415</title>
<path fill="none" stroke="black" stroke-width="2" d="M613.6,-52.21C613.6,-82.83 613.6,-141.33 613.6,-141.33 613.6,-141.33 1964.6,-141.33 1964.6,-141.33 1964.6,-141.33 1964.6,-675.05 1964.6,-675.05"/>
<polygon fill="black" stroke="black" stroke-width="2" points="1967.1,-676.55 1962.1,-676.55 1962.1,-675.55 1967.1,-675.55 1967.1,-676.55"/>
<polyline fill="none" stroke="black" stroke-width="2" points="1964.6,-677.05 1964.6,-674.55"/>
</g>
<!-- INE5429 -->
<g id="node43" class="node">
<title>INE5429</title>
<polygon fill="lightblue" stroke="black" points="2442.4,-996 2341.6,-996 2341.6,-960 2442.4,-960 2442.4,-996"/>
<text text-anchor="middle" x="2392" y="-972.58" font-family="Arial" font-size="14.00">INE5429</text>
</g>
<!-- INE5403&#45;&gt;INE5429 -->
<g id="edge82" class="edge">
<title>INE5403&#45;&gt;INE5429</title>
<path fill="none" stroke="black" stroke-width="2" d="M664.23,-43C670.96,-43 675.6,-43 675.6,-43 675.6,-43 675.6,-950.4 675.6,-950.4 675.6,-950.4 2375.6,-950.4 2375.6,-950.4 2375.6,-950.4 2375.6,-957.24 2375.6,-957.24"/>
<polygon fill="black" stroke="black" stroke-width="2" points="2378.1,-958.74 2373.1,-958.74 2373.1,-957.74 2378.1,-957.74 2378.1,-958.74"/>
<polyline fill="none" stroke="black" stroke-width="2" points="2375.6,-959.24 2375.6,-956.74"/>
</g>
<!-- MTM3120 -->
<g id="node11" class="node">
<title>MTM3120</title>
<polygon fill="lightblue" stroke="black" points="1074.4,-356 973.6,-356 973.6,-320 1074.4,-320 1074.4,-356"/>
<text text-anchor="middle" x="1024" y="-332.57" font-family="Arial" font-size="14.00">MTM3120</text>
</g>
<!-- MTM3110&#45;&gt;MTM3120 -->
<g id="edge44" class="edge">
<title>MTM3110&#45;&gt;MTM3120</title>
<path fill="none" stroke="black" stroke-width="2" d="M801.15,-40C880.15,-40 1023.6,-40 1023.6,-40 1023.6,-40 1023.6,-317.31 1023.6,-317.31"/>
<polygon fill="black" stroke="black" stroke-width="2" points="1026.1,-318.81 1021.1,-318.81 1021.1,-317.81 1026.1,-317.81 1026.1,-318.81"/>
<polyline fill="none" stroke="black" stroke-width="2" points="1023.6,-319.31 1023.6,-316.81"/>
</g>
<!-- INE5405 -->
<g id="node26" class="node">
<title>INE5405</title>
<polygon fill="lightblue" stroke="black" points="1895.2,-806 1794.4,-806 1794.4,-770 1895.2,-770 1895.2,-806"/>
<text text-anchor="middle" x="1844.8" y="-782.58" font-family="Arial" font-size="14.00">INE5405</text>
</g>
<!-- MTM3110&#45;&gt;INE5405 -->
<g id="edge62" class="edge">
<title>MTM3110&#45;&gt;INE5405</title>
<path fill="none" stroke="black" stroke-width="2" d="M801.29,-28C1008.36,-28 1776.6,-28 1776.6,-28 1776.6,-28 1776.6,-782 1776.6,-782 1776.6,-782 1791.66,-782 1791.66,-782"/>
<polygon fill="black" stroke="black" stroke-width="2" points="1793.16,-779.5 1793.16,-784.5 1792.16,-784.5 1792.16,-779.5 1793.16,-779.5"/>
<polyline fill="none" stroke="black" stroke-width="2" points="1793.66,-782 1791.16,-782"/>
</g>
<!-- INE5404&#45;&gt;INE5406 -->
<!-- INE5408 -->
<g id="node15" class="node">
<title>INE5408</title>
<polygon fill="lightblue" stroke="black" points="1348,-584 1247.2,-584 1247.2,-548 1348,-548 1348,-584"/>
<text text-anchor="middle" x="1297.6" y="-560.58" font-family="Arial" font-size="14.00">INE5408</text>
</g>
<!-- INE5404&#45;&gt;INE5408 -->
<g id="edge48" class="edge">
<title>INE5404&#45;&gt;INE5408</title>
<path fill="none" stroke="black" stroke-width="2" d="M588.6,-356.41C588.6,-397.5 588.6,-493.14 588.6,-493.14 588.6,-493.14 1297.6,-493.14 1297.6,-493.14 1297.6,-493.14 1297.6,-545.12 1297.6,-545.12"/>
<polygon fill="black" stroke="black" stroke-width="2" points="1300.1,-546.62 1295.1,-546.61 1295.1,-545.61 1300.1,-545.62 1300.1,-546.62"/>
<polyline fill="none" stroke="black" stroke-width="2" points="1297.6,-547.12 1297.6,-544.62"/>
</g>
<!-- INE5410 -->
<g id="node16" class="node">
<title>INE5410</title>
<polygon fill="lightblue" stroke="black" points="1484.8,-584 1384,-584 1384,-548 1484.8,-548 1484.8,-584"/>
<text text-anchor="middle" x="1434.4" y="-560.58" font-family="Arial" font-size="14.00">INE5410</text>
</g>
<!-- INE5404&#45;&gt;INE5410 -->
<g id="edge49" class="edge">
<title>INE5404&#45;&gt;INE5410</title>
<path fill="none" stroke="black" stroke-width="2" d="M613.6,-356.3C613.6,-391.61 613.6,-465.71 613.6,-465.71 613.6,-465.71 1434.6,-465.71 1434.6,-465.71 1434.6,-465.71 1434.6,-545.11 1434.6,-545.11"/>
<polygon fill="black" stroke="black" stroke-width="2" points="1437.1,-546.61 1432.1,-546.61 1432.1,-545.61 1437.1,-545.61 1437.1,-546.61"/>
<polyline fill="none" stroke="black" stroke-width="2" points="1434.6,-547.11 1434.6,-544.61"/>
</g>
<!-- INE5414 -->
<g id="node22" class="node">
<title>INE5414</title>
<polygon fill="lightblue" stroke="black" points="1895.2,-714 1794.4,-714 1794.4,-678 1895.2,-678 1895.2,-714"/>
<text text-anchor="middle" x="1844.8" y="-690.58" font-family="Arial" font-size="14.00">INE5414</text>
</g>
<!-- INE5404&#45;&gt;INE5414 -->
<g id="edge57" class="edge">
<title>INE5404&#45;&gt;INE5414</title>
<path fill="none" stroke="black" stroke-width="2" d="M638.6,-356.48C638.6,-369.05 638.6,-383.43 638.6,-383.43 638.6,-383.43 1844.6,-383.43 1844.6,-383.43 1844.6,-383.43 1844.6,-675.34 1844.6,-675.34"/>
<polygon fill="black" stroke="black" stroke-width="2" points="1847.1,-676.84 1842.1,-676.84 1842.1,-675.84 1847.1,-675.84 1847.1,-676.84"/>
<polyline fill="none" stroke="black" stroke-width="2" points="1844.6,-677.34 1844.6,-674.84"/>
</g>
<!-- header_2 -->
<g id="node8" class="node">
<title>header_2</title>
<polygon fill="lightgrey" stroke="black" points="527.2,-356 426.4,-356 426.4,-320 527.2,-320 527.2,-356"/>
<text text-anchor="middle" x="476.8" y="-332.57" font-family="Arial" font-size="14.00">Fase 2</text>
</g>
<!-- header_2&#45;&gt;INE5404 -->
<!-- INE5407 -->
<g id="node10" class="node">
<title>INE5407</title>
<polygon fill="lightblue" stroke="black" points="937.6,-356 836.8,-356 836.8,-320 937.6,-320 937.6,-356"/>
<text text-anchor="middle" x="887.2" y="-332.57" font-family="Arial" font-size="14.00">INE5407</text>
</g>
<!-- INE5406&#45;&gt;INE5407 -->
<!-- INE5411 -->
<g id="node17" class="node">
<title>INE5411</title>
<polygon fill="lightblue" stroke="black" points="1621.6,-584 1520.8,-584 1520.8,-548 1621.6,-548 1621.6,-584"/>
<text text-anchor="middle" x="1571.2" y="-560.58" font-family="Arial" font-size="14.00">INE5411</text>
</g>
<!-- INE5406&#45;&gt;INE5411 -->
<g id="edge50" class="edge">
<title>INE5406&#45;&gt;INE5411</title>
<path fill="none" stroke="black" stroke-width="2" d="M750.6,-356.39C750.6,-385.35 750.6,-438.29 750.6,-438.29 750.6,-438.29 1571.6,-438.29 1571.6,-438.29 1571.6,-438.29 1571.6,-545.2 1571.6,-545.2"/>
<polygon fill="black" stroke="black" stroke-width="2" points="1574.1,-546.7 1569.1,-546.7 1569.1,-545.7 1574.1,-545.7 1574.1,-546.7"/>
<polyline fill="none" stroke="black" stroke-width="2" points="1571.6,-547.2 1571.6,-544.7"/>
</g>
<!-- INE5407&#45;&gt;MTM3120 -->
<!-- INE5428 -->
<g id="node41" class="node">
<title>INE5428</title>
<polygon fill="lightblue" stroke="black" points="2305.6,-996 2204.8,-996 2204.8,-960 2305.6,-960 2305.6,-996"/>
<text text-anchor="middle" x="2255.2" y="-972.58" font-family="Arial" font-size="14.00">INE5428</text>
</g>
<!-- INE5407&#45;&gt;INE5428 -->
<g id="edge81" class="edge">
<title>INE5407&#45;&gt;INE5428</title>
<path fill="none" stroke="black" stroke-width="2" d="M887.6,-356.47C887.6,-459.17 887.6,-955.2 887.6,-955.2 887.6,-955.2 2255.6,-955.2 2255.6,-955.2 2255.6,-955.2 2255.6,-957.1 2255.6,-957.1"/>
<polygon fill="black" stroke="black" stroke-width="2" points="2258.1,-958.6 2253.1,-958.6 2253.1,-957.6 2258.1,-957.6 2258.1,-958.6"/>
<polyline fill="none" stroke="black" stroke-width="2" points="2255.6,-959.1 2255.6,-956.6"/>
</g>
<!-- MTM3121 -->
<g id="node12" class="node">
<title>MTM3121</title>
<polygon fill="lightblue" stroke="black" points="1211.2,-356 1110.4,-356 1110.4,-320 1211.2,-320 1211.2,-356"/>
<text text-anchor="middle" x="1160.8" y="-332.57" font-family="Arial" font-size="14.00">MTM3121</text>
</g>
<!-- MTM3120&#45;&gt;MTM3121 -->
<!-- MTM3120&#45;&gt;INE5202 -->
<g id="edge46" class="edge">
<title>MTM3120&#45;&gt;INE5202</title>
<path fill="none" stroke="black" stroke-width="2" d="M1074.59,-338C1087.89,-338 1098.6,-338 1098.6,-338 1098.6,-338 1098.6,-560 1098.6,-560 1098.6,-560 1107.51,-560 1107.51,-560"/>
<polygon fill="black" stroke="black" stroke-width="2" points="1109.01,-557.5 1109.01,-562.5 1108.01,-562.5 1108.01,-557.5 1109.01,-557.5"/>
<polyline fill="none" stroke="black" stroke-width="2" points="1109.51,-560 1107.01,-560"/>
</g>
<!-- MTM3131 -->
<g id="node18" class="node">
<title>MTM3131</title>
<polygon fill="lightblue" stroke="black" points="1758.4,-584 1657.6,-584 1657.6,-548 1758.4,-548 1758.4,-584"/>
<text text-anchor="middle" x="1708" y="-560.58" font-family="Arial" font-size="14.00">MTM3131</text>
</g>
<!-- MTM3120&#45;&gt;MTM3131 -->
<g id="edge51" class="edge">
<title>MTM3120&#45;&gt;MTM3131</title>
<path fill="none" stroke="black" stroke-width="2" d="M1023.6,-356.38C1023.6,-377.97 1023.6,-410.86 1023.6,-410.86 1023.6,-410.86 1691.6,-410.86 1691.6,-410.86 1691.6,-410.86 1691.6,-545.09 1691.6,-545.09"/>
<polygon fill="black" stroke="black" stroke-width="2" points="1694.1,-546.59 1689.1,-546.59 1689.1,-545.59 1694.1,-545.59 1694.1,-546.59"/>
<polyline fill="none" stroke="black" stroke-width="2" points="1691.6,-547.09 1691.6,-544.59"/>
</g>
<!-- INE5420 -->
<g id="node30" class="node">
<title>INE5420</title>
<polygon fill="lightblue" stroke="black" points="2305.6,-806 2204.8,-806 2204.8,-770 2305.6,-770 2305.6,-806"/>
<text text-anchor="middle" x="2255.2" y="-782.58" font-family="Arial" font-size="14.00">INE5420</text>
</g>
<!-- MTM3120&#45;&gt;INE5420 -->
<g id="edge67" class="edge">
<title>MTM3120&#45;&gt;INE5420</title>
<path fill="none" stroke="black" stroke-width="2" d="M1074.83,-347C1081.78,-347 1086.6,-347 1086.6,-347 1086.6,-347 1086.6,-758.8 1086.6,-758.8 1086.6,-758.8 2238.6,-758.8 2238.6,-758.8 2238.6,-758.8 2238.6,-767.17 2238.6,-767.17"/>
<polygon fill="black" stroke="black" stroke-width="2" points="2241.1,-768.67 2236.1,-768.67 2236.1,-767.67 2241.1,-767.67 2241.1,-768.67"/>
<polyline fill="none" stroke="black" stroke-width="2" points="2238.6,-769.17 2238.6,-766.67"/>
</g>
<!-- MTM3121&#45;&gt;INE5202 -->
<g id="edge47" class="edge">
<title>MTM3121&#45;&gt;INE5202</title>
<path fill="none" stroke="black" stroke-width="2" d="M1177.6,-356.27C1177.6,-356.27 1177.6,-545.14 1177.6,-545.14"/>
<polygon fill="black" stroke="black" stroke-width="2" points="1180.1,-546.64 1175.1,-546.64 1175.1,-545.64 1180.1,-545.64 1180.1,-546.64"/>
<polyline fill="none" stroke="black" stroke-width="2" points="1177.6,-547.14 1177.6,-544.64"/>
</g>
<!-- MTM3121&#45;&gt;MTM3131 -->
<g id="edge52" class="edge">
<title>MTM3121&#45;&gt;MTM3131</title>
<path fill="none" stroke="black" stroke-width="2" d="M1211.33,-344C1349.71,-344 1724.6,-344 1724.6,-344 1724.6,-344 1724.6,-545.33 1724.6,-545.33"/>
<polygon fill="black" stroke="black" stroke-width="2" points="1727.1,-546.83 1722.1,-546.83 1722.1,-545.83 1727.1,-545.83 1727.1,-546.83"/>
<polyline fill="none" stroke="black" stroke-width="2" points="1724.6,-547.33 1724.6,-544.83"/>
</g>
<!-- MTM3121&#45;&gt;INE5420 -->
<g id="edge68" class="edge">
<title>MTM3121&#45;&gt;INE5420</title>
<path fill="none" stroke="black" stroke-width="2" d="M1211.37,-332C1417.15,-332 2180.6,-332 2180.6,-332 2180.6,-332 2180.6,-788 2180.6,-788 2180.6,-788 2202.11,-788 2202.11,-788"/>
<polygon fill="black" stroke="black" stroke-width="2" points="2203.61,-785.5 2203.61,-790.5 2202.61,-790.5 2202.61,-785.5 2203.61,-785.5"/>
<polyline fill="none" stroke="black" stroke-width="2" points="2204.11,-788 2201.61,-788"/>
</g>
<!-- INE5202&#45;&gt;INE5408 -->
<!-- INE5425 -->
<g id="node36" class="node">
<title>INE5425</title>
<polygon fill="lightblue" stroke="black" points="2168.8,-936 2068,-936 2068,-900 2168.8,-900 2168.8,-936"/>
<text text-anchor="middle" x="2118.4" y="-912.58" font-family="Arial" font-size="14.00">INE5425</text>
</g>
<!-- INE5202&#45;&gt;INE5425 -->
<g id="edge73" class="edge">
<title>INE5202&#45;&gt;INE5425</title>
<path fill="none" stroke="black" stroke-width="2" d="M1160.6,-584.39C1160.6,-647.73 1160.6,-853 1160.6,-853 1160.6,-853 2101.6,-853 2101.6,-853 2101.6,-853 2101.6,-897.05 2101.6,-897.05"/>
<polygon fill="black" stroke="black" stroke-width="2" points="2104.1,-898.55 2099.1,-898.55 2099.1,-897.55 2104.1,-897.55 2104.1,-898.55"/>
<polyline fill="none" stroke="black" stroke-width="2" points="2101.6,-899.05 2101.6,-896.55"/>
</g>
<!-- header_3 -->
<g id="node14" class="node">
<title>header_3</title>
<polygon fill="lightgrey" stroke="black" points="1074.4,-584 973.6,-584 973.6,-548 1074.4,-548 1074.4,-584"/>
<text text-anchor="middle" x="1024" y="-560.58" font-family="Arial" font-size="14.00">Fase 3</text>
</g>
<!-- header_3&#45;&gt;INE5202 -->
<!-- INE5408&#45;&gt;INE5410 -->
<!-- INE5408&#45;&gt;INE5413 -->
<g id="edge56" class="edge">
<title>INE5408&#45;&gt;INE5413</title>
<path fill="none" stroke="black" stroke-width="2" d="M1290.6,-584.3C1290.6,-608.1 1290.6,-646.67 1290.6,-646.67 1290.6,-646.67 1724.6,-646.67 1724.6,-646.67 1724.6,-646.67 1724.6,-675.13 1724.6,-675.13"/>
<polygon fill="black" stroke="black" stroke-width="2" points="1727.1,-676.63 1722.1,-676.63 1722.1,-675.63 1727.1,-675.63 1727.1,-676.63"/>
<polyline fill="none" stroke="black" stroke-width="2" points="1724.6,-677.13 1724.6,-674.63"/>
</g>
<!-- INE5408&#45;&gt;INE5415 -->
<g id="edge59" class="edge">
<title>INE5408&#45;&gt;INE5415</title>
<path fill="none" stroke="black" stroke-width="2" d="M1304.6,-584.45C1304.6,-603.67 1304.6,-631 1304.6,-631 1304.6,-631 1998.6,-631 1998.6,-631 1998.6,-631 1998.6,-675.05 1998.6,-675.05"/>
<polygon fill="black" stroke="black" stroke-width="2" points="2001.1,-676.55 1996.1,-676.55 1996.1,-675.55 2001.1,-675.55 2001.1,-676.55"/>
<polyline fill="none" stroke="black" stroke-width="2" points="1998.6,-677.05 1998.6,-674.55"/>
</g>
<!-- INE5416 -->
<g id="node24" class="node">
<title>INE5416</title>
<polygon fill="lightblue" stroke="black" points="2168.8,-714 2068,-714 2068,-678 2168.8,-678 2168.8,-714"/>
<text text-anchor="middle" x="2118.4" y="-690.58" font-family="Arial" font-size="14.00">INE5416</text>
</g>
<!-- INE5408&#45;&gt;INE5416 -->
<g id="edge60" class="edge">
<title>INE5408&#45;&gt;INE5416</title>
<path fill="none" stroke="black" stroke-width="2" d="M1319.6,-584.37C1319.6,-598.4 1319.6,-615.33 1319.6,-615.33 1319.6,-615.33 2118.6,-615.33 2118.6,-615.33 2118.6,-615.33 2118.6,-675.2 2118.6,-675.2"/>
<polygon fill="black" stroke="black" stroke-width="2" points="2121.1,-676.7 2116.1,-676.7 2116.1,-675.7 2121.1,-675.7 2121.1,-676.7"/>
<polyline fill="none" stroke="black" stroke-width="2" points="2118.6,-677.2 2118.6,-674.7"/>
</g>
<!-- INE5417 -->
<g id="node25" class="node">
<title>INE5417</title>
<polygon fill="lightblue" stroke="black" points="2305.6,-714 2204.8,-714 2204.8,-678 2305.6,-678 2305.6,-714"/>
<text text-anchor="middle" x="2255.2" y="-690.58" font-family="Arial" font-size="14.00">INE5417</text>
</g>
<!-- INE5408&#45;&gt;INE5417 -->
<g id="edge61" class="edge">
<title>INE5408&#45;&gt;INE5417</title>
<path fill="none" stroke="black" stroke-width="2" d="M1333.6,-584.41C1333.6,-592.27 1333.6,-599.67 1333.6,-599.67 1333.6,-599.67 2255.6,-599.67 2255.6,-599.67 2255.6,-599.67 2255.6,-675.38 2255.6,-675.38"/>
<polygon fill="black" stroke="black" stroke-width="2" points="2258.1,-676.88 2253.1,-676.88 2253.1,-675.88 2258.1,-675.88 2258.1,-676.88"/>
<polyline fill="none" stroke="black" stroke-width="2" points="2255.6,-677.38 2255.6,-674.88"/>
</g>
<!-- INE5408&#45;&gt;INE5420 -->
<g id="edge66" class="edge">
<title>INE5408&#45;&gt;INE5420</title>
<path fill="none" stroke="black" stroke-width="2" d="M1275.6,-584.29C1275.6,-631.39 1275.6,-753.2 1275.6,-753.2 1275.6,-753.2 2271.6,-753.2 2271.6,-753.2 2271.6,-753.2 2271.6,-767.28 2271.6,-767.28"/>
<polygon fill="black" stroke="black" stroke-width="2" points="2274.1,-768.78 2269.1,-768.78 2269.1,-767.78 2274.1,-767.78 2274.1,-768.78"/>
<polyline fill="none" stroke="black" stroke-width="2" points="2271.6,-769.28 2271.6,-766.78"/>
</g>
<!-- INE5423 -->
<g id="node33" class="node">
<title>INE5423</title>
<polygon fill="lightblue" stroke="black" points="1895.2,-936 1794.4,-936 1794.4,-900 1895.2,-900 1895.2,-936"/>
<text text-anchor="middle" x="1844.8" y="-912.58" font-family="Arial" font-size="14.00">INE5423</text>
</g>
<!-- INE5408&#45;&gt;INE5423 -->
<g id="edge71" class="edge">
<title>INE5408&#45;&gt;INE5423</title>
<path fill="none" stroke="black" stroke-width="2" d="M1261.6,-584.49C1261.6,-652.43 1261.6,-884.33 1261.6,-884.33 1261.6,-884.33 1819.6,-884.33 1819.6,-884.33 1819.6,-884.33 1819.6,-897.09 1819.6,-897.09"/>
<polygon fill="black" stroke="black" stroke-width="2" points="1822.1,-898.59 1817.1,-898.59 1817.1,-897.59 1822.1,-897.59 1822.1,-898.59"/>
<polyline fill="none" stroke="black" stroke-width="2" points="1819.6,-899.09 1819.6,-896.59"/>
</g>
<!-- INE5410&#45;&gt;INE5411 -->
<!-- INE5412 -->
<g id="node19" class="node">
<title>INE5412</title>
<polygon fill="lightblue" stroke="black" points="1621.6,-714 1520.8,-714 1520.8,-678 1621.6,-678 1621.6,-714"/>
<text text-anchor="middle" x="1571.2" y="-690.58" font-family="Arial" font-size="14.00">INE5412</text>
</g>
<!-- INE5410&#45;&gt;INE5412 -->
<g id="edge53" class="edge">
<title>INE5410&#45;&gt;INE5412</title>
<path fill="none" stroke="black" stroke-width="2" d="M1485.04,-572C1495.08,-572 1502.6,-572 1502.6,-572 1502.6,-572 1502.6,-690 1502.6,-690 1502.6,-690 1518.12,-690 1518.12,-690"/>
<polygon fill="black" stroke="black" stroke-width="2" points="1519.62,-687.5 1519.62,-692.5 1518.62,-692.5 1518.62,-687.5 1519.62,-687.5"/>
<polyline fill="none" stroke="black" stroke-width="2" points="1520.12,-690 1517.62,-690"/>
</g>
<!-- INE5411&#45;&gt;MTM3131 -->
<!-- INE5411&#45;&gt;INE5412 -->
<g id="edge54" class="edge">
<title>INE5411&#45;&gt;INE5412</title>
<path fill="none" stroke="black" stroke-width="2" d="M1571.6,-584.35C1571.6,-584.35 1571.6,-675.24 1571.6,-675.24"/>
<polygon fill="black" stroke="black" stroke-width="2" points="1574.1,-676.74 1569.1,-676.74 1569.1,-675.74 1574.1,-675.74 1574.1,-676.74"/>
<polyline fill="none" stroke="black" stroke-width="2" points="1571.6,-677.24 1571.6,-674.74"/>
</g>
<!-- INE5412&#45;&gt;INE5413 -->
<!-- INE5418 -->
<g id="node28" class="node">
<title>INE5418</title>
<polygon fill="lightblue" stroke="black" points="2032,-806 1931.2,-806 1931.2,-770 2032,-770 2032,-806"/>
<text text-anchor="middle" x="1981.6" y="-782.58" font-family="Arial" font-size="14.00">INE5418</text>
</g>
<!-- INE5412&#45;&gt;INE5418 -->
<g id="edge63" class="edge">
<title>INE5412&#45;&gt;INE5418</title>
<path fill="none" stroke="black" stroke-width="2" d="M1587.6,-714.33C1587.6,-734.59 1587.6,-764.4 1587.6,-764.4 1587.6,-764.4 1964.6,-764.4 1964.6,-764.4 1964.6,-764.4 1964.6,-767.37 1964.6,-767.37"/>
<polygon fill="black" stroke="black" stroke-width="2" points="1967.1,-768.87 1962.1,-768.87 1962.1,-767.87 1967.1,-767.87 1967.1,-768.87"/>
<polyline fill="none" stroke="black" stroke-width="2" points="1964.6,-769.37 1964.6,-766.87"/>
</g>
<!-- INE5424 -->
<g id="node35" class="node">
<title>INE5424</title>
<polygon fill="lightblue" stroke="black" points="2032,-936 1931.2,-936 1931.2,-900 2032,-900 2032,-936"/>
<text text-anchor="middle" x="1981.6" y="-912.58" font-family="Arial" font-size="14.00">INE5424</text>
</g>
<!-- INE5412&#45;&gt;INE5424 -->
<g id="edge72" class="edge">
<title>INE5412&#45;&gt;INE5424</title>
<path fill="none" stroke="black" stroke-width="2" d="M1554.6,-714.48C1554.6,-759.02 1554.6,-868.67 1554.6,-868.67 1554.6,-868.67 1981.6,-868.67 1981.6,-868.67 1981.6,-868.67 1981.6,-897.13 1981.6,-897.13"/>
<polygon fill="black" stroke="black" stroke-width="2" points="1984.1,-898.63 1979.1,-898.63 1979.1,-897.63 1984.1,-897.63 1984.1,-898.63"/>
<polyline fill="none" stroke="black" stroke-width="2" points="1981.6,-899.13 1981.6,-896.63"/>
</g>
<!-- header_4 -->
<g id="node20" class="node">
<title>header_4</title>
<polygon fill="lightgrey" stroke="black" points="1484.8,-714 1384,-714 1384,-678 1484.8,-678 1484.8,-714"/>
<text text-anchor="middle" x="1434.4" y="-690.58" font-family="Arial" font-size="14.00">Fase 4</text>
</g>
<!-- header_4&#45;&gt;INE5412 -->
<!-- INE5413&#45;&gt;INE5414 -->
<!-- INE5430 -->
<g id="node39" class="node">
<title>INE5430</title>
<polygon fill="lightblue" stroke="black" points="2579.2,-936 2478.4,-936 2478.4,-900 2579.2,-900 2579.2,-936"/>
<text text-anchor="middle" x="2528.8" y="-912.58" font-family="Arial" font-size="14.00">INE5430</text>
</g>
<!-- INE5413&#45;&gt;INE5430 -->
<g id="edge78" class="edge">
<title>INE5413&#45;&gt;INE5430</title>
<path fill="none" stroke="black" stroke-width="2" d="M1707.6,-714.31C1707.6,-725 1707.6,-736.4 1707.6,-736.4 1707.6,-736.4 2460.6,-736.4 2460.6,-736.4 2460.6,-736.4 2460.6,-918 2460.6,-918 2460.6,-918 2475.66,-918 2475.66,-918"/>
<polygon fill="black" stroke="black" stroke-width="2" points="2477.16,-915.5 2477.16,-920.5 2476.16,-920.5 2476.16,-915.5 2477.16,-915.5"/>
<polyline fill="none" stroke="black" stroke-width="2" points="2477.66,-918 2475.16,-918"/>
</g>
<!-- INE5414&#45;&gt;INE5415 -->
<!-- INE5414&#45;&gt;INE5418 -->
<g id="edge64" class="edge">
<title>INE5414&#45;&gt;INE5418</title>
<path fill="none" stroke="black" stroke-width="2" d="M1895.52,-702C1905.84,-702 1913.6,-702 1913.6,-702 1913.6,-702 1913.6,-782 1913.6,-782 1913.6,-782 1928.26,-782 1928.26,-782"/>
<polygon fill="black" stroke="black" stroke-width="2" points="1929.76,-779.5 1929.76,-784.5 1928.76,-784.5 1928.76,-779.5 1929.76,-779.5"/>
<polyline fill="none" stroke="black" stroke-width="2" points="1930.26,-782 1927.76,-782"/>
</g>
<!-- INE5422 -->
<g id="node32" class="node">
<title>INE5422</title>
<polygon fill="lightblue" stroke="black" points="2579.2,-806 2478.4,-806 2478.4,-770 2579.2,-770 2579.2,-806"/>
<text text-anchor="middle" x="2528.8" y="-782.58" font-family="Arial" font-size="14.00">INE5422</text>
</g>
<!-- INE5414&#45;&gt;INE5422 -->
<g id="edge70" class="edge">
<title>INE5414&#45;&gt;INE5422</title>
<path fill="none" stroke="black" stroke-width="2" d="M1869.6,-714.13C1869.6,-717.3 1869.6,-719.6 1869.6,-719.6 1869.6,-719.6 2528.6,-719.6 2528.6,-719.6 2528.6,-719.6 2528.6,-767.17 2528.6,-767.17"/>
<polygon fill="black" stroke="black" stroke-width="2" points="2531.1,-768.67 2526.1,-768.67 2526.1,-767.67 2531.1,-767.67 2531.1,-768.67"/>
<polyline fill="none" stroke="black" stroke-width="2" points="2528.6,-769.17 2528.6,-766.67"/>
</g>
<!-- INE5414&#45;&gt;INE5429 -->
<g id="edge83" class="edge">
<title>INE5414&#45;&gt;INE5429</title>
<path fill="none" stroke="black" stroke-width="2" d="M1819.6,-714.34C1819.6,-729.17 1819.6,-747.6 1819.6,-747.6 1819.6,-747.6 2314.6,-747.6 2314.6,-747.6 2314.6,-747.6 2314.6,-972 2314.6,-972 2314.6,-972 2338.74,-972 2338.74,-972"/>
<polygon fill="black" stroke="black" stroke-width="2" points="2340.24,-969.5 2340.24,-974.5 2339.24,-974.5 2339.24,-969.5 2340.24,-969.5"/>
<polyline fill="none" stroke="black" stroke-width="2" points="2340.74,-972 2338.24,-972"/>
</g>
<!-- INE5431 -->
<g id="node44" class="node">
<title>INE5431</title>
<polygon fill="lightblue" stroke="black" points="2579.2,-996 2478.4,-996 2478.4,-960 2579.2,-960 2579.2,-996"/>
<text text-anchor="middle" x="2528.8" y="-972.58" font-family="Arial" font-size="14.00">INE5431</text>
</g>
<!-- INE5414&#45;&gt;INE5431 -->
<g id="edge84" class="edge">
<title>INE5414&#45;&gt;INE5431</title>
<path fill="none" stroke="black" stroke-width="2" d="M1844.6,-714.22C1844.6,-722.64 1844.6,-730.8 1844.6,-730.8 1844.6,-730.8 2451.6,-730.8 2451.6,-730.8 2451.6,-730.8 2451.6,-972 2451.6,-972 2451.6,-972 2475.67,-972 2475.67,-972"/>
<polygon fill="black" stroke="black" stroke-width="2" points="2477.17,-969.5 2477.17,-974.5 2476.17,-974.5 2476.17,-969.5 2477.17,-969.5"/>
<polyline fill="none" stroke="black" stroke-width="2" points="2477.67,-972 2475.17,-972"/>
</g>
<!-- INE5415&#45;&gt;INE5416 -->
<!-- INE5421 -->
<g id="node31" class="node">
<title>INE5421</title>
<polygon fill="lightblue" stroke="black" points="2442.4,-806 2341.6,-806 2341.6,-770 2442.4,-770 2442.4,-806"/>
<text text-anchor="middle" x="2392" y="-782.58" font-family="Arial" font-size="14.00">INE5421</text>
</g>
<!-- INE5415&#45;&gt;INE5421 -->
<g id="edge69" class="edge">
<title>INE5415&#45;&gt;INE5421</title>
<path fill="none" stroke="black" stroke-width="2" d="M1998.6,-714.44C1998.6,-727.24 1998.6,-742 1998.6,-742 1998.6,-742 2391.6,-742 2391.6,-742 2391.6,-742 2391.6,-767.06 2391.6,-767.06"/>
<polygon fill="black" stroke="black" stroke-width="2" points="2394.1,-768.56 2389.1,-768.55 2389.1,-767.55 2394.1,-767.56 2394.1,-768.56"/>
<polyline fill="none" stroke="black" stroke-width="2" points="2391.6,-769.06 2391.6,-766.56"/>
</g>
<!-- INE5416&#45;&gt;INE5417 -->
<!-- INE5416&#45;&gt;INE5430 -->
<g id="edge79" class="edge">
<title>INE5416&#45;&gt;INE5430</title>
<path fill="none" stroke="black" stroke-width="2" d="M2118.6,-714.33C2118.6,-720.19 2118.6,-725.2 2118.6,-725.2 2118.6,-725.2 2469.6,-725.2 2469.6,-725.2 2469.6,-725.2 2469.6,-909 2469.6,-909 2469.6,-909 2475.58,-909 2475.58,-909"/>
<polygon fill="black" stroke="black" stroke-width="2" points="2477.08,-906.5 2477.08,-911.5 2476.08,-911.5 2476.08,-906.5 2477.08,-906.5"/>
<polyline fill="none" stroke="black" stroke-width="2" points="2477.58,-909 2475.08,-909"/>
</g>
<!-- INE5419 -->
<g id="node29" class="node">
<title>INE5419</title>
<polygon fill="lightblue" stroke="black" points="2168.8,-806 2068,-806 2068,-770 2168.8,-770 2168.8,-806"/>
<text text-anchor="middle" x="2118.4" y="-782.58" font-family="Arial" font-size="14.00">INE5419</text>
</g>
<!-- INE5417&#45;&gt;INE5419 -->
<g id="edge65" class="edge">
<title>INE5417&#45;&gt;INE5419</title>
<path fill="none" stroke="black" stroke-width="2" d="M2204.37,-702C2197.42,-702 2192.6,-702 2192.6,-702 2192.6,-702 2192.6,-779 2192.6,-779 2192.6,-779 2171.62,-779 2171.62,-779"/>
<polygon fill="black" stroke="black" stroke-width="2" points="2170.12,-781.5 2170.12,-776.5 2171.12,-776.5 2171.12,-781.5 2170.12,-781.5"/>
<polyline fill="none" stroke="black" stroke-width="2" points="2169.62,-779 2172.12,-779"/>
</g>
<!-- INE5427 -->
<g id="node38" class="node">
<title>INE5427</title>
<polygon fill="lightblue" stroke="black" points="2442.4,-936 2341.6,-936 2341.6,-900 2442.4,-900 2442.4,-936"/>
<text text-anchor="middle" x="2392" y="-912.58" font-family="Arial" font-size="14.00">INE5427</text>
</g>
<!-- INE5417&#45;&gt;INE5427 -->
<g id="edge76" class="edge">
<title>INE5417&#45;&gt;INE5427</title>
<path fill="none" stroke="black" stroke-width="2" d="M2305.99,-702C2316.06,-702 2323.6,-702 2323.6,-702 2323.6,-702 2323.6,-918 2323.6,-918 2323.6,-918 2338.71,-918 2338.71,-918"/>
<polygon fill="black" stroke="black" stroke-width="2" points="2340.21,-915.5 2340.21,-920.5 2339.21,-920.5 2339.21,-915.5 2340.21,-915.5"/>
<polyline fill="none" stroke="black" stroke-width="2" points="2340.71,-918 2338.21,-918"/>
</g>
<!-- INE5453 -->
<g id="node40" class="node">
<title>INE5453</title>
<polygon fill="lightblue" stroke="black" points="2716,-936 2615.2,-936 2615.2,-900 2716,-900 2716,-936"/>
<text text-anchor="middle" x="2665.6" y="-912.58" font-family="Arial" font-size="14.00">INE5453</text>
</g>
<!-- INE5417&#45;&gt;INE5453 -->
<g id="edge80" class="edge">
<title>INE5417&#45;&gt;INE5453</title>
<path fill="none" stroke="black" stroke-width="2" d="M2305.93,-690C2415.74,-690 2665.6,-690 2665.6,-690 2665.6,-690 2665.6,-897.23 2665.6,-897.23"/>
<polygon fill="black" stroke="black" stroke-width="2" points="2668.1,-898.73 2663.1,-898.73 2663.1,-897.73 2668.1,-897.73 2668.1,-898.73"/>
<polyline fill="none" stroke="black" stroke-width="2" points="2665.6,-899.23 2665.6,-896.73"/>
</g>
<!-- INE5405&#45;&gt;INE5418 -->
<!-- INE5405&#45;&gt;INE5425 -->
<g id="edge74" class="edge">
<title>INE5405&#45;&gt;INE5425</title>
<path fill="none" stroke="black" stroke-width="2" d="M1844.6,-806.37C1844.6,-820.4 1844.6,-837.33 1844.6,-837.33 1844.6,-837.33 2135.6,-837.33 2135.6,-837.33 2135.6,-837.33 2135.6,-897.2 2135.6,-897.2"/>
<polygon fill="black" stroke="black" stroke-width="2" points="2138.1,-898.7 2133.1,-898.7 2133.1,-897.7 2138.1,-897.7 2138.1,-898.7"/>
<polyline fill="none" stroke="black" stroke-width="2" points="2135.6,-899.2 2135.6,-896.7"/>
</g>
<!-- INE5405&#45;&gt;INE5430 -->
<g id="edge77" class="edge">
<title>INE5405&#45;&gt;INE5430</title>
<path fill="none" stroke="black" stroke-width="2" d="M1869.6,-806.41C1869.6,-814.27 1869.6,-821.67 1869.6,-821.67 1869.6,-821.67 2528.6,-821.67 2528.6,-821.67 2528.6,-821.67 2528.6,-897.38 2528.6,-897.38"/>
<polygon fill="black" stroke="black" stroke-width="2" points="2531.1,-898.88 2526.1,-898.88 2526.1,-897.88 2531.1,-897.88 2531.1,-898.88"/>
<polyline fill="none" stroke="black" stroke-width="2" points="2528.6,-899.38 2528.6,-896.88"/>
</g>
<!-- header_5 -->
<g id="node27" class="node">
<title>header_5</title>
<polygon fill="lightgrey" stroke="black" points="1758.4,-806 1657.6,-806 1657.6,-770 1758.4,-770 1758.4,-806"/>
<text text-anchor="middle" x="1708" y="-782.58" font-family="Arial" font-size="14.00">Fase 5</text>
</g>
<!-- header_5&#45;&gt;INE5405 -->
<!-- INE5418&#45;&gt;INE5419 -->
<!-- INE5419&#45;&gt;INE5420 -->
<!-- INE5420&#45;&gt;INE5421 -->
<!-- INE5421&#45;&gt;INE5422 -->
<!-- INE5426 -->
<g id="node37" class="node">
<title>INE5426</title>
<polygon fill="lightblue" stroke="black" points="2305.6,-936 2204.8,-936 2204.8,-900 2305.6,-900 2305.6,-936"/>
<text text-anchor="middle" x="2255.2" y="-912.58" font-family="Arial" font-size="14.00">INE5426</text>
</g>
<!-- INE5421&#45;&gt;INE5426 -->
<g id="edge75" class="edge">
<title>INE5421&#45;&gt;INE5426</title>
<path fill="none" stroke="black" stroke-width="2" d="M2341.11,-794C2335.97,-794 2332.6,-794 2332.6,-794 2332.6,-794 2332.6,-909 2332.6,-909 2332.6,-909 2308.46,-909 2308.46,-909"/>
<polygon fill="black" stroke="black" stroke-width="2" points="2306.96,-911.5 2306.96,-906.5 2307.96,-906.5 2307.96,-911.5 2306.96,-911.5"/>
<polyline fill="none" stroke="black" stroke-width="2" points="2306.46,-909 2308.96,-909"/>
</g>
<!-- INE5423&#45;&gt;INE5424 -->
<!-- INE5432 -->
<g id="node45" class="node">
<title>INE5432</title>
<polygon fill="lightblue" stroke="black" points="2716,-996 2615.2,-996 2615.2,-960 2716,-960 2716,-996"/>
<text text-anchor="middle" x="2665.6" y="-972.58" font-family="Arial" font-size="14.00">INE5432</text>
</g>
<!-- INE5423&#45;&gt;INE5432 -->
<g id="edge85" class="edge">
<title>INE5423&#45;&gt;INE5432</title>
<path fill="none" stroke="black" stroke-width="2" d="M1844.6,-936.26C1844.6,-941.39 1844.6,-945.6 1844.6,-945.6 1844.6,-945.6 2665.6,-945.6 2665.6,-945.6 2665.6,-945.6 2665.6,-957.03 2665.6,-957.03"/>
<polygon fill="black" stroke="black" stroke-width="2" points="2668.1,-958.53 2663.1,-958.53 2663.1,-957.53 2668.1,-957.53 2668.1,-958.53"/>
<polyline fill="none" stroke="black" stroke-width="2" points="2665.6,-959.03 2665.6,-956.53"/>
</g>
<!-- header_6 -->
<g id="node34" class="node">
<title>header_6</title>
<polygon fill="lightgrey" stroke="black" points="1758.4,-936 1657.6,-936 1657.6,-900 1758.4,-900 1758.4,-936"/>
<text text-anchor="middle" x="1708" y="-912.58" font-family="Arial" font-size="14.00">Fase 6</text>
</g>
<!-- header_6&#45;&gt;INE5423 -->
<!-- INE5424&#45;&gt;INE5425 -->
<!-- INE5425&#45;&gt;INE5426 -->
<!-- INE5426&#45;&gt;INE5427 -->
<!-- INE5427&#45;&gt;INE5430 -->
<!-- INE5433 -->
<g id="node46" class="node">
<title>INE5433</title>
<polygon fill="lightblue" stroke="black" points="2852.8,-996 2752,-996 2752,-960 2852.8,-960 2852.8,-996"/>
<text text-anchor="middle" x="2802.4" y="-972.58" font-family="Arial" font-size="14.00">INE5433</text>
</g>
<!-- INE5427&#45;&gt;INE5433 -->
<g id="edge86" class="edge">
<title>INE5427&#45;&gt;INE5433</title>
<path fill="none" stroke="black" stroke-width="2" d="M2408.6,-936.4C2408.6,-939 2408.6,-940.8 2408.6,-940.8 2408.6,-940.8 2785.6,-940.8 2785.6,-940.8 2785.6,-940.8 2785.6,-957.34 2785.6,-957.34"/>
<polygon fill="black" stroke="black" stroke-width="2" points="2788.1,-958.84 2783.1,-958.84 2783.1,-957.84 2788.1,-957.84 2788.1,-958.84"/>
<polyline fill="none" stroke="black" stroke-width="2" points="2785.6,-959.34 2785.6,-956.84"/>
</g>
<!-- INE5430&#45;&gt;INE5453 -->
<!-- INE5453&#45;&gt;INE5433 -->
<g id="edge87" class="edge">
<title>INE5453&#45;&gt;INE5433</title>
<path fill="none" stroke="black" stroke-width="2" d="M2716.45,-918C2761.31,-918 2819.6,-918 2819.6,-918 2819.6,-918 2819.6,-957.17 2819.6,-957.17"/>
<polygon fill="black" stroke="black" stroke-width="2" points="2822.1,-958.67 2817.1,-958.67 2817.1,-957.67 2822.1,-957.67 2822.1,-958.67"/>
<polyline fill="none" stroke="black" stroke-width="2" points="2819.6,-959.17 2819.6,-956.67"/>
</g>
<!-- INE5428&#45;&gt;INE5429 -->
<!-- header_7 -->
<g id="node42" class="node">
<title>header_7</title>
<polygon fill="lightgrey" stroke="black" points="2168.8,-996 2068,-996 2068,-960 2168.8,-960 2168.8,-996"/>
<text text-anchor="middle" x="2118.4" y="-972.58" font-family="Arial" font-size="14.00">Fase 7</text>
</g>
<!-- header_7&#45;&gt;INE5428 -->
<!-- INE5429&#45;&gt;INE5431 -->
<!-- INE5431&#45;&gt;INE5432 -->
<!-- INE5432&#45;&gt;INE5433 -->
<!-- INE5434 -->
<g id="node47" class="node">
<title>INE5434</title>
<polygon fill="lightblue" stroke="black" points="2989.6,-1056 2888.8,-1056 2888.8,-1020 2989.6,-1020 2989.6,-1056"/>
<text text-anchor="middle" x="2939.2" y="-1032.58" font-family="Arial" font-size="14.00">INE5434</text>
</g>
<!-- INE5433&#45;&gt;INE5434 -->
<g id="edge88" class="edge">
<title>INE5433&#45;&gt;INE5434</title>
<path fill="none" stroke="black" stroke-width="2" d="M2853.1,-978C2892.18,-978 2939.6,-978 2939.6,-978 2939.6,-978 2939.6,-1017.17 2939.6,-1017.17"/>
<polygon fill="black" stroke="black" stroke-width="2" points="2942.1,-1018.67 2937.1,-1018.67 2937.1,-1017.67 2942.1,-1017.67 2942.1,-1018.67"/>
<polyline fill="none" stroke="black" stroke-width="2" points="2939.6,-1019.17 2939.6,-1016.67"/>
</g>
<!-- header_8 -->
<g id="node48" class="node">
<title>header_8</title>
<polygon fill="lightgrey" stroke="black" points="2852.8,-1056 2752,-1056 2752,-1020 2852.8,-1020 2852.8,-1056"/>
<text text-anchor="middle" x="2802.4" y="-1032.58" font-family="Arial" font-size="14.00">Fase 8</text>
</g>
<!-- header_8&#45;&gt;INE5434 -->
<!-- INE7011 -->
<g id="node49" class="node">
<title>INE7011</title>
<polygon fill="lightblue" stroke="black" points="253.6,-584 152.8,-584 152.8,-548 253.6,-548 253.6,-584"/>
<text text-anchor="middle" x="203.2" y="-560.58" font-family="Arial" font-size="14.00">INE7011</text>
</g>
<!-- header_999 -->
<g id="node50" class="node">
<title>header_999</title>
<polygon fill="lightgrey" stroke="black" points="116.8,-584 16,-584 16,-548 116.8,-548 116.8,-584"/>
<text text-anchor="middle" x="66.4" y="-560.58" font-family="Arial" font-size="14.00">Fase 999</text>
</g>
<!-- header_999&#45;&gt;INE7011 -->
</g>
</svg>
