<?xml version="1.0" encoding="UTF-8" standalone="no"?>
<!DOCTYPE svg PUBLIC "-//W3C//DTD SVG 1.1//EN"
 "http://www.w3.org/Graphics/SVG/1.1/DTD/svg11.dtd">
<!-- Generated by graphviz version 12.2.1 (0)
 -->
<!-- Title: curriculo Pages: 1 -->
<svg width="1626pt" height="1588pt"
 viewBox="0.00 0.00 1626.00 1588.00" xmlns="http://www.w3.org/2000/svg" xmlns:xlink="http://www.w3.org/1999/xlink">
<g id="graph0" class="graph" transform="scale(1 1) rotate(0) translate(4 1584)">
<title>curriculo</title>
<polygon fill="none" stroke="none" points="-4,4 -4,-1584 1622,-1584 1622,4 -4,4"/>
<g id="clust1" class="cluster">
<title>cluster_1</title>
<polygon fill="none" stroke="none" points="1370,-1160 1370,-1572 1486,-1572 1486,-1160 1370,-1160"/>
</g>
<g id="clust2" class="cluster">
<title>cluster_2</title>
<polygon fill="none" stroke="none" points="1066,-944 1066,-1356 1182,-1356 1182,-944 1066,-944"/>
</g>
<g id="clust3" class="cluster">
<title>cluster_3</title>
<polygon fill="none" stroke="none" points="800,-656 800,-1068 916,-1068 916,-656 800,-656"/>
</g>
<g id="clust4" class="cluster">
<title>cluster_4</title>
<polygon fill="none" stroke="none" points="606,-368 606,-852 722,-852 722,-368 606,-368"/>
</g>
<g id="clust5" class="cluster">
<title>cluster_5</title>
<polygon fill="none" stroke="none" points="450,-224 450,-708 566,-708 566,-224 450,-224"/>
</g>
<g id="clust6" class="cluster">
<title>cluster_6</title>
<polygon fill="none" stroke="none" points="256,-152 256,-708 372,-708 372,-152 256,-152"/>
</g>
<g id="clust7" class="cluster">
<title>cluster_7</title>
<polygon fill="none" stroke="none" points="132,-80 132,-492 248,-492 248,-80 132,-80"/>
</g>
<g id="clust8" class="cluster">
<title>cluster_8</title>
<polygon fill="none" stroke="none" points="8,-8 8,-132 124,-132 124,-8 8,-8"/>
</g>
<g id="clust9" class="cluster">
<title>cluster_999</title>
<polygon fill="none" stroke="none" points="1494,-1448 1494,-1572 1610,-1572 1610,-1448 1494,-1448"/>
</g>
<!-- EEL5105 -->
<g id="node1" class="node">
<title>EEL5105</title>
<polygon fill="lightblue" stroke="black" points="1478.4,-1492 1377.6,-1492 1377.6,-1456 1478.4,-1456 1478.4,-1492"/>
<text text-anchor="middle" x="1428" y="-1468.58" font-family="Arial" font-size="14.00">EEL5105</text>
</g>
<!-- INE5401 -->
<g id="node3" class="node">
<title>INE5401</title>
<polygon fill="lightblue" stroke="black" points="1478.4,-1420 1377.6,-1420 1377.6,-1384 1478.4,-1384 1478.4,-1420"/>
<text text-anchor="middle" x="1428" y="-1396.58" font-family="Arial" font-size="14.00">INE5401</text>
</g>
<!-- EEL5105&#45;&gt;INE5401 -->
<!-- INE5406 -->
<g id="node9" class="node">
<title>INE5406</title>
<polygon fill="lightblue" stroke="black" points="1174.4,-1204 1073.6,-1204 1073.6,-1168 1174.4,-1168 1174.4,-1204"/>
<text text-anchor="middle" x="1124" y="-1180.58" font-family="Arial" font-size="14.00">INE5406</text>
</g>
<!-- EEL5105&#45;&gt;INE5406 -->
<g id="edge43" class="edge">
<title>EEL5105&#45;&gt;INE5406</title>
<path fill="none" stroke="black" stroke-width="2" d="M1377.35,-1474C1317.28,-1474 1225.2,-1474 1225.2,-1474 1225.2,-1474 1225.2,-1186 1225.2,-1186 1225.2,-1186 1177.4,-1186 1177.4,-1186"/>
<polygon fill="black" stroke="black" stroke-width="2" points="1175.9,-1188.5 1175.9,-1183.5 1176.9,-1183.5 1176.9,-1188.5 1175.9,-1188.5"/>
<polyline fill="none" stroke="black" stroke-width="2" points="1175.4,-1186 1177.9,-1186"/>
</g>
<!-- header_1 -->
<g id="node2" class="node">
<title>header_1</title>
<polygon fill="lightgrey" stroke="black" points="1478.4,-1564 1377.6,-1564 1377.6,-1528 1478.4,-1528 1478.4,-1564"/>
<text text-anchor="middle" x="1428" y="-1540.58" font-family="Arial" font-size="14.00">Fase 1</text>
</g>
<!-- header_1&#45;&gt;EEL5105 -->
<!-- INE5402 -->
<g id="node4" class="node">
<title>INE5402</title>
<polygon fill="lightblue" stroke="black" points="1478.4,-1348 1377.6,-1348 1377.6,-1312 1478.4,-1312 1478.4,-1348"/>
<text text-anchor="middle" x="1428" y="-1324.58" font-family="Arial" font-size="14.00">INE5402</text>
</g>
<!-- INE5401&#45;&gt;INE5402 -->
<!-- INE5403 -->
<g id="node5" class="node">
<title>INE5403</title>
<polygon fill="lightblue" stroke="black" points="1478.4,-1276 1377.6,-1276 1377.6,-1240 1478.4,-1240 1478.4,-1276"/>
<text text-anchor="middle" x="1428" y="-1252.58" font-family="Arial" font-size="14.00">INE5403</text>
</g>
<!-- INE5402&#45;&gt;INE5403 -->
<!-- INE5404 -->
<g id="node7" class="node">
<title>INE5404</title>
<polygon fill="lightblue" stroke="black" points="1174.4,-1276 1073.6,-1276 1073.6,-1240 1174.4,-1240 1174.4,-1276"/>
<text text-anchor="middle" x="1124" y="-1252.58" font-family="Arial" font-size="14.00">INE5404</text>
</g>
<!-- INE5402&#45;&gt;INE5404 -->
<g id="edge42" class="edge">
<title>INE5402&#45;&gt;INE5404</title>
<path fill="none" stroke="black" stroke-width="2" d="M1377.39,-1330C1333.17,-1330 1276,-1330 1276,-1330 1276,-1330 1276,-1264 1276,-1264 1276,-1264 1177.11,-1264 1177.11,-1264"/>
<polygon fill="black" stroke="black" stroke-width="2" points="1175.61,-1266.5 1175.61,-1261.5 1176.61,-1261.5 1176.61,-1266.5 1175.61,-1266.5"/>
<polyline fill="none" stroke="black" stroke-width="2" points="1175.11,-1264 1177.61,-1264"/>
</g>
<!-- INE5202 -->
<g id="node13" class="node">
<title>INE5202</title>
<polygon fill="lightblue" stroke="black" points="908.4,-988 807.6,-988 807.6,-952 908.4,-952 908.4,-988"/>
<text text-anchor="middle" x="858" y="-964.58" font-family="Arial" font-size="14.00">INE5202</text>
</g>
<!-- INE5402&#45;&gt;INE5202 -->
<g id="edge45" class="edge">
<title>INE5402&#45;&gt;INE5202</title>
<path fill="none" stroke="black" stroke-width="2" d="M1411.2,-1311.58C1411.2,-1302.72 1411.2,-1294 1411.2,-1294 1411.2,-1294 926.76,-1294 926.76,-1294 926.76,-1294 926.76,-979 926.76,-979 926.76,-979 911.19,-979 911.19,-979"/>
<polygon fill="black" stroke="black" stroke-width="2" points="909.69,-981.5 909.69,-976.5 910.69,-976.5 910.69,-981.5 909.69,-981.5"/>
<polyline fill="none" stroke="black" stroke-width="2" points="909.19,-979 911.69,-979"/>
</g>
<!-- MTM3110 -->
<g id="node6" class="node">
<title>MTM3110</title>
<polygon fill="lightblue" stroke="black" points="1478.4,-1204 1377.6,-1204 1377.6,-1168 1478.4,-1168 1478.4,-1204"/>
<text text-anchor="middle" x="1428" y="-1180.58" font-family="Arial" font-size="14.00">MTM3110</text>
</g>
<!-- INE5403&#45;&gt;MTM3110 -->
<!-- INE5413 -->
<g id="node21" class="node">
<title>INE5413</title>
<polygon fill="lightblue" stroke="black" points="714.4,-700 613.6,-700 613.6,-664 714.4,-664 714.4,-700"/>
<text text-anchor="middle" x="664" y="-676.58" font-family="Arial" font-size="14.00">INE5413</text>
</g>
<!-- INE5403&#45;&gt;INE5413 -->
<g id="edge55" class="edge">
<title>INE5403&#45;&gt;INE5413</title>
<path fill="none" stroke="black" stroke-width="2" d="M1428,-1239.94C1428,-1228.56 1428,-1216 1428,-1216 1428,-1216 727.71,-1216 727.71,-1216 727.71,-1216 727.71,-688 727.71,-688 727.71,-688 717.32,-688 717.32,-688"/>
<polygon fill="black" stroke="black" stroke-width="2" points="715.82,-690.5 715.82,-685.5 716.82,-685.5 716.82,-690.5 715.82,-690.5"/>
<polyline fill="none" stroke="black" stroke-width="2" points="715.32,-688 717.82,-688"/>
</g>
<!-- INE5415 -->
<g id="node23" class="node">
<title>INE5415</title>
<polygon fill="lightblue" stroke="black" points="714.4,-556 613.6,-556 613.6,-520 714.4,-520 714.4,-556"/>
<text text-anchor="middle" x="664" y="-532.58" font-family="Arial" font-size="14.00">INE5415</text>
</g>
<!-- INE5403&#45;&gt;INE5415 -->
<g id="edge58" class="edge">
<title>INE5403&#45;&gt;INE5415</title>
<path fill="none" stroke="black" stroke-width="2" d="M1377.1,-1252C1351.9,-1252 1326.8,-1252 1326.8,-1252 1326.8,-1252 1326.8,-532 1326.8,-532 1326.8,-532 717.13,-532 717.13,-532"/>
<polygon fill="black" stroke="black" stroke-width="2" points="715.63,-534.5 715.63,-529.5 716.63,-529.5 716.63,-534.5 715.63,-534.5"/>
<polyline fill="none" stroke="black" stroke-width="2" points="715.13,-532 717.63,-532"/>
</g>
<!-- INE5429 -->
<g id="node43" class="node">
<title>INE5429</title>
<polygon fill="lightblue" stroke="black" points="240.4,-340 139.6,-340 139.6,-304 240.4,-304 240.4,-340"/>
<text text-anchor="middle" x="190" y="-316.57" font-family="Arial" font-size="14.00">INE5429</text>
</g>
<!-- INE5403&#45;&gt;INE5429 -->
<g id="edge82" class="edge">
<title>INE5403&#45;&gt;INE5429</title>
<path fill="none" stroke="black" stroke-width="2" d="M1402.8,-1239.51C1402.8,-1233.34 1402.8,-1228 1402.8,-1228 1402.8,-1228 245.04,-1228 245.04,-1228 245.04,-1228 245.04,-328 245.04,-328 245.04,-328 243.22,-328 243.22,-328"/>
<polygon fill="black" stroke="black" stroke-width="2" points="241.72,-330.5 241.72,-325.5 242.72,-325.5 242.72,-330.5 241.72,-330.5"/>
<polyline fill="none" stroke="black" stroke-width="2" points="241.22,-328 243.72,-328"/>
</g>
<!-- MTM3120 -->
<g id="node11" class="node">
<title>MTM3120</title>
<polygon fill="lightblue" stroke="black" points="1174.4,-1060 1073.6,-1060 1073.6,-1024 1174.4,-1024 1174.4,-1060"/>
<text text-anchor="middle" x="1124" y="-1036.58" font-family="Arial" font-size="14.00">MTM3120</text>
</g>
<!-- MTM3110&#45;&gt;MTM3120 -->
<g id="edge44" class="edge">
<title>MTM3110&#45;&gt;MTM3120</title>
<path fill="none" stroke="black" stroke-width="2" d="M1411.2,-1167.76C1411.2,-1129.01 1411.2,-1042 1411.2,-1042 1411.2,-1042 1177.18,-1042 1177.18,-1042"/>
<polygon fill="black" stroke="black" stroke-width="2" points="1175.68,-1044.5 1175.68,-1039.5 1176.68,-1039.5 1176.68,-1044.5 1175.68,-1044.5"/>
<polyline fill="none" stroke="black" stroke-width="2" points="1175.18,-1042 1177.68,-1042"/>
</g>
<!-- INE5405 -->
<g id="node26" class="node">
<title>INE5405</title>
<polygon fill="lightblue" stroke="black" points="558.4,-628 457.6,-628 457.6,-592 558.4,-592 558.4,-628"/>
<text text-anchor="middle" x="508" y="-604.58" font-family="Arial" font-size="14.00">INE5405</text>
</g>
<!-- MTM3110&#45;&gt;INE5405 -->
<g id="edge62" class="edge">
<title>MTM3110&#45;&gt;INE5405</title>
<path fill="none" stroke="black" stroke-width="2" d="M1444.8,-1167.72C1444.8,-1073.4 1444.8,-646 1444.8,-646 1444.8,-646 524.8,-646 524.8,-646 524.8,-646 524.8,-630.92 524.8,-630.92"/>
<polygon fill="black" stroke="black" stroke-width="2" points="522.3,-629.42 527.3,-629.42 527.3,-630.42 522.3,-630.42 522.3,-629.42"/>
<polyline fill="none" stroke="black" stroke-width="2" points="524.8,-628.92 524.8,-631.42"/>
</g>
<!-- INE5404&#45;&gt;INE5406 -->
<!-- INE5408 -->
<g id="node15" class="node">
<title>INE5408</title>
<polygon fill="lightblue" stroke="black" points="908.4,-916 807.6,-916 807.6,-880 908.4,-880 908.4,-916"/>
<text text-anchor="middle" x="858" y="-892.58" font-family="Arial" font-size="14.00">INE5408</text>
</g>
<!-- INE5404&#45;&gt;INE5408 -->
<g id="edge48" class="edge">
<title>INE5404&#45;&gt;INE5408</title>
<path fill="none" stroke="black" stroke-width="2" d="M1073.22,-1267C1020.33,-1267 945.11,-1267 945.11,-1267 945.11,-1267 945.11,-898 945.11,-898 945.11,-898 911.17,-898 911.17,-898"/>
<polygon fill="black" stroke="black" stroke-width="2" points="909.67,-900.5 909.67,-895.5 910.67,-895.5 910.67,-900.5 909.67,-900.5"/>
<polyline fill="none" stroke="black" stroke-width="2" points="909.17,-898 911.67,-898"/>
</g>
<!-- INE5410 -->
<g id="node16" class="node">
<title>INE5410</title>
<polygon fill="lightblue" stroke="black" points="908.4,-844 807.6,-844 807.6,-808 908.4,-808 908.4,-844"/>
<text text-anchor="middle" x="858" y="-820.58" font-family="Arial" font-size="14.00">INE5410</text>
</g>
<!-- INE5404&#45;&gt;INE5410 -->
<g id="edge49" class="edge">
<title>INE5404&#45;&gt;INE5410</title>
<path fill="none" stroke="black" stroke-width="2" d="M1073.21,-1258C1026.17,-1258 963.47,-1258 963.47,-1258 963.47,-1258 963.47,-826 963.47,-826 963.47,-826 911.38,-826 911.38,-826"/>
<polygon fill="black" stroke="black" stroke-width="2" points="909.88,-828.5 909.88,-823.5 910.88,-823.5 910.88,-828.5 909.88,-828.5"/>
<polyline fill="none" stroke="black" stroke-width="2" points="909.38,-826 911.88,-826"/>
</g>
<!-- INE5414 -->
<g id="node22" class="node">
<title>INE5414</title>
<polygon fill="lightblue" stroke="black" points="714.4,-628 613.6,-628 613.6,-592 714.4,-592 714.4,-628"/>
<text text-anchor="middle" x="664" y="-604.58" font-family="Arial" font-size="14.00">INE5414</text>
</g>
<!-- INE5404&#45;&gt;INE5414 -->
<g id="edge57" class="edge">
<title>INE5404&#45;&gt;INE5414</title>
<path fill="none" stroke="black" stroke-width="2" d="M1073.47,-1249C1032.61,-1249 981.82,-1249 981.82,-1249 981.82,-1249 981.82,-610 981.82,-610 981.82,-610 717.21,-610 717.21,-610"/>
<polygon fill="black" stroke="black" stroke-width="2" points="715.71,-612.5 715.71,-607.5 716.71,-607.5 716.71,-612.5 715.71,-612.5"/>
<polyline fill="none" stroke="black" stroke-width="2" points="715.21,-610 717.71,-610"/>
</g>
<!-- header_2 -->
<g id="node8" class="node">
<title>header_2</title>
<polygon fill="lightgrey" stroke="black" points="1174.4,-1348 1073.6,-1348 1073.6,-1312 1174.4,-1312 1174.4,-1348"/>
<text text-anchor="middle" x="1124" y="-1324.58" font-family="Arial" font-size="14.00">Fase 2</text>
</g>
<!-- header_2&#45;&gt;INE5404 -->
<!-- INE5407 -->
<g id="node10" class="node">
<title>INE5407</title>
<polygon fill="lightblue" stroke="black" points="1174.4,-1132 1073.6,-1132 1073.6,-1096 1174.4,-1096 1174.4,-1132"/>
<text text-anchor="middle" x="1124" y="-1108.58" font-family="Arial" font-size="14.00">INE5407</text>
</g>
<!-- INE5406&#45;&gt;INE5407 -->
<!-- INE5411 -->
<g id="node17" class="node">
<title>INE5411</title>
<polygon fill="lightblue" stroke="black" points="908.4,-772 807.6,-772 807.6,-736 908.4,-736 908.4,-772"/>
<text text-anchor="middle" x="858" y="-748.58" font-family="Arial" font-size="14.00">INE5411</text>
</g>
<!-- INE5406&#45;&gt;INE5411 -->
<g id="edge50" class="edge">
<title>INE5406&#45;&gt;INE5411</title>
<path fill="none" stroke="black" stroke-width="2" d="M1073.28,-1186C1039.08,-1186 1000.18,-1186 1000.18,-1186 1000.18,-1186 1000.18,-754 1000.18,-754 1000.18,-754 911.03,-754 911.03,-754"/>
<polygon fill="black" stroke="black" stroke-width="2" points="909.53,-756.5 909.53,-751.5 910.53,-751.5 910.53,-756.5 909.53,-756.5"/>
<polyline fill="none" stroke="black" stroke-width="2" points="909.03,-754 911.53,-754"/>
</g>
<!-- INE5407&#45;&gt;MTM3120 -->
<!-- INE5428 -->
<g id="node41" class="node">
<title>INE5428</title>
<polygon fill="lightblue" stroke="black" points="240.4,-412 139.6,-412 139.6,-376 240.4,-376 240.4,-412"/>
<text text-anchor="middle" x="190" y="-388.57" font-family="Arial" font-size="14.00">INE5428</text>
</g>
<!-- INE5407&#45;&gt;INE5428 -->
<g id="edge81" class="edge">
<title>INE5407&#45;&gt;INE5428</title>
<path fill="none" stroke="black" stroke-width="2" d="M1073.21,-1114C886.61,-1114 249.68,-1114 249.68,-1114 249.68,-1114 249.68,-394 249.68,-394 249.68,-394 243.37,-394 243.37,-394"/>
<polygon fill="black" stroke="black" stroke-width="2" points="241.87,-396.5 241.87,-391.5 242.87,-391.5 242.87,-396.5 241.87,-396.5"/>
<polyline fill="none" stroke="black" stroke-width="2" points="241.37,-394 243.87,-394"/>
</g>
<!-- MTM3121 -->
<g id="node12" class="node">
<title>MTM3121</title>
<polygon fill="lightblue" stroke="black" points="1174.4,-988 1073.6,-988 1073.6,-952 1174.4,-952 1174.4,-988"/>
<text text-anchor="middle" x="1124" y="-964.58" font-family="Arial" font-size="14.00">MTM3121</text>
</g>
<!-- MTM3120&#45;&gt;MTM3121 -->
<!-- MTM3120&#45;&gt;INE5202 -->
<g id="edge46" class="edge">
<title>MTM3120&#45;&gt;INE5202</title>
<path fill="none" stroke="black" stroke-width="2" d="M1073.12,-1051C1046.15,-1051 1018.53,-1051 1018.53,-1051 1018.53,-1051 1018.53,-970 1018.53,-970 1018.53,-970 911.29,-970 911.29,-970"/>
<polygon fill="black" stroke="black" stroke-width="2" points="909.79,-972.5 909.79,-967.5 910.79,-967.5 910.79,-972.5 909.79,-972.5"/>
<polyline fill="none" stroke="black" stroke-width="2" points="909.29,-970 911.79,-970"/>
</g>
<!-- MTM3131 -->
<g id="node18" class="node">
<title>MTM3131</title>
<polygon fill="lightblue" stroke="black" points="908.4,-700 807.6,-700 807.6,-664 908.4,-664 908.4,-700"/>
<text text-anchor="middle" x="858" y="-676.58" font-family="Arial" font-size="14.00">MTM3131</text>
</g>
<!-- MTM3120&#45;&gt;MTM3131 -->
<g id="edge51" class="edge">
<title>MTM3120&#45;&gt;MTM3131</title>
<path fill="none" stroke="black" stroke-width="2" d="M1073.33,-1042C1054.16,-1042 1036.89,-1042 1036.89,-1042 1036.89,-1042 1036.89,-688 1036.89,-688 1036.89,-688 911.28,-688 911.28,-688"/>
<polygon fill="black" stroke="black" stroke-width="2" points="909.78,-690.5 909.78,-685.5 910.78,-685.5 910.78,-690.5 909.78,-690.5"/>
<polyline fill="none" stroke="black" stroke-width="2" points="909.28,-688 911.78,-688"/>
</g>
<!-- INE5420 -->
<g id="node30" class="node">
<title>INE5420</title>
<polygon fill="lightblue" stroke="black" points="558.4,-412 457.6,-412 457.6,-376 558.4,-376 558.4,-412"/>
<text text-anchor="middle" x="508" y="-388.57" font-family="Arial" font-size="14.00">INE5420</text>
</g>
<!-- MTM3120&#45;&gt;INE5420 -->
<g id="edge67" class="edge">
<title>MTM3120&#45;&gt;INE5420</title>
<path fill="none" stroke="black" stroke-width="2" d="M1073.31,-1033C1063,-1033 1055.24,-1033 1055.24,-1033 1055.24,-1033 1055.24,-436 1055.24,-436 1055.24,-436 508,-436 508,-436 508,-436 508,-414.56 508,-414.56"/>
<polygon fill="black" stroke="black" stroke-width="2" points="505.5,-413.06 510.5,-413.06 510.5,-414.06 505.5,-414.06 505.5,-413.06"/>
<polyline fill="none" stroke="black" stroke-width="2" points="508,-412.56 508,-415.06"/>
</g>
<!-- MTM3121&#45;&gt;INE5202 -->
<g id="edge47" class="edge">
<title>MTM3121&#45;&gt;INE5202</title>
<path fill="none" stroke="black" stroke-width="2" d="M1073.34,-961C1073.34,-961 910.97,-961 910.97,-961"/>
<polygon fill="black" stroke="black" stroke-width="2" points="909.47,-963.5 909.47,-958.5 910.47,-958.5 910.47,-963.5 909.47,-963.5"/>
<polyline fill="none" stroke="black" stroke-width="2" points="908.97,-961 911.47,-961"/>
</g>
<!-- MTM3121&#45;&gt;MTM3131 -->
<g id="edge52" class="edge">
<title>MTM3121&#45;&gt;MTM3131</title>
<path fill="none" stroke="black" stroke-width="2" d="M1107.2,-951.61C1107.2,-887.25 1107.2,-676 1107.2,-676 1107.2,-676 911.23,-676 911.23,-676"/>
<polygon fill="black" stroke="black" stroke-width="2" points="909.73,-678.5 909.73,-673.5 910.73,-673.5 910.73,-678.5 909.73,-678.5"/>
<polyline fill="none" stroke="black" stroke-width="2" points="909.23,-676 911.73,-676"/>
</g>
<!-- MTM3121&#45;&gt;INE5420 -->
<g id="edge68" class="edge">
<title>MTM3121&#45;&gt;INE5420</title>
<path fill="none" stroke="black" stroke-width="2" d="M1140.8,-951.52C1140.8,-856.14 1140.8,-424 1140.8,-424 1140.8,-424 533.2,-424 533.2,-424 533.2,-424 533.2,-414.99 533.2,-414.99"/>
<polygon fill="black" stroke="black" stroke-width="2" points="530.7,-413.49 535.7,-413.49 535.7,-414.49 530.7,-414.49 530.7,-413.49"/>
<polyline fill="none" stroke="black" stroke-width="2" points="533.2,-412.99 533.2,-415.49"/>
</g>
<!-- INE5202&#45;&gt;INE5408 -->
<!-- INE5425 -->
<g id="node36" class="node">
<title>INE5425</title>
<polygon fill="lightblue" stroke="black" points="364.4,-484 263.6,-484 263.6,-448 364.4,-448 364.4,-484"/>
<text text-anchor="middle" x="314" y="-460.57" font-family="Arial" font-size="14.00">INE5425</text>
</g>
<!-- INE5202&#45;&gt;INE5425 -->
<g id="edge73" class="edge">
<title>INE5202&#45;&gt;INE5425</title>
<path fill="none" stroke="black" stroke-width="2" d="M807.51,-970C684.2,-970 377.71,-970 377.71,-970 377.71,-970 377.71,-472 377.71,-472 377.71,-472 367.32,-472 367.32,-472"/>
<polygon fill="black" stroke="black" stroke-width="2" points="365.82,-474.5 365.82,-469.5 366.82,-469.5 366.82,-474.5 365.82,-474.5"/>
<polyline fill="none" stroke="black" stroke-width="2" points="365.32,-472 367.82,-472"/>
</g>
<!-- header_3 -->
<g id="node14" class="node">
<title>header_3</title>
<polygon fill="lightgrey" stroke="black" points="908.4,-1060 807.6,-1060 807.6,-1024 908.4,-1024 908.4,-1060"/>
<text text-anchor="middle" x="858" y="-1036.58" font-family="Arial" font-size="14.00">Fase 3</text>
</g>
<!-- header_3&#45;&gt;INE5202 -->
<!-- INE5408&#45;&gt;INE5410 -->
<!-- INE5408&#45;&gt;INE5413 -->
<g id="edge56" class="edge">
<title>INE5408&#45;&gt;INE5413</title>
<path fill="none" stroke="black" stroke-width="2" d="M807.37,-901C775.76,-901 741.03,-901 741.03,-901 741.03,-901 741.03,-676 741.03,-676 741.03,-676 717.02,-676 717.02,-676"/>
<polygon fill="black" stroke="black" stroke-width="2" points="715.52,-678.5 715.52,-673.5 716.52,-673.5 716.52,-678.5 715.52,-678.5"/>
<polyline fill="none" stroke="black" stroke-width="2" points="715.02,-676 717.52,-676"/>
</g>
<!-- INE5408&#45;&gt;INE5415 -->
<g id="edge59" class="edge">
<title>INE5408&#45;&gt;INE5415</title>
<path fill="none" stroke="black" stroke-width="2" d="M807.39,-895C781.07,-895 754.34,-895 754.34,-895 754.34,-895 754.34,-544 754.34,-544 754.34,-544 717.22,-544 717.22,-544"/>
<polygon fill="black" stroke="black" stroke-width="2" points="715.72,-546.5 715.72,-541.5 716.72,-541.5 716.72,-546.5 715.72,-546.5"/>
<polyline fill="none" stroke="black" stroke-width="2" points="715.22,-544 717.72,-544"/>
</g>
<!-- INE5416 -->
<g id="node24" class="node">
<title>INE5416</title>
<polygon fill="lightblue" stroke="black" points="714.4,-484 613.6,-484 613.6,-448 714.4,-448 714.4,-484"/>
<text text-anchor="middle" x="664" y="-460.57" font-family="Arial" font-size="14.00">INE5416</text>
</g>
<!-- INE5408&#45;&gt;INE5416 -->
<g id="edge60" class="edge">
<title>INE5408&#45;&gt;INE5416</title>
<path fill="none" stroke="black" stroke-width="2" d="M807.28,-890C786.69,-890 767.66,-890 767.66,-890 767.66,-890 767.66,-466 767.66,-466 767.66,-466 717.11,-466 717.11,-466"/>
<polygon fill="black" stroke="black" stroke-width="2" points="715.61,-468.5 715.61,-463.5 716.61,-463.5 716.61,-468.5 715.61,-468.5"/>
<polyline fill="none" stroke="black" stroke-width="2" points="715.11,-466 717.61,-466"/>
</g>
<!-- INE5417 -->
<g id="node25" class="node">
<title>INE5417</title>
<polygon fill="lightblue" stroke="black" points="714.4,-412 613.6,-412 613.6,-376 714.4,-376 714.4,-412"/>
<text text-anchor="middle" x="664" y="-388.57" font-family="Arial" font-size="14.00">INE5417</text>
</g>
<!-- INE5408&#45;&gt;INE5417 -->
<g id="edge61" class="edge">
<title>INE5408&#45;&gt;INE5417</title>
<path fill="none" stroke="black" stroke-width="2" d="M807.48,-885C792.96,-885 780.97,-885 780.97,-885 780.97,-885 780.97,-394 780.97,-394 780.97,-394 717.13,-394 717.13,-394"/>
<polygon fill="black" stroke="black" stroke-width="2" points="715.62,-396.5 715.63,-391.5 716.63,-391.5 716.62,-396.5 715.62,-396.5"/>
<polyline fill="none" stroke="black" stroke-width="2" points="715.13,-394 717.63,-394"/>
</g>
<!-- INE5408&#45;&gt;INE5420 -->
<g id="edge66" class="edge">
<title>INE5408&#45;&gt;INE5420</title>
<path fill="none" stroke="black" stroke-width="2" d="M807.36,-906C723.13,-906 563.42,-906 563.42,-906 563.42,-906 563.42,-400 563.42,-400 563.42,-400 561.19,-400 561.19,-400"/>
<polygon fill="black" stroke="black" stroke-width="2" points="559.69,-402.5 559.69,-397.5 560.69,-397.5 560.69,-402.5 559.69,-402.5"/>
<polyline fill="none" stroke="black" stroke-width="2" points="559.19,-400 561.69,-400"/>
</g>
<!-- INE5423 -->
<g id="node33" class="node">
<title>INE5423</title>
<polygon fill="lightblue" stroke="black" points="364.4,-628 263.6,-628 263.6,-592 364.4,-592 364.4,-628"/>
<text text-anchor="middle" x="314" y="-604.58" font-family="Arial" font-size="14.00">INE5423</text>
</g>
<!-- INE5408&#45;&gt;INE5423 -->
<g id="edge71" class="edge">
<title>INE5408&#45;&gt;INE5423</title>
<path fill="none" stroke="black" stroke-width="2" d="M807.14,-911C686.11,-911 391.03,-911 391.03,-911 391.03,-911 391.03,-619 391.03,-619 391.03,-619 367.02,-619 367.02,-619"/>
<polygon fill="black" stroke="black" stroke-width="2" points="365.52,-621.5 365.52,-616.5 366.52,-616.5 366.52,-621.5 365.52,-621.5"/>
<polyline fill="none" stroke="black" stroke-width="2" points="365.02,-619 367.52,-619"/>
</g>
<!-- INE5410&#45;&gt;INE5411 -->
<!-- INE5412 -->
<g id="node19" class="node">
<title>INE5412</title>
<polygon fill="lightblue" stroke="black" points="714.4,-772 613.6,-772 613.6,-736 714.4,-736 714.4,-772"/>
<text text-anchor="middle" x="664" y="-748.58" font-family="Arial" font-size="14.00">INE5412</text>
</g>
<!-- INE5410&#45;&gt;INE5412 -->
<g id="edge53" class="edge">
<title>INE5410&#45;&gt;INE5412</title>
<path fill="none" stroke="black" stroke-width="2" d="M807.18,-826C799.61,-826 794.29,-826 794.29,-826 794.29,-826 794.29,-760 794.29,-760 794.29,-760 717.24,-760 717.24,-760"/>
<polygon fill="black" stroke="black" stroke-width="2" points="715.74,-762.5 715.75,-757.5 716.75,-757.5 716.74,-762.5 715.74,-762.5"/>
<polyline fill="none" stroke="black" stroke-width="2" points="715.24,-760 717.74,-760"/>
</g>
<!-- INE5411&#45;&gt;MTM3131 -->
<!-- INE5411&#45;&gt;INE5412 -->
<g id="edge54" class="edge">
<title>INE5411&#45;&gt;INE5412</title>
<path fill="none" stroke="black" stroke-width="2" d="M807.28,-748C807.28,-748 717.26,-748 717.26,-748"/>
<polygon fill="black" stroke="black" stroke-width="2" points="715.76,-750.5 715.76,-745.5 716.76,-745.5 716.76,-750.5 715.76,-750.5"/>
<polyline fill="none" stroke="black" stroke-width="2" points="715.26,-748 717.76,-748"/>
</g>
<!-- INE5412&#45;&gt;INE5413 -->
<!-- INE5418 -->
<g id="node28" class="node">
<title>INE5418</title>
<polygon fill="lightblue" stroke="black" points="558.4,-556 457.6,-556 457.6,-520 558.4,-520 558.4,-556"/>
<text text-anchor="middle" x="508" y="-532.58" font-family="Arial" font-size="14.00">INE5418</text>
</g>
<!-- INE5412&#45;&gt;INE5418 -->
<g id="edge63" class="edge">
<title>INE5412&#45;&gt;INE5418</title>
<path fill="none" stroke="black" stroke-width="2" d="M613.14,-748C590.32,-748 568.44,-748 568.44,-748 568.44,-748 568.44,-547 568.44,-547 568.44,-547 561.23,-547 561.23,-547"/>
<polygon fill="black" stroke="black" stroke-width="2" points="559.73,-549.5 559.73,-544.5 560.73,-544.5 560.73,-549.5 559.73,-549.5"/>
<polyline fill="none" stroke="black" stroke-width="2" points="559.23,-547 561.73,-547"/>
</g>
<!-- INE5424 -->
<g id="node35" class="node">
<title>INE5424</title>
<polygon fill="lightblue" stroke="black" points="364.4,-556 263.6,-556 263.6,-520 364.4,-520 364.4,-556"/>
<text text-anchor="middle" x="314" y="-532.58" font-family="Arial" font-size="14.00">INE5424</text>
</g>
<!-- INE5412&#45;&gt;INE5424 -->
<g id="edge72" class="edge">
<title>INE5412&#45;&gt;INE5424</title>
<path fill="none" stroke="black" stroke-width="2" d="M613.32,-760C537.75,-760 404.34,-760 404.34,-760 404.34,-760 404.34,-538 404.34,-538 404.34,-538 367.22,-538 367.22,-538"/>
<polygon fill="black" stroke="black" stroke-width="2" points="365.72,-540.5 365.72,-535.5 366.72,-535.5 366.72,-540.5 365.72,-540.5"/>
<polyline fill="none" stroke="black" stroke-width="2" points="365.22,-538 367.72,-538"/>
</g>
<!-- header_4 -->
<g id="node20" class="node">
<title>header_4</title>
<polygon fill="lightgrey" stroke="black" points="714.4,-844 613.6,-844 613.6,-808 714.4,-808 714.4,-844"/>
<text text-anchor="middle" x="664" y="-820.58" font-family="Arial" font-size="14.00">Fase 4</text>
</g>
<!-- header_4&#45;&gt;INE5412 -->
<!-- INE5413&#45;&gt;INE5414 -->
<!-- INE5430 -->
<g id="node39" class="node">
<title>INE5430</title>
<polygon fill="lightblue" stroke="black" points="364.4,-268 263.6,-268 263.6,-232 364.4,-232 364.4,-268"/>
<text text-anchor="middle" x="314" y="-244.57" font-family="Arial" font-size="14.00">INE5430</text>
</g>
<!-- INE5413&#45;&gt;INE5430 -->
<g id="edge78" class="edge">
<title>INE5413&#45;&gt;INE5430</title>
<path fill="none" stroke="black" stroke-width="2" d="M613.17,-682C592.53,-682 573.45,-682 573.45,-682 573.45,-682 573.45,-286 573.45,-286 573.45,-286 314,-286 314,-286 314,-286 314,-270.92 314,-270.92"/>
<polygon fill="black" stroke="black" stroke-width="2" points="311.5,-269.42 316.5,-269.42 316.5,-270.42 311.5,-270.42 311.5,-269.42"/>
<polyline fill="none" stroke="black" stroke-width="2" points="314,-268.92 314,-271.42"/>
</g>
<!-- INE5414&#45;&gt;INE5415 -->
<!-- INE5414&#45;&gt;INE5418 -->
<g id="edge64" class="edge">
<title>INE5414&#45;&gt;INE5418</title>
<path fill="none" stroke="black" stroke-width="2" d="M613.47,-621C597.29,-621 583.49,-621 583.49,-621 583.49,-621 583.49,-538 583.49,-538 583.49,-538 561.27,-538 561.27,-538"/>
<polygon fill="black" stroke="black" stroke-width="2" points="559.77,-540.5 559.77,-535.5 560.77,-535.5 560.77,-540.5 559.77,-540.5"/>
<polyline fill="none" stroke="black" stroke-width="2" points="559.27,-538 561.77,-538"/>
</g>
<!-- INE5422 -->
<g id="node32" class="node">
<title>INE5422</title>
<polygon fill="lightblue" stroke="black" points="558.4,-268 457.6,-268 457.6,-232 558.4,-232 558.4,-268"/>
<text text-anchor="middle" x="508" y="-244.57" font-family="Arial" font-size="14.00">INE5422</text>
</g>
<!-- INE5414&#45;&gt;INE5422 -->
<g id="edge70" class="edge">
<title>INE5414&#45;&gt;INE5422</title>
<path fill="none" stroke="black" stroke-width="2" d="M613.4,-599C604.78,-599 598.55,-599 598.55,-599 598.55,-599 598.55,-250 598.55,-250 598.55,-250 561.33,-250 561.33,-250"/>
<polygon fill="black" stroke="black" stroke-width="2" points="559.83,-252.5 559.83,-247.5 560.83,-247.5 560.83,-252.5 559.83,-252.5"/>
<polyline fill="none" stroke="black" stroke-width="2" points="559.33,-250 561.83,-250"/>
</g>
<!-- INE5414&#45;&gt;INE5429 -->
<g id="edge83" class="edge">
<title>INE5414&#45;&gt;INE5429</title>
<path fill="none" stroke="black" stroke-width="2" d="M613.23,-614C599.57,-614 588.51,-614 588.51,-614 588.51,-614 588.51,-364 588.51,-364 588.51,-364 206.8,-364 206.8,-364 206.8,-364 206.8,-342.56 206.8,-342.56"/>
<polygon fill="black" stroke="black" stroke-width="2" points="204.3,-341.06 209.3,-341.06 209.3,-342.06 204.3,-342.06 204.3,-341.06"/>
<polyline fill="none" stroke="black" stroke-width="2" points="206.8,-340.56 206.8,-343.06"/>
</g>
<!-- INE5431 -->
<g id="node44" class="node">
<title>INE5431</title>
<polygon fill="lightblue" stroke="black" points="240.4,-268 139.6,-268 139.6,-232 240.4,-232 240.4,-268"/>
<text text-anchor="middle" x="190" y="-244.57" font-family="Arial" font-size="14.00">INE5431</text>
</g>
<!-- INE5414&#45;&gt;INE5431 -->
<g id="edge84" class="edge">
<title>INE5414&#45;&gt;INE5431</title>
<path fill="none" stroke="black" stroke-width="2" d="M613.16,-606C602.04,-606 593.53,-606 593.53,-606 593.53,-606 593.53,-295 593.53,-295 593.53,-295 206.8,-295 206.8,-295 206.8,-295 206.8,-270.8 206.8,-270.8"/>
<polygon fill="black" stroke="black" stroke-width="2" points="204.3,-269.3 209.3,-269.3 209.3,-270.3 204.3,-270.3 204.3,-269.3"/>
<polyline fill="none" stroke="black" stroke-width="2" points="206.8,-268.8 206.8,-271.3"/>
</g>
<!-- INE5415&#45;&gt;INE5416 -->
<!-- INE5421 -->
<g id="node31" class="node">
<title>INE5421</title>
<polygon fill="lightblue" stroke="black" points="558.4,-340 457.6,-340 457.6,-304 558.4,-304 558.4,-340"/>
<text text-anchor="middle" x="508" y="-316.57" font-family="Arial" font-size="14.00">INE5421</text>
</g>
<!-- INE5415&#45;&gt;INE5421 -->
<g id="edge69" class="edge">
<title>INE5415&#45;&gt;INE5421</title>
<path fill="none" stroke="black" stroke-width="2" d="M613.27,-529C607.46,-529 603.56,-529 603.56,-529 603.56,-529 603.56,-322 603.56,-322 603.56,-322 561.36,-322 561.36,-322"/>
<polygon fill="black" stroke="black" stroke-width="2" points="559.86,-324.5 559.86,-319.5 560.86,-319.5 560.86,-324.5 559.86,-324.5"/>
<polyline fill="none" stroke="black" stroke-width="2" points="559.36,-322 561.86,-322"/>
</g>
<!-- INE5416&#45;&gt;INE5417 -->
<!-- INE5416&#45;&gt;INE5430 -->
<g id="edge79" class="edge">
<title>INE5416&#45;&gt;INE5430</title>
<path fill="none" stroke="black" stroke-width="2" d="M613.31,-472C610.37,-472 608.58,-472 608.58,-472 608.58,-472 608.58,-277 608.58,-277 608.58,-277 339.2,-277 339.2,-277 339.2,-277 339.2,-270.96 339.2,-270.96"/>
<polygon fill="black" stroke="black" stroke-width="2" points="336.7,-269.46 341.7,-269.46 341.7,-270.46 336.7,-270.46 336.7,-269.46"/>
<polyline fill="none" stroke="black" stroke-width="2" points="339.2,-268.96 339.2,-271.46"/>
</g>
<!-- INE5419 -->
<g id="node29" class="node">
<title>INE5419</title>
<polygon fill="lightblue" stroke="black" points="558.4,-484 457.6,-484 457.6,-448 558.4,-448 558.4,-484"/>
<text text-anchor="middle" x="508" y="-460.57" font-family="Arial" font-size="14.00">INE5419</text>
</g>
<!-- INE5417&#45;&gt;INE5419 -->
<g id="edge65" class="edge">
<title>INE5417&#45;&gt;INE5419</title>
<path fill="none" stroke="black" stroke-width="2" d="M613.26,-388C594.84,-388 578.47,-388 578.47,-388 578.47,-388 578.47,-460 578.47,-460 578.47,-460 561.34,-460 561.34,-460"/>
<polygon fill="black" stroke="black" stroke-width="2" points="559.84,-462.5 559.84,-457.5 560.84,-457.5 560.84,-462.5 559.84,-462.5"/>
<polyline fill="none" stroke="black" stroke-width="2" points="559.34,-460 561.84,-460"/>
</g>
<!-- INE5427 -->
<g id="node38" class="node">
<title>INE5427</title>
<polygon fill="lightblue" stroke="black" points="364.4,-340 263.6,-340 263.6,-304 364.4,-304 364.4,-340"/>
<text text-anchor="middle" x="314" y="-316.57" font-family="Arial" font-size="14.00">INE5427</text>
</g>
<!-- INE5417&#45;&gt;INE5427 -->
<g id="edge76" class="edge">
<title>INE5417&#45;&gt;INE5427</title>
<path fill="none" stroke="black" stroke-width="2" d="M647.2,-375.94C647.2,-364.56 647.2,-352 647.2,-352 647.2,-352 330.8,-352 330.8,-352 330.8,-352 330.8,-342.99 330.8,-342.99"/>
<polygon fill="black" stroke="black" stroke-width="2" points="328.3,-341.49 333.3,-341.49 333.3,-342.49 328.3,-342.49 328.3,-341.49"/>
<polyline fill="none" stroke="black" stroke-width="2" points="330.8,-340.99 330.8,-343.49"/>
</g>
<!-- INE5453 -->
<g id="node40" class="node">
<title>INE5453</title>
<polygon fill="lightblue" stroke="black" points="364.4,-196 263.6,-196 263.6,-160 364.4,-160 364.4,-196"/>
<text text-anchor="middle" x="314" y="-172.57" font-family="Arial" font-size="14.00">INE5453</text>
</g>
<!-- INE5417&#45;&gt;INE5453 -->
<g id="edge80" class="edge">
<title>INE5417&#45;&gt;INE5453</title>
<path fill="none" stroke="black" stroke-width="2" d="M680.8,-375.58C680.8,-323.35 680.8,-178 680.8,-178 680.8,-178 367.12,-178 367.12,-178"/>
<polygon fill="black" stroke="black" stroke-width="2" points="365.62,-180.5 365.62,-175.5 366.62,-175.5 366.62,-180.5 365.62,-180.5"/>
<polyline fill="none" stroke="black" stroke-width="2" points="365.12,-178 367.62,-178"/>
</g>
<!-- INE5405&#45;&gt;INE5418 -->
<!-- INE5405&#45;&gt;INE5425 -->
<g id="edge74" class="edge">
<title>INE5405&#45;&gt;INE5425</title>
<path fill="none" stroke="black" stroke-width="2" d="M457.28,-610C436.69,-610 417.66,-610 417.66,-610 417.66,-610 417.66,-460 417.66,-460 417.66,-460 367.11,-460 367.11,-460"/>
<polygon fill="black" stroke="black" stroke-width="2" points="365.61,-462.5 365.61,-457.5 366.61,-457.5 366.61,-462.5 365.61,-462.5"/>
<polyline fill="none" stroke="black" stroke-width="2" points="365.11,-460 367.61,-460"/>
</g>
<!-- INE5405&#45;&gt;INE5430 -->
<g id="edge77" class="edge">
<title>INE5405&#45;&gt;INE5430</title>
<path fill="none" stroke="black" stroke-width="2" d="M457.48,-601C442.96,-601 430.97,-601 430.97,-601 430.97,-601 430.97,-250 430.97,-250 430.97,-250 367.13,-250 367.13,-250"/>
<polygon fill="black" stroke="black" stroke-width="2" points="365.62,-252.5 365.63,-247.5 366.63,-247.5 366.62,-252.5 365.62,-252.5"/>
<polyline fill="none" stroke="black" stroke-width="2" points="365.13,-250 367.63,-250"/>
</g>
<!-- header_5 -->
<g id="node27" class="node">
<title>header_5</title>
<polygon fill="lightgrey" stroke="black" points="558.4,-700 457.6,-700 457.6,-664 558.4,-664 558.4,-700"/>
<text text-anchor="middle" x="508" y="-676.58" font-family="Arial" font-size="14.00">Fase 5</text>
</g>
<!-- header_5&#45;&gt;INE5405 -->
<!-- INE5418&#45;&gt;INE5419 -->
<!-- INE5419&#45;&gt;INE5420 -->
<!-- INE5420&#45;&gt;INE5421 -->
<!-- INE5421&#45;&gt;INE5422 -->
<!-- INE5426 -->
<g id="node37" class="node">
<title>INE5426</title>
<polygon fill="lightblue" stroke="black" points="364.4,-412 263.6,-412 263.6,-376 364.4,-376 364.4,-412"/>
<text text-anchor="middle" x="314" y="-388.57" font-family="Arial" font-size="14.00">INE5426</text>
</g>
<!-- INE5421&#45;&gt;INE5426 -->
<g id="edge75" class="edge">
<title>INE5421&#45;&gt;INE5426</title>
<path fill="none" stroke="black" stroke-width="2" d="M457.18,-322C449.61,-322 444.29,-322 444.29,-322 444.29,-322 444.29,-394 444.29,-394 444.29,-394 367.24,-394 367.24,-394"/>
<polygon fill="black" stroke="black" stroke-width="2" points="365.74,-396.5 365.75,-391.5 366.75,-391.5 366.74,-396.5 365.74,-396.5"/>
<polyline fill="none" stroke="black" stroke-width="2" points="365.24,-394 367.74,-394"/>
</g>
<!-- INE5423&#45;&gt;INE5424 -->
<!-- INE5432 -->
<g id="node45" class="node">
<title>INE5432</title>
<polygon fill="lightblue" stroke="black" points="240.4,-196 139.6,-196 139.6,-160 240.4,-160 240.4,-196"/>
<text text-anchor="middle" x="190" y="-172.57" font-family="Arial" font-size="14.00">INE5432</text>
</g>
<!-- INE5423&#45;&gt;INE5432 -->
<g id="edge85" class="edge">
<title>INE5423&#45;&gt;INE5432</title>
<path fill="none" stroke="black" stroke-width="2" d="M263.13,-610C257.82,-610 254.32,-610 254.32,-610 254.32,-610 254.32,-178 254.32,-178 254.32,-178 243.18,-178 243.18,-178"/>
<polygon fill="black" stroke="black" stroke-width="2" points="241.68,-180.5 241.68,-175.5 242.68,-175.5 242.68,-180.5 241.68,-180.5"/>
<polyline fill="none" stroke="black" stroke-width="2" points="241.18,-178 243.68,-178"/>
</g>
<!-- header_6 -->
<g id="node34" class="node">
<title>header_6</title>
<polygon fill="lightgrey" stroke="black" points="364.4,-700 263.6,-700 263.6,-664 364.4,-664 364.4,-700"/>
<text text-anchor="middle" x="314" y="-676.58" font-family="Arial" font-size="14.00">Fase 6</text>
</g>
<!-- header_6&#45;&gt;INE5423 -->
<!-- INE5424&#45;&gt;INE5425 -->
<!-- INE5425&#45;&gt;INE5426 -->
<!-- INE5426&#45;&gt;INE5427 -->
<!-- INE5427&#45;&gt;INE5430 -->
<!-- INE5433 -->
<g id="node46" class="node">
<title>INE5433</title>
<polygon fill="lightblue" stroke="black" points="240.4,-124 139.6,-124 139.6,-88 240.4,-88 240.4,-124"/>
<text text-anchor="middle" x="190" y="-100.58" font-family="Arial" font-size="14.00">INE5433</text>
</g>
<!-- INE5427&#45;&gt;INE5433 -->
<g id="edge86" class="edge">
<title>INE5427&#45;&gt;INE5433</title>
<path fill="none" stroke="black" stroke-width="2" d="M263.28,-316C260.59,-316 258.96,-316 258.96,-316 258.96,-316 258.96,-112 258.96,-112 258.96,-112 243.34,-112 243.34,-112"/>
<polygon fill="black" stroke="black" stroke-width="2" points="241.84,-114.5 241.84,-109.5 242.84,-109.5 242.84,-114.5 241.84,-114.5"/>
<polyline fill="none" stroke="black" stroke-width="2" points="241.34,-112 243.84,-112"/>
</g>
<!-- INE5430&#45;&gt;INE5453 -->
<!-- INE5453&#45;&gt;INE5433 -->
<g id="edge87" class="edge">
<title>INE5453&#45;&gt;INE5433</title>
<path fill="none" stroke="black" stroke-width="2" d="M314,-159.52C314,-136.45 314,-100 314,-100 314,-100 243.29,-100 243.29,-100"/>
<polygon fill="black" stroke="black" stroke-width="2" points="241.79,-102.5 241.79,-97.5 242.79,-97.5 242.79,-102.5 241.79,-102.5"/>
<polyline fill="none" stroke="black" stroke-width="2" points="241.29,-100 243.79,-100"/>
</g>
<!-- INE5428&#45;&gt;INE5429 -->
<!-- header_7 -->
<g id="node42" class="node">
<title>header_7</title>
<polygon fill="lightgrey" stroke="black" points="240.4,-484 139.6,-484 139.6,-448 240.4,-448 240.4,-484"/>
<text text-anchor="middle" x="190" y="-460.57" font-family="Arial" font-size="14.00">Fase 7</text>
</g>
<!-- header_7&#45;&gt;INE5428 -->
<!-- INE5429&#45;&gt;INE5431 -->
<!-- INE5431&#45;&gt;INE5432 -->
<!-- INE5432&#45;&gt;INE5433 -->
<!-- INE5434 -->
<g id="node47" class="node">
<title>INE5434</title>
<polygon fill="lightblue" stroke="black" points="116.4,-52 15.6,-52 15.6,-16 116.4,-16 116.4,-52"/>
<text text-anchor="middle" x="66" y="-28.57" font-family="Arial" font-size="14.00">INE5434</text>
</g>
<!-- INE5433&#45;&gt;INE5434 -->
<g id="edge88" class="edge">
<title>INE5433&#45;&gt;INE5434</title>
<path fill="none" stroke="black" stroke-width="2" d="M190,-87.83C190,-66.5 190,-34 190,-34 190,-34 119.29,-34 119.29,-34"/>
<polygon fill="black" stroke="black" stroke-width="2" points="117.79,-36.5 117.79,-31.5 118.79,-31.5 118.79,-36.5 117.79,-36.5"/>
<polyline fill="none" stroke="black" stroke-width="2" points="117.29,-34 119.79,-34"/>
</g>
<!-- header_8 -->
<g id="node48" class="node">
<title>header_8</title>
<polygon fill="lightgrey" stroke="black" points="116.4,-124 15.6,-124 15.6,-88 116.4,-88 116.4,-124"/>
<text text-anchor="middle" x="66" y="-100.58" font-family="Arial" font-size="14.00">Fase 8</text>
</g>
<!-- header_8&#45;&gt;INE5434 -->
<!-- INE7011 -->
<g id="node49" class="node">
<title>INE7011</title>
<polygon fill="lightblue" stroke="black" points="1602.4,-1492 1501.6,-1492 1501.6,-1456 1602.4,-1456 1602.4,-1492"/>
<text text-anchor="middle" x="1552" y="-1468.58" font-family="Arial" font-size="14.00">INE7011</text>
</g>
<!-- header_999 -->
<g id="node50" class="node">
<title>header_999</title>
<polygon fill="lightgrey" stroke="black" points="1602.4,-1564 1501.6,-1564 1501.6,-1528 1602.4,-1528 1602.4,-1564"/>
<text text-anchor="middle" x="1552" y="-1540.58" font-family="Arial" font-size="14.00">Fase 999</text>
</g>
<!-- header_999&#45;&gt;INE7011 -->
</g>
</svg>
