<?xml version="1.0" encoding="UTF-8" standalone="no"?>
<!DOCTYPE svg PUBLIC "-//W3C//DTD SVG 1.1//EN"
 "http://www.w3.org/Graphics/SVG/1.1/DTD/svg11.dtd">
<!-- Generated by graphviz version 12.2.1 (20241206.2353)
 -->
<!-- Title: curriculum&#45;graph&#45;compsci&#45;ufsc Pages: 1 -->
<svg width="1114pt" height="590pt"
 viewBox="0.00 0.00 1114.40 590.00" xmlns="http://www.w3.org/2000/svg" xmlns:xlink="http://www.w3.org/1999/xlink">
<g id="graph0" class="graph" transform="scale(1 1) rotate(0) translate(4 586)">
<title>curriculum&#45;graph&#45;compsci&#45;ufsc</title>
<polygon fill="none" stroke="none" points="-4,4 -4,-586 1110.4,-586 1110.4,4 -4,4"/>
<g id="clust1" class="cluster">
<title>cluster_everything</title>
<polygon fill="none" stroke="none" points="8,-8 8,-574 1098.4,-574 1098.4,-8 8,-8"/>
</g>
<g id="clust2" class="cluster">
<title>cluster_1</title>
<polygon fill="none" stroke="none" points="16,-204 16,-492 132.8,-492 132.8,-204 16,-204"/>
</g>
<g id="clust3" class="cluster">
<title>cluster_2</title>
<polygon fill="none" stroke="none" points="152.8,-88 152.8,-434 269.6,-434 269.6,-88 152.8,-88"/>
</g>
<g id="clust4" class="cluster">
<title>cluster_3</title>
<polygon fill="none" stroke="none" points="289.6,-147 289.6,-435 406.4,-435 406.4,-147 289.6,-147"/>
</g>
<g id="clust5" class="cluster">
<title>cluster_4</title>
<polygon fill="none" stroke="none" points="426.4,-208 426.4,-554 543.2,-554 543.2,-208 426.4,-208"/>
</g>
<g id="clust6" class="cluster">
<title>cluster_5</title>
<polygon fill="none" stroke="none" points="563.2,-68 563.2,-414 680,-414 680,-68 563.2,-68"/>
</g>
<g id="clust7" class="cluster">
<title>cluster_6</title>
<polygon fill="none" stroke="none" points="700,-90 700,-494 816.8,-494 816.8,-90 700,-90"/>
</g>
<g id="clust8" class="cluster">
<title>cluster_7</title>
<polygon fill="none" stroke="none" points="836.8,-247 836.8,-535 953.6,-535 953.6,-247 836.8,-247"/>
</g>
<g id="clust9" class="cluster">
<title>cluster_8</title>
<polygon fill="none" stroke="none" points="973.6,-346 973.6,-566 1090.4,-566 1090.4,-346 973.6,-346"/>
</g>
<!-- eel5105 -->
<g id="node1" class="node">
<title>eel5105</title>
<polygon fill="#80b1d3" stroke="#80b1d3" points="124.8,-367.75 24,-367.75 24,-328.25 124.8,-328.25 124.8,-367.75"/>
<text text-anchor="middle" x="74.4" y="-350.45" font-family="Arial" font-size="14.00">EEL5105</text>
<text text-anchor="middle" x="74.4" y="-334.7" font-family="Arial" font-size="14.00">Circuitos</text>
</g>
<!-- ine5406 -->
<g id="node7" class="node">
<title>ine5406</title>
<polygon fill="#80b1d3" stroke="#80b1d3" points="261.6,-367.75 160.8,-367.75 160.8,-328.25 261.6,-328.25 261.6,-367.75"/>
<text text-anchor="middle" x="211.2" y="-350.45" font-family="Arial" font-size="14.00">INE5406</text>
<text text-anchor="middle" x="211.2" y="-334.7" font-family="Arial" font-size="14.00">Sist. Digitais</text>
</g>
<!-- eel5105&#45;&gt;ine5406 -->
<g id="edge1" class="edge">
<title>eel5105&#45;&gt;ine5406</title>
<path fill="none" stroke="#80b1d3" stroke-width="2" d="M124.95,-348C124.95,-348 157.9,-348 157.9,-348"/>
<polygon fill="#80b1d3" stroke="#80b1d3" stroke-width="2" points="159.4,-345.5 159.4,-350.5 158.4,-350.5 158.4,-345.5 159.4,-345.5"/>
<polyline fill="none" stroke="#80b1d3" stroke-width="2" points="159.9,-348 157.4,-348"/>
</g>
<!-- ine5401 -->
<g id="node2" class="node">
<title>ine5401</title>
<polygon fill="#bebada" stroke="#bebada" points="124.8,-309.75 24,-309.75 24,-270.25 124.8,-270.25 124.8,-309.75"/>
<text text-anchor="middle" x="74.4" y="-292.45" font-family="Arial" font-size="14.00">INE5401</text>
<text text-anchor="middle" x="74.4" y="-276.7" font-family="Arial" font-size="14.00">Introdução</text>
</g>
<!-- ine5402 -->
<g id="node3" class="node">
<title>ine5402</title>
<polygon fill="#fb8072" stroke="#fb8072" points="124.8,-425.75 24,-425.75 24,-386.25 124.8,-386.25 124.8,-425.75"/>
<text text-anchor="middle" x="74.4" y="-408.45" font-family="Arial" font-size="14.00">INE5402</text>
<text text-anchor="middle" x="74.4" y="-392.7" font-family="Arial" font-size="14.00">POO I</text>
</g>
<!-- ine5404 -->
<g id="node6" class="node">
<title>ine5404</title>
<polygon fill="#fb8072" stroke="#fb8072" points="261.6,-425.75 160.8,-425.75 160.8,-386.25 261.6,-386.25 261.6,-425.75"/>
<text text-anchor="middle" x="211.2" y="-408.45" font-family="Arial" font-size="14.00">INE5404</text>
<text text-anchor="middle" x="211.2" y="-392.7" font-family="Arial" font-size="14.00">POO II</text>
</g>
<!-- ine5402&#45;&gt;ine5404 -->
<g id="edge3" class="edge">
<title>ine5402&#45;&gt;ine5404</title>
<path fill="none" stroke="#fb8072" stroke-width="2" d="M124.95,-406C124.95,-406 157.9,-406 157.9,-406"/>
<polygon fill="#fb8072" stroke="#fb8072" stroke-width="2" points="159.4,-403.5 159.4,-408.5 158.4,-408.5 158.4,-403.5 159.4,-403.5"/>
<polyline fill="none" stroke="#fb8072" stroke-width="2" points="159.9,-406 157.4,-406"/>
</g>
<!-- ine5403 -->
<g id="node4" class="node">
<title>ine5403</title>
<polygon fill="#8dd3c7" stroke="#8dd3c7" points="124.8,-483.75 24,-483.75 24,-444.25 124.8,-444.25 124.8,-483.75"/>
<text text-anchor="middle" x="74.4" y="-466.45" font-family="Arial" font-size="14.00">INE5403</text>
<text text-anchor="middle" x="74.4" y="-450.7" font-family="Arial" font-size="14.00">Mat. Discreta</text>
</g>
<!-- ine5413 -->
<g id="node18" class="node">
<title>ine5413</title>
<polygon fill="#8dd3c7" stroke="#8dd3c7" points="535.2,-545.75 434.4,-545.75 434.4,-506.25 535.2,-506.25 535.2,-545.75"/>
<text text-anchor="middle" x="484.8" y="-528.45" font-family="Arial" font-size="14.00">INE5413</text>
<text text-anchor="middle" x="484.8" y="-512.7" font-family="Arial" font-size="14.00">Grafos</text>
</g>
<!-- ine5403&#45;&gt;ine5413 -->
<g id="edge4" class="edge">
<title>ine5403&#45;&gt;ine5413</title>
<path fill="none" stroke="#8dd3c7" stroke-width="2" d="M57.4,-484.21C57.4,-504.44 57.4,-532.58 57.4,-532.58 57.4,-532.58 431.59,-532.58 431.59,-532.58"/>
<polygon fill="#8dd3c7" stroke="#8dd3c7" stroke-width="2" points="433.09,-530.08 433.09,-535.08 432.09,-535.08 432.09,-530.08 433.09,-530.08"/>
<polyline fill="none" stroke="#8dd3c7" stroke-width="2" points="433.59,-532.58 431.09,-532.58"/>
</g>
<!-- ine5415 -->
<g id="node20" class="node">
<title>ine5415</title>
<polygon fill="#8dd3c7" stroke="#8dd3c7" points="535.2,-313.75 434.4,-313.75 434.4,-274.25 535.2,-274.25 535.2,-313.75"/>
<text text-anchor="middle" x="484.8" y="-296.45" font-family="Arial" font-size="14.00">INE5415</text>
<text text-anchor="middle" x="484.8" y="-280.7" font-family="Arial" font-size="14.00">TC</text>
</g>
<!-- ine5403&#45;&gt;ine5415 -->
<g id="edge5" class="edge">
<title>ine5403&#45;&gt;ine5415</title>
<path fill="none" stroke="#8dd3c7" stroke-width="2" d="M125.21,-460.08C222.69,-460.08 426.4,-460.08 426.4,-460.08 426.4,-460.08 426.4,-301.62 426.4,-301.62 426.4,-301.62 431.53,-301.62 431.53,-301.62"/>
<polygon fill="#8dd3c7" stroke="#8dd3c7" stroke-width="2" points="433.03,-299.13 433.03,-304.13 432.03,-304.13 432.03,-299.13 433.03,-299.13"/>
<polyline fill="none" stroke="#8dd3c7" stroke-width="2" points="433.53,-301.63 431.03,-301.63"/>
</g>
<!-- ine5429 -->
<g id="node37" class="node">
<title>ine5429</title>
<polygon fill="#8dd3c7" stroke="#8dd3c7" points="945.6,-526.75 844.8,-526.75 844.8,-487.25 945.6,-487.25 945.6,-526.75"/>
<text text-anchor="middle" x="895.2" y="-509.45" font-family="Arial" font-size="14.00">INE5429</text>
<text text-anchor="middle" x="895.2" y="-493.7" font-family="Arial" font-size="14.00">Segurança</text>
</g>
<!-- ine5403&#45;&gt;ine5429 -->
<g id="edge6" class="edge">
<title>ine5403&#45;&gt;ine5429</title>
<path fill="none" stroke="#8dd3c7" stroke-width="2" d="M91.4,-484.15C91.4,-492.42 91.4,-500.08 91.4,-500.08 91.4,-500.08 841.81,-500.08 841.81,-500.08"/>
<polygon fill="#8dd3c7" stroke="#8dd3c7" stroke-width="2" points="843.31,-497.58 843.31,-502.58 842.31,-502.58 842.31,-497.58 843.31,-497.58"/>
<polyline fill="none" stroke="#8dd3c7" stroke-width="2" points="843.81,-500.08 841.31,-500.08"/>
</g>
<!-- mtm3110 -->
<g id="node5" class="node">
<title>mtm3110</title>
<polygon fill="#fdb462" stroke="#fdb462" points="124.8,-251.75 24,-251.75 24,-212.25 124.8,-212.25 124.8,-251.75"/>
<text text-anchor="middle" x="74.4" y="-234.45" font-family="Arial" font-size="14.00">MTM3110</text>
<text text-anchor="middle" x="74.4" y="-218.7" font-family="Arial" font-size="14.00">Cálculo 1</text>
</g>
<!-- mtm3120 -->
<g id="node10" class="node">
<title>mtm3120</title>
<polygon fill="#fdb462" stroke="#fdb462" points="261.6,-251.75 160.8,-251.75 160.8,-212.25 261.6,-212.25 261.6,-251.75"/>
<text text-anchor="middle" x="211.2" y="-234.45" font-family="Arial" font-size="14.00">MTM3120</text>
<text text-anchor="middle" x="211.2" y="-218.7" font-family="Arial" font-size="14.00">Cálculo 2</text>
</g>
<!-- mtm3110&#45;&gt;mtm3120 -->
<g id="edge40" class="edge">
<title>mtm3110&#45;&gt;mtm3120</title>
<path fill="none" stroke="#fdb462" stroke-width="2" d="M124.95,-232C124.95,-232 157.9,-232 157.9,-232"/>
<polygon fill="#fdb462" stroke="#fdb462" stroke-width="2" points="159.4,-229.5 159.4,-234.5 158.4,-234.5 158.4,-229.5 159.4,-229.5"/>
<polyline fill="none" stroke="#fdb462" stroke-width="2" points="159.9,-232 157.4,-232"/>
</g>
<!-- ine5405 -->
<g id="node23" class="node">
<title>ine5405</title>
<polygon fill="#fdb462" stroke="#fdb462" points="672,-115.75 571.2,-115.75 571.2,-76.25 672,-76.25 672,-115.75"/>
<text text-anchor="middle" x="621.6" y="-98.45" font-family="Arial" font-size="14.00">INE5405</text>
<text text-anchor="middle" x="621.6" y="-82.7" font-family="Arial" font-size="14.00">Prob. e Est.</text>
</g>
<!-- mtm3110&#45;&gt;ine5405 -->
<g id="edge39" class="edge">
<title>mtm3110&#45;&gt;ine5405</title>
<path fill="none" stroke="#fdb462" stroke-width="2" d="M74.4,-212.04C74.4,-172.12 74.4,-86.25 74.4,-86.25 74.4,-86.25 568.6,-86.25 568.6,-86.25"/>
<polygon fill="#fdb462" stroke="#fdb462" stroke-width="2" points="570.1,-83.75 570.1,-88.75 569.1,-88.75 569.1,-83.75 570.1,-83.75"/>
<polyline fill="none" stroke="#fdb462" stroke-width="2" points="570.6,-86.25 568.1,-86.25"/>
</g>
<!-- ine5408 -->
<g id="node13" class="node">
<title>ine5408</title>
<polygon fill="#fb8072" stroke="#fb8072" points="398.4,-426.75 297.6,-426.75 297.6,-387.25 398.4,-387.25 398.4,-426.75"/>
<text text-anchor="middle" x="348" y="-409.45" font-family="Arial" font-size="14.00">INE5408</text>
<text text-anchor="middle" x="348" y="-393.7" font-family="Arial" font-size="14.00">ED</text>
</g>
<!-- ine5404&#45;&gt;ine5408 -->
<g id="edge7" class="edge">
<title>ine5404&#45;&gt;ine5408</title>
<path fill="none" stroke="#fb8072" stroke-width="2" d="M261.75,-412.92C261.75,-412.92 294.7,-412.92 294.7,-412.92"/>
<polygon fill="#fb8072" stroke="#fb8072" stroke-width="2" points="296.2,-410.42 296.2,-415.42 295.2,-415.42 295.2,-410.42 296.2,-410.42"/>
<polyline fill="none" stroke="#fb8072" stroke-width="2" points="296.7,-412.92 294.2,-412.92"/>
</g>
<!-- ine5410 -->
<g id="node14" class="node">
<title>ine5410</title>
<polygon fill="#80b1d3" stroke="#80b1d3" points="398.4,-368.75 297.6,-368.75 297.6,-329.25 398.4,-329.25 398.4,-368.75"/>
<text text-anchor="middle" x="348" y="-351.45" font-family="Arial" font-size="14.00">INE5410</text>
<text text-anchor="middle" x="348" y="-335.7" font-family="Arial" font-size="14.00">Prog. Conc.</text>
</g>
<!-- ine5404&#45;&gt;ine5410 -->
<g id="edge8" class="edge">
<title>ine5404&#45;&gt;ine5410</title>
<path fill="none" stroke="#fb8072" stroke-width="2" d="M261.99,-400.08C277.91,-400.08 291.4,-400.08 291.4,-400.08 291.4,-400.08 291.4,-354.92 291.4,-354.92 291.4,-354.92 294.96,-354.92 294.96,-354.92"/>
<polygon fill="#fb8072" stroke="#fb8072" stroke-width="2" points="296.46,-352.42 296.46,-357.42 295.46,-357.42 295.46,-352.42 296.46,-352.42"/>
<polyline fill="none" stroke="#fb8072" stroke-width="2" points="296.96,-354.92 294.46,-354.92"/>
</g>
<!-- ine5414 -->
<g id="node19" class="node">
<title>ine5414</title>
<polygon fill="#bebada" stroke="#bebada" points="535.2,-487.75 434.4,-487.75 434.4,-448.25 535.2,-448.25 535.2,-487.75"/>
<text text-anchor="middle" x="484.8" y="-470.45" font-family="Arial" font-size="14.00">INE5414</text>
<text text-anchor="middle" x="484.8" y="-454.7" font-family="Arial" font-size="14.00">Redes I</text>
</g>
<!-- ine5404&#45;&gt;ine5414 -->
<g id="edge9" class="edge">
<title>ine5404&#45;&gt;ine5414</title>
<path fill="none" stroke="#fb8072" stroke-width="2" d="M211.4,-426.14C211.4,-445.52 211.4,-471.92 211.4,-471.92 211.4,-471.92 431.52,-471.92 431.52,-471.92"/>
<polygon fill="#fb8072" stroke="#fb8072" stroke-width="2" points="433.02,-469.42 433.02,-474.42 432.02,-474.42 432.02,-469.42 433.02,-469.42"/>
<polyline fill="none" stroke="#fb8072" stroke-width="2" points="433.52,-471.92 431.02,-471.92"/>
</g>
<!-- ine5411 -->
<g id="node15" class="node">
<title>ine5411</title>
<polygon fill="#80b1d3" stroke="#80b1d3" points="398.4,-310.75 297.6,-310.75 297.6,-271.25 398.4,-271.25 398.4,-310.75"/>
<text text-anchor="middle" x="348" y="-293.45" font-family="Arial" font-size="14.00">INE5411</text>
<text text-anchor="middle" x="348" y="-277.7" font-family="Arial" font-size="14.00">Org. Comp.</text>
</g>
<!-- ine5406&#45;&gt;ine5411 -->
<g id="edge12" class="edge">
<title>ine5406&#45;&gt;ine5411</title>
<path fill="none" stroke="#80b1d3" stroke-width="2" d="M261.92,-342.08C274.97,-342.08 285.4,-342.08 285.4,-342.08 285.4,-342.08 285.4,-296.92 285.4,-296.92 285.4,-296.92 294.67,-296.92 294.67,-296.92"/>
<polygon fill="#80b1d3" stroke="#80b1d3" stroke-width="2" points="296.17,-294.42 296.17,-299.42 295.17,-299.42 295.17,-294.42 296.17,-294.42"/>
<polyline fill="none" stroke="#80b1d3" stroke-width="2" points="296.67,-296.92 294.17,-296.92"/>
</g>
<!-- ine5407 -->
<g id="node8" class="node">
<title>ine5407</title>
<polygon fill="#bebada" stroke="#bebada" points="261.6,-135.75 160.8,-135.75 160.8,-96.25 261.6,-96.25 261.6,-135.75"/>
<text text-anchor="middle" x="211.2" y="-118.45" font-family="Arial" font-size="14.00">INE5407</text>
<text text-anchor="middle" x="211.2" y="-102.7" font-family="Arial" font-size="14.00">CTS</text>
</g>
<!-- ine5428 -->
<g id="node36" class="node">
<title>ine5428</title>
<polygon fill="#bebada" stroke="#bebada" points="945.6,-294.75 844.8,-294.75 844.8,-255.25 945.6,-255.25 945.6,-294.75"/>
<text text-anchor="middle" x="895.2" y="-277.45" font-family="Arial" font-size="14.00">INE5428</text>
<text text-anchor="middle" x="895.2" y="-261.7" font-family="Arial" font-size="14.00">Inf. e Soc.</text>
</g>
<!-- ine5407&#45;&gt;ine5428 -->
<g id="edge13" class="edge">
<title>ine5407&#45;&gt;ine5428</title>
<path fill="none" stroke="#bebada" stroke-width="2" d="M261.86,-121.92C386.38,-121.92 697.4,-121.92 697.4,-121.92 697.4,-121.92 697.4,-263.75 697.4,-263.75 697.4,-263.75 842.02,-263.75 842.02,-263.75"/>
<polygon fill="#bebada" stroke="#bebada" stroke-width="2" points="843.52,-261.25 843.52,-266.25 842.52,-266.25 842.52,-261.25 843.52,-261.25"/>
<polyline fill="none" stroke="#bebada" stroke-width="2" points="844.02,-263.75 841.52,-263.75"/>
</g>
<!-- mtm3111 -->
<g id="node9" class="node">
<title>mtm3111</title>
<polygon fill="#fdb462" stroke="#fdb462" points="261.6,-309.75 160.8,-309.75 160.8,-270.25 261.6,-270.25 261.6,-309.75"/>
<text text-anchor="middle" x="211.2" y="-292.45" font-family="Arial" font-size="14.00">MTM3111</text>
<text text-anchor="middle" x="211.2" y="-276.7" font-family="Arial" font-size="14.00">GA</text>
</g>
<!-- ine5202 -->
<g id="node12" class="node">
<title>ine5202</title>
<polygon fill="#fdb462" stroke="#fdb462" points="398.4,-252.75 297.6,-252.75 297.6,-213.25 398.4,-213.25 398.4,-252.75"/>
<text text-anchor="middle" x="348" y="-235.45" font-family="Arial" font-size="14.00">INE5202</text>
<text text-anchor="middle" x="348" y="-219.7" font-family="Arial" font-size="14.00">Calc. Num.</text>
</g>
<!-- mtm3111&#45;&gt;ine5202 -->
<g id="edge41" class="edge">
<title>mtm3111&#45;&gt;ine5202</title>
<path fill="none" stroke="#fdb462" stroke-width="2" d="M261.84,-284.08C271.88,-284.08 279.4,-284.08 279.4,-284.08 279.4,-284.08 279.4,-244.05 279.4,-244.05 279.4,-244.05 294.92,-244.05 294.92,-244.05"/>
<polygon fill="#fdb462" stroke="#fdb462" stroke-width="2" points="296.42,-241.55 296.42,-246.55 295.42,-246.55 295.42,-241.55 296.42,-241.55"/>
<polyline fill="none" stroke="#fdb462" stroke-width="2" points="296.92,-244.05 294.42,-244.05"/>
</g>
<!-- mtm3120&#45;&gt;ine5202 -->
<g id="edge42" class="edge">
<title>mtm3120&#45;&gt;ine5202</title>
<path fill="none" stroke="#fdb462" stroke-width="2" d="M261.75,-236.35C261.75,-236.35 294.7,-236.35 294.7,-236.35"/>
<polygon fill="#fdb462" stroke="#fdb462" stroke-width="2" points="296.2,-233.85 296.2,-238.85 295.2,-238.85 295.2,-233.85 296.2,-233.85"/>
<polyline fill="none" stroke="#fdb462" stroke-width="2" points="296.7,-236.35 294.2,-236.35"/>
</g>
<!-- mtm3131 -->
<g id="node16" class="node">
<title>mtm3131</title>
<polygon fill="#fdb462" stroke="#fdb462" points="398.4,-194.75 297.6,-194.75 297.6,-155.25 398.4,-155.25 398.4,-194.75"/>
<text text-anchor="middle" x="348" y="-177.45" font-family="Arial" font-size="14.00">MTM3131</text>
<text text-anchor="middle" x="348" y="-161.7" font-family="Arial" font-size="14.00">Eq. Dif. Ord.</text>
</g>
<!-- mtm3120&#45;&gt;mtm3131 -->
<g id="edge44" class="edge">
<title>mtm3120&#45;&gt;mtm3131</title>
<path fill="none" stroke="#fdb462" stroke-width="2" d="M261.99,-228.65C268.75,-228.65 273.4,-228.65 273.4,-228.65 273.4,-228.65 273.4,-180.92 273.4,-180.92 273.4,-180.92 294.91,-180.92 294.91,-180.92"/>
<polygon fill="#fdb462" stroke="#fdb462" stroke-width="2" points="296.41,-178.42 296.41,-183.42 295.41,-183.42 295.41,-178.42 296.41,-178.42"/>
<polyline fill="none" stroke="#fdb462" stroke-width="2" points="296.91,-180.92 294.41,-180.92"/>
</g>
<!-- ine5420 -->
<g id="node26" class="node">
<title>ine5420</title>
<polygon fill="#fdb462" stroke="#fdb462" points="672,-173.75 571.2,-173.75 571.2,-134.25 672,-134.25 672,-173.75"/>
<text text-anchor="middle" x="621.6" y="-156.45" font-family="Arial" font-size="14.00">INE5420</text>
<text text-anchor="middle" x="621.6" y="-140.7" font-family="Arial" font-size="14.00">CG</text>
</g>
<!-- mtm3120&#45;&gt;ine5420 -->
<g id="edge43" class="edge">
<title>mtm3120&#45;&gt;ine5420</title>
<path fill="none" stroke="#fdb462" stroke-width="2" d="M261.81,-220.95C265.26,-220.95 267.4,-220.95 267.4,-220.95 267.4,-220.95 267.4,-148.08 267.4,-148.08 267.4,-148.08 568.35,-148.08 568.35,-148.08"/>
<polygon fill="#fdb462" stroke="#fdb462" stroke-width="2" points="569.85,-145.58 569.85,-150.58 568.85,-150.58 568.85,-145.58 569.85,-145.58"/>
<polyline fill="none" stroke="#fdb462" stroke-width="2" points="570.35,-148.08 567.85,-148.08"/>
</g>
<!-- mtm3121 -->
<g id="node11" class="node">
<title>mtm3121</title>
<polygon fill="#fdb462" stroke="#fdb462" points="261.6,-193.75 160.8,-193.75 160.8,-154.25 261.6,-154.25 261.6,-193.75"/>
<text text-anchor="middle" x="211.2" y="-176.45" font-family="Arial" font-size="14.00">MTM3121</text>
<text text-anchor="middle" x="211.2" y="-160.7" font-family="Arial" font-size="14.00">AL</text>
</g>
<!-- mtm3121&#45;&gt;mtm3131 -->
<g id="edge46" class="edge">
<title>mtm3121&#45;&gt;mtm3131</title>
<path fill="none" stroke="#fdb462" stroke-width="2" d="M261.75,-168.08C261.75,-168.08 294.7,-168.08 294.7,-168.08"/>
<polygon fill="#fdb462" stroke="#fdb462" stroke-width="2" points="296.2,-165.58 296.2,-170.58 295.2,-170.58 295.2,-165.58 296.2,-165.58"/>
<polyline fill="none" stroke="#fdb462" stroke-width="2" points="296.7,-168.08 294.2,-168.08"/>
</g>
<!-- mtm3121&#45;&gt;ine5420 -->
<g id="edge45" class="edge">
<title>mtm3121&#45;&gt;ine5420</title>
<path fill="none" stroke="#fdb462" stroke-width="2" d="M211.4,-153.86C211.4,-147.42 211.4,-141.92 211.4,-141.92 211.4,-141.92 568.39,-141.92 568.39,-141.92"/>
<polygon fill="#fdb462" stroke="#fdb462" stroke-width="2" points="569.89,-139.42 569.89,-144.42 568.89,-144.42 568.89,-139.42 569.89,-139.42"/>
<polyline fill="none" stroke="#fdb462" stroke-width="2" points="570.39,-141.92 567.89,-141.92"/>
</g>
<!-- ine5425 -->
<g id="node31" class="node">
<title>ine5425</title>
<polygon fill="#fdb462" stroke="#fdb462" points="808.8,-195.75 708,-195.75 708,-156.25 808.8,-156.25 808.8,-195.75"/>
<text text-anchor="middle" x="758.4" y="-178.45" font-family="Arial" font-size="14.00">INE5425</text>
<text text-anchor="middle" x="758.4" y="-162.7" font-family="Arial" font-size="14.00">Mod. e Sim.</text>
</g>
<!-- ine5202&#45;&gt;ine5425 -->
<g id="edge2" class="edge">
<title>ine5202&#45;&gt;ine5425</title>
<path fill="none" stroke="#fdb462" stroke-width="2" d="M398.77,-225.38C403.4,-225.38 406.4,-225.38 406.4,-225.38 406.4,-225.38 406.4,-183 406.4,-183 406.4,-183 705.09,-183 705.09,-183"/>
<polygon fill="#fdb462" stroke="#fdb462" stroke-width="2" points="706.59,-180.5 706.59,-185.5 705.59,-185.5 705.59,-180.5 706.59,-180.5"/>
<polyline fill="none" stroke="#fdb462" stroke-width="2" points="707.09,-183 704.59,-183"/>
</g>
<!-- ine5408&#45;&gt;ine5413 -->
<g id="edge14" class="edge">
<title>ine5408&#45;&gt;ine5413</title>
<path fill="none" stroke="#fb8072" stroke-width="2" d="M348.4,-427.1C348.4,-459.43 348.4,-519.42 348.4,-519.42 348.4,-519.42 431.51,-519.42 431.51,-519.42"/>
<polygon fill="#fb8072" stroke="#fb8072" stroke-width="2" points="433.01,-516.92 433.01,-521.92 432.01,-521.92 432.01,-516.92 433.01,-516.92"/>
<polyline fill="none" stroke="#fb8072" stroke-width="2" points="433.51,-519.42 431.01,-519.42"/>
</g>
<!-- ine5408&#45;&gt;ine5415 -->
<g id="edge15" class="edge">
<title>ine5408&#45;&gt;ine5415</title>
<path fill="none" stroke="#fb8072" stroke-width="2" d="M398.86,-408.5C411.94,-408.5 422.4,-408.5 422.4,-408.5 422.4,-408.5 422.4,-292.5 422.4,-292.5 422.4,-292.5 431.64,-292.5 431.64,-292.5"/>
<polygon fill="#fb8072" stroke="#fb8072" stroke-width="2" points="433.14,-290 433.14,-295 432.14,-295 432.14,-290 433.14,-290"/>
<polyline fill="none" stroke="#fb8072" stroke-width="2" points="433.64,-292.5 431.14,-292.5"/>
</g>
<!-- ine5416 -->
<g id="node21" class="node">
<title>ine5416</title>
<polygon fill="#8dd3c7" stroke="#8dd3c7" points="535.2,-429.75 434.4,-429.75 434.4,-390.25 535.2,-390.25 535.2,-429.75"/>
<text text-anchor="middle" x="484.8" y="-412.45" font-family="Arial" font-size="14.00">INE5416</text>
<text text-anchor="middle" x="484.8" y="-396.7" font-family="Arial" font-size="14.00">Paradigmas</text>
</g>
<!-- ine5408&#45;&gt;ine5416 -->
<g id="edge16" class="edge">
<title>ine5408&#45;&gt;ine5416</title>
<path fill="none" stroke="#fb8072" stroke-width="2" d="M398.55,-420.67C398.55,-420.67 431.5,-420.67 431.5,-420.67"/>
<polygon fill="#fb8072" stroke="#fb8072" stroke-width="2" points="433,-418.17 433,-423.17 432,-423.17 432,-418.17 433,-418.17"/>
<polyline fill="none" stroke="#fb8072" stroke-width="2" points="433.5,-420.67 431,-420.67"/>
</g>
<!-- ine5417 -->
<g id="node22" class="node">
<title>ine5417</title>
<polygon fill="#fb8072" stroke="#fb8072" points="535.2,-371.75 434.4,-371.75 434.4,-332.25 535.2,-332.25 535.2,-371.75"/>
<text text-anchor="middle" x="484.8" y="-354.45" font-family="Arial" font-size="14.00">INE5417</text>
<text text-anchor="middle" x="484.8" y="-338.7" font-family="Arial" font-size="14.00">ES I</text>
</g>
<!-- ine5408&#45;&gt;ine5417 -->
<g id="edge17" class="edge">
<title>ine5408&#45;&gt;ine5417</title>
<path fill="none" stroke="#fb8072" stroke-width="2" d="M398.78,-414.58C415.73,-414.58 430.4,-414.58 430.4,-414.58 430.4,-414.58 430.4,-356.58 430.4,-356.58 430.4,-356.58 431.47,-356.58 431.47,-356.58"/>
<polygon fill="#fb8072" stroke="#fb8072" stroke-width="2" points="432.97,-354.08 432.97,-359.08 431.97,-359.08 431.97,-354.08 432.97,-354.08"/>
<polyline fill="none" stroke="#fb8072" stroke-width="2" points="433.47,-356.58 430.97,-356.58"/>
</g>
<!-- ine5408&#45;&gt;ine5420 -->
<g id="edge18" class="edge">
<title>ine5408&#45;&gt;ine5420</title>
<path fill="none" stroke="#fb8072" stroke-width="2" d="M398.66,-402.42C405.6,-402.42 410.4,-402.42 410.4,-402.42 410.4,-402.42 410.4,-164.5 410.4,-164.5 410.4,-164.5 568.24,-164.5 568.24,-164.5"/>
<polygon fill="#fb8072" stroke="#fb8072" stroke-width="2" points="569.74,-162 569.74,-167 568.74,-167 568.74,-162 569.74,-162"/>
<polyline fill="none" stroke="#fb8072" stroke-width="2" points="570.24,-164.5 567.74,-164.5"/>
</g>
<!-- ine5423 -->
<g id="node29" class="node">
<title>ine5423</title>
<polygon fill="#bebada" stroke="#bebada" points="808.8,-137.75 708,-137.75 708,-98.25 808.8,-98.25 808.8,-137.75"/>
<text text-anchor="middle" x="758.4" y="-120.45" font-family="Arial" font-size="14.00">INE5423</text>
<text text-anchor="middle" x="758.4" y="-104.7" font-family="Arial" font-size="14.00">BD I</text>
</g>
<!-- ine5408&#45;&gt;ine5423 -->
<g id="edge19" class="edge">
<title>ine5408&#45;&gt;ine5423</title>
<path fill="none" stroke="#fb8072" stroke-width="2" d="M398.83,-396.33C401.07,-396.33 402.4,-396.33 402.4,-396.33 402.4,-396.33 402.4,-128.08 402.4,-128.08 402.4,-128.08 705.27,-128.08 705.27,-128.08"/>
<polygon fill="#fb8072" stroke="#fb8072" stroke-width="2" points="706.77,-125.58 706.77,-130.58 705.77,-130.58 705.77,-125.58 706.77,-125.58"/>
<polyline fill="none" stroke="#fb8072" stroke-width="2" points="707.27,-128.08 704.77,-128.08"/>
</g>
<!-- ine5412 -->
<g id="node17" class="node">
<title>ine5412</title>
<polygon fill="#80b1d3" stroke="#80b1d3" points="535.2,-255.75 434.4,-255.75 434.4,-216.25 535.2,-216.25 535.2,-255.75"/>
<text text-anchor="middle" x="484.8" y="-238.45" font-family="Arial" font-size="14.00">INE5412</text>
<text text-anchor="middle" x="484.8" y="-222.7" font-family="Arial" font-size="14.00">SO I</text>
</g>
<!-- ine5410&#45;&gt;ine5412 -->
<g id="edge20" class="edge">
<title>ine5410&#45;&gt;ine5412</title>
<path fill="none" stroke="#80b1d3" stroke-width="2" d="M398.79,-344.42C409.89,-344.42 418.4,-344.42 418.4,-344.42 418.4,-344.42 418.4,-243.62 418.4,-243.62 418.4,-243.62 431.64,-243.62 431.64,-243.62"/>
<polygon fill="#80b1d3" stroke="#80b1d3" stroke-width="2" points="433.14,-241.13 433.14,-246.13 432.14,-246.13 432.14,-241.13 433.14,-241.13"/>
<polyline fill="none" stroke="#80b1d3" stroke-width="2" points="433.64,-243.63 431.14,-243.63"/>
</g>
<!-- ine5411&#45;&gt;ine5412 -->
<g id="edge21" class="edge">
<title>ine5411&#45;&gt;ine5412</title>
<path fill="none" stroke="#80b1d3" stroke-width="2" d="M398.66,-283.38C407.75,-283.38 414.4,-283.38 414.4,-283.38 414.4,-283.38 414.4,-234.5 414.4,-234.5 414.4,-234.5 431.51,-234.5 431.51,-234.5"/>
<polygon fill="#80b1d3" stroke="#80b1d3" stroke-width="2" points="433.01,-232 433.01,-237 432.01,-237 432.01,-232 433.01,-232"/>
<polyline fill="none" stroke="#80b1d3" stroke-width="2" points="433.51,-234.5 431.01,-234.5"/>
</g>
<!-- ine5418 -->
<g id="node24" class="node">
<title>ine5418</title>
<polygon fill="#80b1d3" stroke="#80b1d3" points="672,-289.75 571.2,-289.75 571.2,-250.25 672,-250.25 672,-289.75"/>
<text text-anchor="middle" x="621.6" y="-272.45" font-family="Arial" font-size="14.00">INE5418</text>
<text text-anchor="middle" x="621.6" y="-256.7" font-family="Arial" font-size="14.00">Comp. Dist.</text>
</g>
<!-- ine5412&#45;&gt;ine5418 -->
<g id="edge22" class="edge">
<title>ine5412&#45;&gt;ine5418</title>
<path fill="none" stroke="#80b1d3" stroke-width="2" d="M484.4,-256.19C484.4,-260.09 484.4,-263 484.4,-263 484.4,-263 568.4,-263 568.4,-263"/>
<polygon fill="#80b1d3" stroke="#80b1d3" stroke-width="2" points="569.9,-260.5 569.9,-265.5 568.9,-265.5 568.9,-260.5 569.9,-260.5"/>
<polyline fill="none" stroke="#80b1d3" stroke-width="2" points="570.4,-263 567.9,-263"/>
</g>
<!-- ine5424 -->
<g id="node30" class="node">
<title>ine5424</title>
<polygon fill="#80b1d3" stroke="#80b1d3" points="808.8,-311.75 708,-311.75 708,-272.25 808.8,-272.25 808.8,-311.75"/>
<text text-anchor="middle" x="758.4" y="-294.45" font-family="Arial" font-size="14.00">INE5424</text>
<text text-anchor="middle" x="758.4" y="-278.7" font-family="Arial" font-size="14.00">SO II</text>
</g>
<!-- ine5412&#45;&gt;ine5424 -->
<g id="edge23" class="edge">
<title>ine5412&#45;&gt;ine5424</title>
<path fill="none" stroke="#80b1d3" stroke-width="2" d="M535.58,-237.92C597.04,-237.92 692.4,-237.92 692.4,-237.92 692.4,-237.92 692.4,-281 692.4,-281 692.4,-281 705.21,-281 705.21,-281"/>
<polygon fill="#80b1d3" stroke="#80b1d3" stroke-width="2" points="706.71,-278.5 706.71,-283.5 705.71,-283.5 705.71,-278.5 706.71,-278.5"/>
<polyline fill="none" stroke="#80b1d3" stroke-width="2" points="707.21,-281 704.71,-281"/>
</g>
<!-- ine5430 -->
<g id="node34" class="node">
<title>ine5430</title>
<polygon fill="#8dd3c7" stroke="#8dd3c7" points="808.8,-485.75 708,-485.75 708,-446.25 808.8,-446.25 808.8,-485.75"/>
<text text-anchor="middle" x="758.4" y="-468.45" font-family="Arial" font-size="14.00">INE5430</text>
<text text-anchor="middle" x="758.4" y="-452.7" font-family="Arial" font-size="14.00">IA</text>
</g>
<!-- ine5413&#45;&gt;ine5430 -->
<g id="edge24" class="edge">
<title>ine5413&#45;&gt;ine5430</title>
<path fill="none" stroke="#8dd3c7" stroke-width="2" d="M535.62,-516.5C614.74,-516.5 758.4,-516.5 758.4,-516.5 758.4,-516.5 758.4,-488.75 758.4,-488.75"/>
<polygon fill="#8dd3c7" stroke="#8dd3c7" stroke-width="2" points="755.9,-487.25 760.9,-487.25 760.9,-488.25 755.9,-488.25 755.9,-487.25"/>
<polyline fill="none" stroke="#8dd3c7" stroke-width="2" points="758.4,-486.75 758.4,-489.25"/>
</g>
<!-- ine5414&#45;&gt;ine5418 -->
<g id="edge25" class="edge">
<title>ine5414&#45;&gt;ine5418</title>
<path fill="none" stroke="#bebada" stroke-width="2" d="M535.69,-470.75C550.32,-470.75 562.4,-470.75 562.4,-470.75 562.4,-470.75 562.4,-282 562.4,-282 562.4,-282 568.38,-282 568.38,-282"/>
<polygon fill="#bebada" stroke="#bebada" stroke-width="2" points="569.88,-279.5 569.88,-284.5 568.88,-284.5 568.88,-279.5 569.88,-279.5"/>
<polyline fill="none" stroke="#bebada" stroke-width="2" points="570.38,-282 567.88,-282"/>
</g>
<!-- ine5422 -->
<g id="node28" class="node">
<title>ine5422</title>
<polygon fill="#bebada" stroke="#bebada" points="672,-405.75 571.2,-405.75 571.2,-366.25 672,-366.25 672,-405.75"/>
<text text-anchor="middle" x="621.6" y="-388.45" font-family="Arial" font-size="14.00">INE5422</text>
<text text-anchor="middle" x="621.6" y="-372.7" font-family="Arial" font-size="14.00">Redes II</text>
</g>
<!-- ine5414&#45;&gt;ine5422 -->
<g id="edge26" class="edge">
<title>ine5414&#45;&gt;ine5422</title>
<path fill="none" stroke="#bebada" stroke-width="2" d="M535.66,-478.25C574.5,-478.25 621.4,-478.25 621.4,-478.25 621.4,-478.25 621.4,-408.52 621.4,-408.52"/>
<polygon fill="#bebada" stroke="#bebada" stroke-width="2" points="618.9,-407.02 623.9,-407.02 623.9,-408.02 618.9,-408.02 618.9,-407.02"/>
<polyline fill="none" stroke="#bebada" stroke-width="2" points="621.4,-406.52 621.4,-409.02"/>
</g>
<!-- ine5414&#45;&gt;ine5429 -->
<g id="edge27" class="edge">
<title>ine5414&#45;&gt;ine5429</title>
<path fill="none" stroke="#bebada" stroke-width="2" d="M484.4,-487.91C484.4,-491.39 484.4,-493.92 484.4,-493.92 484.4,-493.92 841.92,-493.92 841.92,-493.92"/>
<polygon fill="#bebada" stroke="#bebada" stroke-width="2" points="843.42,-491.42 843.42,-496.42 842.42,-496.42 842.42,-491.42 843.42,-491.42"/>
<polyline fill="none" stroke="#bebada" stroke-width="2" points="843.92,-493.92 841.42,-493.92"/>
</g>
<!-- ine5431 -->
<g id="node38" class="node">
<title>ine5431</title>
<polygon fill="#bebada" stroke="#bebada" points="945.6,-468.75 844.8,-468.75 844.8,-429.25 945.6,-429.25 945.6,-468.75"/>
<text text-anchor="middle" x="895.2" y="-451.45" font-family="Arial" font-size="14.00">INE5431</text>
<text text-anchor="middle" x="895.2" y="-435.7" font-family="Arial" font-size="14.00">Multimídia</text>
</g>
<!-- ine5414&#45;&gt;ine5431 -->
<g id="edge28" class="edge">
<title>ine5414&#45;&gt;ine5431</title>
<path fill="none" stroke="#bebada" stroke-width="2" d="M484.4,-447.84C484.4,-441.92 484.4,-437 484.4,-437 484.4,-437 841.92,-437 841.92,-437"/>
<polygon fill="#bebada" stroke="#bebada" stroke-width="2" points="843.42,-434.5 843.42,-439.5 842.42,-439.5 842.42,-434.5 843.42,-434.5"/>
<polyline fill="none" stroke="#bebada" stroke-width="2" points="843.92,-437 841.42,-437"/>
</g>
<!-- ine5421 -->
<g id="node27" class="node">
<title>ine5421</title>
<polygon fill="#8dd3c7" stroke="#8dd3c7" points="672,-347.75 571.2,-347.75 571.2,-308.25 672,-308.25 672,-347.75"/>
<text text-anchor="middle" x="621.6" y="-330.45" font-family="Arial" font-size="14.00">INE5421</text>
<text text-anchor="middle" x="621.6" y="-314.7" font-family="Arial" font-size="14.00">Ling. Formais</text>
</g>
<!-- ine5415&#45;&gt;ine5421 -->
<g id="edge29" class="edge">
<title>ine5415&#45;&gt;ine5421</title>
<path fill="none" stroke="#8dd3c7" stroke-width="2" d="M484.4,-314.19C484.4,-318.09 484.4,-321 484.4,-321 484.4,-321 568.4,-321 568.4,-321"/>
<polygon fill="#8dd3c7" stroke="#8dd3c7" stroke-width="2" points="569.9,-318.5 569.9,-323.5 568.9,-323.5 568.9,-318.5 569.9,-318.5"/>
<polyline fill="none" stroke="#8dd3c7" stroke-width="2" points="570.4,-321 567.9,-321"/>
</g>
<!-- ine5416&#45;&gt;ine5430 -->
<g id="edge30" class="edge">
<title>ine5416&#45;&gt;ine5430</title>
<path fill="none" stroke="#8dd3c7" stroke-width="2" d="M535.61,-416.75C540.9,-416.75 544.4,-416.75 544.4,-416.75 544.4,-416.75 544.4,-463.25 544.4,-463.25 544.4,-463.25 705.18,-463.25 705.18,-463.25"/>
<polygon fill="#8dd3c7" stroke="#8dd3c7" stroke-width="2" points="706.68,-460.75 706.69,-465.75 705.69,-465.75 705.68,-460.75 706.68,-460.75"/>
<polyline fill="none" stroke="#8dd3c7" stroke-width="2" points="707.18,-463.25 704.68,-463.25"/>
</g>
<!-- ine5419 -->
<g id="node25" class="node">
<title>ine5419</title>
<polygon fill="#fb8072" stroke="#fb8072" points="672,-231.75 571.2,-231.75 571.2,-192.25 672,-192.25 672,-231.75"/>
<text text-anchor="middle" x="621.6" y="-214.45" font-family="Arial" font-size="14.00">INE5419</text>
<text text-anchor="middle" x="621.6" y="-198.7" font-family="Arial" font-size="14.00">ES II</text>
</g>
<!-- ine5417&#45;&gt;ine5419 -->
<g id="edge31" class="edge">
<title>ine5417&#45;&gt;ine5419</title>
<path fill="none" stroke="#fb8072" stroke-width="2" d="M535.38,-340C545.66,-340 553.4,-340 553.4,-340 553.4,-340 553.4,-224 553.4,-224 553.4,-224 568.46,-224 568.46,-224"/>
<polygon fill="#fb8072" stroke="#fb8072" stroke-width="2" points="569.96,-221.5 569.96,-226.5 568.96,-226.5 568.96,-221.5 569.96,-221.5"/>
<polyline fill="none" stroke="#fb8072" stroke-width="2" points="570.46,-224 567.96,-224"/>
</g>
<!-- ine5427 -->
<g id="node33" class="node">
<title>ine5427</title>
<polygon fill="#fb8072" stroke="#fb8072" points="808.8,-369.75 708,-369.75 708,-330.25 808.8,-330.25 808.8,-369.75"/>
<text text-anchor="middle" x="758.4" y="-352.45" font-family="Arial" font-size="14.00">INE5427</text>
<text text-anchor="middle" x="758.4" y="-336.7" font-family="Arial" font-size="14.00">P&amp;GP</text>
</g>
<!-- ine5417&#45;&gt;ine5427 -->
<g id="edge32" class="edge">
<title>ine5417&#45;&gt;ine5427</title>
<path fill="none" stroke="#fb8072" stroke-width="2" d="M535.62,-353.92C535.62,-353.92 705.35,-353.92 705.35,-353.92"/>
<polygon fill="#fb8072" stroke="#fb8072" stroke-width="2" points="706.85,-351.42 706.85,-356.42 705.85,-356.42 705.85,-351.42 706.85,-351.42"/>
<polyline fill="none" stroke="#fb8072" stroke-width="2" points="707.35,-353.92 704.85,-353.92"/>
</g>
<!-- ine5453 -->
<g id="node35" class="node">
<title>ine5453</title>
<polygon fill="#fb8072" stroke="#fb8072" points="808.8,-427.75 708,-427.75 708,-388.25 808.8,-388.25 808.8,-427.75"/>
<text text-anchor="middle" x="758.4" y="-410.45" font-family="Arial" font-size="14.00">INE5453</text>
<text text-anchor="middle" x="758.4" y="-394.7" font-family="Arial" font-size="14.00">Introd. TCC</text>
</g>
<!-- ine5417&#45;&gt;ine5453 -->
<g id="edge33" class="edge">
<title>ine5417&#45;&gt;ine5453</title>
<path fill="none" stroke="#fb8072" stroke-width="2" d="M535.69,-360.08C594.23,-360.08 682.4,-360.08 682.4,-360.08 682.4,-360.08 682.4,-397 682.4,-397 682.4,-397 705.21,-397 705.21,-397"/>
<polygon fill="#fb8072" stroke="#fb8072" stroke-width="2" points="706.71,-394.5 706.71,-399.5 705.71,-399.5 705.71,-394.5 706.71,-394.5"/>
<polyline fill="none" stroke="#fb8072" stroke-width="2" points="707.21,-397 704.71,-397"/>
</g>
<!-- ine5405&#45;&gt;ine5425 -->
<g id="edge10" class="edge">
<title>ine5405&#45;&gt;ine5425</title>
<path fill="none" stroke="#fdb462" stroke-width="2" d="M672.31,-104.08C688.55,-104.08 702.4,-104.08 702.4,-104.08 702.4,-104.08 702.4,-165 702.4,-165 702.4,-165 705.07,-165 705.07,-165"/>
<polygon fill="#fdb462" stroke="#fdb462" stroke-width="2" points="706.57,-162.5 706.57,-167.5 705.57,-167.5 705.57,-162.5 706.57,-162.5"/>
<polyline fill="none" stroke="#fdb462" stroke-width="2" points="707.07,-165 704.57,-165"/>
</g>
<!-- ine5405&#45;&gt;ine5430 -->
<g id="edge11" class="edge">
<title>ine5405&#45;&gt;ine5430</title>
<path fill="none" stroke="#fdb462" stroke-width="2" d="M672.25,-109.92C675.44,-109.92 677.4,-109.92 677.4,-109.92 677.4,-109.92 677.4,-455.75 677.4,-455.75 677.4,-455.75 705.06,-455.75 705.06,-455.75"/>
<polygon fill="#fdb462" stroke="#fdb462" stroke-width="2" points="706.56,-453.25 706.56,-458.25 705.56,-458.25 705.56,-453.25 706.56,-453.25"/>
<polyline fill="none" stroke="#fdb462" stroke-width="2" points="707.06,-455.75 704.56,-455.75"/>
</g>
<!-- ine5426 -->
<g id="node32" class="node">
<title>ine5426</title>
<polygon fill="#8dd3c7" stroke="#8dd3c7" points="808.8,-253.75 708,-253.75 708,-214.25 808.8,-214.25 808.8,-253.75"/>
<text text-anchor="middle" x="758.4" y="-236.45" font-family="Arial" font-size="14.00">INE5426</text>
<text text-anchor="middle" x="758.4" y="-220.7" font-family="Arial" font-size="14.00">Compiladores</text>
</g>
<!-- ine5421&#45;&gt;ine5426 -->
<g id="edge34" class="edge">
<title>ine5421&#45;&gt;ine5426</title>
<path fill="none" stroke="#8dd3c7" stroke-width="2" d="M672.47,-324.58C681.13,-324.58 687.4,-324.58 687.4,-324.58 687.4,-324.58 687.4,-244.08 687.4,-244.08 687.4,-244.08 705.06,-244.08 705.06,-244.08"/>
<polygon fill="#8dd3c7" stroke="#8dd3c7" stroke-width="2" points="706.56,-241.58 706.56,-246.58 705.56,-246.58 705.56,-241.58 706.56,-241.58"/>
<polyline fill="none" stroke="#8dd3c7" stroke-width="2" points="707.06,-244.08 704.56,-244.08"/>
</g>
<!-- ine5432 -->
<g id="node39" class="node">
<title>ine5432</title>
<polygon fill="#bebada" stroke="#bebada" points="945.6,-352.75 844.8,-352.75 844.8,-313.25 945.6,-313.25 945.6,-352.75"/>
<text text-anchor="middle" x="895.2" y="-335.45" font-family="Arial" font-size="14.00">INE5432</text>
<text text-anchor="middle" x="895.2" y="-319.7" font-family="Arial" font-size="14.00">BD II</text>
</g>
<!-- ine5423&#45;&gt;ine5432 -->
<g id="edge35" class="edge">
<title>ine5423&#45;&gt;ine5432</title>
<path fill="none" stroke="#bebada" stroke-width="2" d="M809.24,-118C819.08,-118 826.4,-118 826.4,-118 826.4,-118 826.4,-318.92 826.4,-318.92 826.4,-318.92 841.98,-318.92 841.98,-318.92"/>
<polygon fill="#bebada" stroke="#bebada" stroke-width="2" points="843.48,-316.42 843.48,-321.42 842.48,-321.42 842.48,-316.42 843.48,-316.42"/>
<polyline fill="none" stroke="#bebada" stroke-width="2" points="843.98,-318.92 841.48,-318.92"/>
</g>
<!-- ine5433 -->
<g id="node40" class="node">
<title>ine5433</title>
<polygon fill="#fb8072" stroke="#fb8072" points="945.6,-410.75 844.8,-410.75 844.8,-371.25 945.6,-371.25 945.6,-410.75"/>
<text text-anchor="middle" x="895.2" y="-393.45" font-family="Arial" font-size="14.00">INE5433</text>
<text text-anchor="middle" x="895.2" y="-377.7" font-family="Arial" font-size="14.00">TCC I</text>
</g>
<!-- ine5427&#45;&gt;ine5433 -->
<g id="edge36" class="edge">
<title>ine5427&#45;&gt;ine5433</title>
<path fill="none" stroke="#fb8072" stroke-width="2" d="M758.4,-370.01C758.4,-375.39 758.4,-379.75 758.4,-379.75 758.4,-379.75 842.15,-379.75 842.15,-379.75"/>
<polygon fill="#fb8072" stroke="#fb8072" stroke-width="2" points="843.65,-377.25 843.65,-382.25 842.65,-382.25 842.65,-377.25 843.65,-377.25"/>
<polyline fill="none" stroke="#fb8072" stroke-width="2" points="844.15,-379.75 841.65,-379.75"/>
</g>
<!-- ine5453&#45;&gt;ine5433 -->
<g id="edge38" class="edge">
<title>ine5453&#45;&gt;ine5433</title>
<path fill="none" stroke="#fb8072" stroke-width="2" d="M808.95,-399.5C808.95,-399.5 841.9,-399.5 841.9,-399.5"/>
<polygon fill="#fb8072" stroke="#fb8072" stroke-width="2" points="843.4,-397 843.4,-402 842.4,-402 842.4,-397 843.4,-397"/>
<polyline fill="none" stroke="#fb8072" stroke-width="2" points="843.9,-399.5 841.4,-399.5"/>
</g>
<!-- ine5434 -->
<g id="node41" class="node">
<title>ine5434</title>
<polygon fill="#fb8072" stroke="#fb8072" points="1082.4,-393.75 981.6,-393.75 981.6,-354.25 1082.4,-354.25 1082.4,-393.75"/>
<text text-anchor="middle" x="1032" y="-376.45" font-family="Arial" font-size="14.00">INE5434</text>
<text text-anchor="middle" x="1032" y="-360.7" font-family="Arial" font-size="14.00">TCC II</text>
</g>
<!-- ine5433&#45;&gt;ine5434 -->
<g id="edge37" class="edge">
<title>ine5433&#45;&gt;ine5434</title>
<path fill="none" stroke="#fb8072" stroke-width="2" d="M945.75,-382.5C945.75,-382.5 978.7,-382.5 978.7,-382.5"/>
<polygon fill="#fb8072" stroke="#fb8072" stroke-width="2" points="980.2,-380 980.2,-385 979.2,-385 979.2,-380 980.2,-380"/>
<polyline fill="none" stroke="#fb8072" stroke-width="2" points="980.7,-382.5 978.2,-382.5"/>
</g>
<!-- opt1 -->
<g id="node42" class="node">
<title>opt1</title>
<polygon fill="lightgrey" stroke="black" points="1082.4,-448.25 981.6,-448.25 981.6,-411.75 1082.4,-411.75 1082.4,-448.25"/>
<text text-anchor="middle" x="1032" y="-432.85" font-family="Arial" font-size="12.00">Optativas INE</text>
<text text-anchor="middle" x="1032" y="-418.6" font-family="Arial" font-size="12.00">(288 h/a)</text>
</g>
<!-- opt2 -->
<g id="node43" class="node">
<title>opt2</title>
<polygon fill="lightgrey" stroke="black" points="1082.4,-503.25 981.6,-503.25 981.6,-466.75 1082.4,-466.75 1082.4,-503.25"/>
<text text-anchor="middle" x="1032" y="-487.85" font-family="Arial" font-size="12.00">Optativas ext.</text>
<text text-anchor="middle" x="1032" y="-473.6" font-family="Arial" font-size="12.00">(144 h/a)</text>
</g>
<!-- comp -->
<g id="node44" class="node">
<title>comp</title>
<polygon fill="lightgrey" stroke="black" points="1082.4,-558.25 981.6,-558.25 981.6,-521.75 1082.4,-521.75 1082.4,-558.25"/>
<text text-anchor="middle" x="1032" y="-542.85" font-family="Arial" font-size="12.00">Ativid. compl.</text>
<text text-anchor="middle" x="1032" y="-528.6" font-family="Arial" font-size="12.00">(168 h/a)</text>
</g>
</g>
</svg>
